<?xml version="1.0" encoding="UTF-8"?> <svg xmlns="http://www.w3.org/2000/svg" width="62" height="63" viewBox="0 0 62 63" fill="none"><path d="M62.0009 11.376C62.0026 9.261 61.4143 7.18749 60.3019 5.38864C59.1896 3.58979 57.5975 2.13696 55.7046 1.19353C53.8117 0.250102 51.6931 -0.146496 49.5871 0.0483397C47.4811 0.243175 45.4713 1.02172 43.7836 2.2964C42.0959 3.57109 40.7973 5.29136 40.0339 7.26375C39.2705 9.23613 39.0725 11.3824 39.4622 13.4612C39.8519 15.5399 40.8139 17.4687 42.2399 19.0306C43.6659 20.5925 45.4994 21.7256 47.5342 22.3024V24.8093C47.2602 24.8093 46.9974 24.9182 46.8036 25.112C46.6098 25.3057 46.5009 25.5686 46.5009 25.8426V58.9093C46.5009 59.7315 46.8275 60.52 47.4089 61.1013C47.9902 61.6827 48.7787 62.0093 49.6009 62.0093H51.6676C52.4897 62.0093 53.2782 61.6827 53.8596 61.1013C54.441 60.52 54.7676 59.7315 54.7676 58.9093V25.8426C54.7676 25.5686 54.6587 25.3057 54.4649 25.112C54.2711 24.9182 54.0083 24.8093 53.7342 24.8093V22.3024C56.1119 21.6261 58.2047 20.194 59.6962 18.2227C61.1877 16.2513 61.9967 13.848 62.0009 11.376ZM41.3342 11.376C41.3342 9.53661 41.8797 7.73855 42.9016 6.20917C43.9235 4.6798 45.3759 3.48779 47.0753 2.7839C48.7746 2.08 50.6446 1.89583 52.4486 2.25467C54.2526 2.61352 55.9097 3.49925 57.2103 4.79988C58.511 6.10051 59.3967 7.75761 59.7555 9.56164C60.1144 11.3657 59.9302 13.2356 59.2263 14.9349C58.5224 16.6343 57.3304 18.0867 55.801 19.1086C54.2717 20.1305 52.4736 20.676 50.6342 20.676C48.1686 20.6732 45.8047 19.6925 44.0612 17.949C42.3177 16.2056 41.337 13.8416 41.3342 11.376ZM52.7009 58.9093C52.7009 59.1834 52.592 59.4462 52.3983 59.64C52.2045 59.8338 51.9416 59.9426 51.6676 59.9426H49.6009C49.3269 59.9426 49.064 59.8338 48.8702 59.64C48.6764 59.4462 48.5676 59.1834 48.5676 58.9093V26.876H52.7009V58.9093ZM51.6676 24.8093H49.6009V22.6899C49.9419 22.7209 50.285 22.7426 50.6342 22.7426C50.9835 22.7426 51.3266 22.7209 51.6676 22.6899V24.8093Z" fill="#8D7252"></path><path d="M56.8351 11.3769H58.9018C58.9002 10.0426 58.5762 8.72843 57.9572 7.54635C57.3383 6.36427 56.4428 5.3493 55.3471 4.58789L54.166 6.28462C54.9885 6.85533 55.6608 7.61647 56.1256 8.50316C56.5903 9.38985 56.8338 10.3758 56.8351 11.3769Z" fill="#8D7252"></path><path d="M52.9754 3.44728C52.2148 3.22263 51.4259 3.10882 50.6328 3.10938V5.17604C51.2275 5.17503 51.8193 5.26031 52.3895 5.42921L52.9754 3.44728Z" fill="#8D7252"></path><path d="M30.9997 17.5762C28.3429 17.5762 25.7457 18.364 23.5366 19.8401C21.3275 21.3162 19.6057 23.4142 18.589 25.8688C17.5722 28.3234 17.3062 31.0244 17.8245 33.6302C18.3429 36.236 19.6223 38.6296 21.5009 40.5083C23.3796 42.387 25.7732 43.6664 28.379 44.1847C30.9848 44.703 33.6858 44.437 36.1405 43.4203C38.5951 42.4035 40.6931 40.6818 42.1691 38.4727C43.6452 36.2636 44.4331 33.6664 44.4331 31.0095C44.429 27.448 43.0124 24.0336 40.494 21.5152C37.9757 18.9969 34.5612 17.5803 30.9997 17.5762ZM32.0331 42.3235V40.3095H29.9664V42.3235C27.3224 42.0789 24.8472 40.9172 22.9697 39.0396C21.0921 37.162 19.9304 34.6868 19.6858 32.0428H21.6997V29.9762H19.6858C19.9304 27.3322 21.0921 24.857 22.9697 22.9794C24.8472 21.1018 27.3224 19.9401 29.9664 19.6955V21.7095H32.0331V19.6955C34.6771 19.9401 37.1523 21.1018 39.0298 22.9794C40.9074 24.857 42.0691 27.3322 42.3137 29.9762H40.2997V32.0428H42.3137C42.0691 34.6868 40.9074 37.162 39.0298 39.0396C37.1523 40.9172 34.6771 42.0789 32.0331 42.3235Z" fill="#8D7252"></path><path d="M1.03333 22.7421H17.5667C17.8407 22.7421 18.1036 22.6333 18.2973 22.4395C18.4911 22.2457 18.6 21.9828 18.6 21.7088V7.24212H18.5907C18.5931 6.96941 18.4876 6.70681 18.2972 6.51156L12.0972 0.311556C11.9021 0.120783 11.6395 0.0149153 11.3667 0.0170556V0.00878906H1.03333C0.759276 0.00878906 0.496444 0.117658 0.302656 0.311445C0.108869 0.505233 0 0.768065 0 1.04212V21.7088C0 21.9828 0.108869 22.2457 0.302656 22.4395C0.496444 22.6333 0.759276 22.7421 1.03333 22.7421ZM12.4 3.53659L15.0722 6.20879H12.4V3.53659ZM2.06667 2.07546H10.3333V7.24212C10.3333 7.51618 10.4422 7.77901 10.636 7.9728C10.8298 8.16659 11.0926 8.27545 11.3667 8.27545H16.5333V20.6755H2.06667V2.07546Z" fill="#8D7252"></path><path d="M11.3667 39.2754C9.11856 39.2754 6.92093 39.942 5.05169 41.191C3.18245 42.44 1.72556 44.2152 0.865241 46.2922C0.00492504 48.3692 -0.220173 50.6547 0.218412 52.8596C0.656998 55.0645 1.73957 57.0898 3.32922 58.6795C4.91888 60.2692 6.94423 61.3517 9.14914 61.7903C11.3541 62.2289 13.6395 62.0038 15.7165 61.1435C17.7935 60.2832 19.5687 58.8263 20.8177 56.957C22.0667 55.0878 22.7333 52.8902 22.7333 50.6421C22.7298 47.6285 21.5311 44.7394 19.4002 42.6085C17.2693 40.4776 14.3802 39.2789 11.3667 39.2754ZM11.3667 59.9421C9.5273 59.9421 7.72924 59.3966 6.19987 58.3747C4.67049 57.3528 3.47849 55.9004 2.77459 54.201C2.0707 52.5017 1.88653 50.6317 2.24537 48.8277C2.60421 47.0237 3.48995 45.3666 4.79058 44.066C6.09121 42.7653 7.74831 41.8796 9.55233 41.5208C11.3564 41.1619 13.2263 41.3461 14.9256 42.05C16.625 42.7539 18.0774 43.9459 19.0993 45.4753C20.1212 47.0046 20.6667 48.8027 20.6667 50.6421C20.6639 53.1077 19.6832 55.4716 17.9397 57.2151C16.1962 58.9586 13.8323 59.9393 11.3667 59.9421Z" fill="#8D7252"></path><path d="M32.0345 28.0989V23.7754H29.9678V28.0989C29.4744 28.2722 29.0331 28.5679 28.685 28.9582C28.3369 29.3484 28.0935 29.8206 27.9775 30.3305C27.8614 30.8404 27.8766 31.3714 28.0215 31.8739C28.1665 32.3763 28.4365 32.8338 28.8062 33.2036C29.176 33.5734 29.6335 33.8434 30.136 33.9883C30.6384 34.1333 31.1695 34.1484 31.6794 34.0324C32.1893 33.9164 32.6614 33.6729 33.0517 33.3249C33.442 32.9768 33.7376 32.5354 33.911 32.0421H36.1678V29.9754H33.911C33.7566 29.5432 33.5082 29.1507 33.1837 28.8262C32.8592 28.5017 32.4667 28.2532 32.0345 28.0989ZM31.0011 32.0421C30.7968 32.0421 30.597 31.9815 30.4271 31.8679C30.2571 31.7544 30.1247 31.593 30.0465 31.4042C29.9683 31.2153 29.9478 31.0076 29.9877 30.8071C30.0275 30.6067 30.126 30.4226 30.2705 30.278C30.415 30.1335 30.5991 30.0351 30.7996 29.9952C31 29.9554 31.2078 29.9758 31.3966 30.054C31.5854 30.1323 31.7468 30.2647 31.8603 30.4346C31.9739 30.6046 32.0345 30.8043 32.0345 31.0087C32.0345 31.2828 31.9256 31.5456 31.7318 31.7394C31.538 31.9332 31.2752 32.0421 31.0011 32.0421Z" fill="#8D7252"></path><path d="M11.3676 47.5424C11.6416 47.5424 11.9045 47.6513 12.0983 47.845C12.292 48.0388 12.4009 48.3017 12.4009 48.5757H14.4676C14.4649 47.9368 14.265 47.3144 13.895 46.7935C13.5251 46.2727 13.0032 45.8788 12.4009 45.6658V44.4424H10.3342V45.6658C9.64534 45.9085 9.06454 46.3871 8.69472 47.017C8.32489 47.6468 8.18991 48.3872 8.31368 49.107C8.43744 49.8269 8.81197 50.4797 9.37093 50.9498C9.92988 51.4199 10.6372 51.6771 11.3676 51.6757C11.572 51.6757 11.7717 51.7363 11.9417 51.8499C12.1116 51.9634 12.244 52.1248 12.3223 52.3136C12.4005 52.5024 12.4209 52.7102 12.3811 52.9106C12.3412 53.1111 12.2428 53.2952 12.0983 53.4397C11.9537 53.5842 11.7696 53.6827 11.5692 53.7225C11.3687 53.7624 11.161 53.7419 10.9721 53.6637C10.7833 53.5855 10.6219 53.4531 10.5084 53.2831C10.3948 53.1132 10.3342 52.9134 10.3342 52.709H8.26758C8.27023 53.3479 8.4702 53.9704 8.84014 54.4912C9.21007 55.0121 9.73191 55.406 10.3342 55.6189V56.8424H12.4009V55.6189C13.0898 55.3763 13.6706 54.8976 14.0404 54.2678C14.4103 53.638 14.5452 52.8976 14.4215 52.1777C14.2977 51.4579 13.9232 50.8051 13.3642 50.335C12.8053 49.8648 12.098 49.6077 11.3676 49.609C11.0935 49.609 10.8307 49.5002 10.6369 49.3064C10.4431 49.1126 10.3342 48.8498 10.3342 48.5757C10.3342 48.3017 10.4431 48.0388 10.6369 47.845C10.8307 47.6513 11.0935 47.5424 11.3676 47.5424Z" fill="#8D7252"></path></svg> 