<?xml version="1.0" encoding="UTF-8"?> <svg xmlns="http://www.w3.org/2000/svg" width="62" height="62" viewBox="0 0 62 62" fill="none"><path d="M57.1562 17.4375H56.1875V4.84375C56.1875 4.07296 55.8813 3.33375 55.3363 2.78872C54.7912 2.24369 54.052 1.9375 53.2812 1.9375H4.84375C4.07296 1.9375 3.33375 2.24369 2.78872 2.78872C2.24369 3.33375 1.9375 4.07296 1.9375 4.84375V43.5938C1.9375 44.3645 2.24369 45.1037 2.78872 45.6488C3.33375 46.1938 4.07296 46.5 4.84375 46.5H20.3438V52.3125H15.5C14.7292 52.3125 13.99 52.6187 13.445 53.1637C12.8999 53.7088 12.5938 54.448 12.5938 55.2188V57.1562C12.5938 57.927 12.8999 58.6662 13.445 59.2113C13.99 59.7563 14.7292 60.0625 15.5 60.0625H57.1562C57.927 60.0625 58.6662 59.7563 59.2113 59.2113C59.7563 58.6662 60.0625 57.927 60.0625 57.1562V20.3438C60.0625 19.573 59.7563 18.8337 59.2113 18.2887C58.6662 17.7437 57.927 17.4375 57.1562 17.4375ZM58.125 20.3438V21.3125H36.8125V20.3438C36.8125 20.0868 36.9146 19.8404 37.0962 19.6587C37.2779 19.4771 37.5243 19.375 37.7812 19.375H57.1562C57.4132 19.375 57.6596 19.4771 57.8413 19.6587C58.0229 19.8404 58.125 20.0868 58.125 20.3438ZM36.8125 23.25H58.125V54.25H36.8125V23.25ZM3.875 4.84375C3.875 4.58682 3.97706 4.34042 4.15874 4.15874C4.34042 3.97706 4.58682 3.875 4.84375 3.875H53.2812C53.5382 3.875 53.7846 3.97706 53.9663 4.15874C54.1479 4.34042 54.25 4.58682 54.25 4.84375V17.4375H37.7812C37.0105 17.4375 36.2713 17.7437 35.7262 18.2887C35.1812 18.8337 34.875 19.573 34.875 20.3438V38.75H3.875V4.84375ZM3.875 43.5938V40.6875H34.875V44.5625H4.84375C4.58682 44.5625 4.34042 44.4604 4.15874 44.2788C3.97706 44.0971 3.875 43.8507 3.875 43.5938ZM22.2812 46.5H34.875V52.3125H22.2812V46.5ZM14.5312 57.1562V55.2188C14.5312 54.9618 14.6333 54.7154 14.815 54.5337C14.9967 54.3521 15.2431 54.25 15.5 54.25H34.875V57.1562C34.8782 57.487 34.9385 57.8148 35.0532 58.125H15.5C15.2431 58.125 14.9967 58.0229 14.815 57.8413C14.6333 57.6596 14.5312 57.4132 14.5312 57.1562ZM57.1562 58.125H37.7812C37.5243 58.125 37.2779 58.0229 37.0962 57.8413C36.9146 57.6596 36.8125 57.4132 36.8125 57.1562V56.1875H58.125V57.1562C58.125 57.4132 58.0229 57.6596 57.8413 57.8413C57.6596 58.0229 57.4132 58.125 57.1562 58.125Z" fill="#8D7252"></path><path d="M55.2188 31H39.7188C39.4618 31 39.2154 31.1021 39.0337 31.2837C38.8521 31.4654 38.75 31.7118 38.75 31.9688V45.5312C38.75 45.7882 38.8521 46.0346 39.0337 46.2163C39.2154 46.3979 39.4618 46.5 39.7188 46.5H55.2188C55.4757 46.5 55.7221 46.3979 55.9038 46.2163C56.0854 46.0346 56.1875 45.7882 56.1875 45.5312V31.9688C56.1875 31.7118 56.0854 31.4654 55.9038 31.2837C55.7221 31.1021 55.4757 31 55.2188 31ZM54.25 44.5625H40.6875V32.9375H54.25V44.5625Z" fill="#8D7252"></path><path d="M8.71875 23.25H24.2188C24.4757 23.25 24.7221 23.1479 24.9038 22.9663C25.0854 22.7846 25.1875 22.5382 25.1875 22.2812V8.71875C25.1875 8.46182 25.0854 8.21542 24.9038 8.03374C24.7221 7.85206 24.4757 7.75 24.2188 7.75H8.71875C8.46182 7.75 8.21542 7.85206 8.03374 8.03374C7.85206 8.21542 7.75 8.46182 7.75 8.71875V22.2812C7.75 22.5382 7.85206 22.7846 8.03374 22.9663C8.21542 23.1479 8.46182 23.25 8.71875 23.25ZM9.6875 9.6875H23.25V21.3125H9.6875V9.6875Z" fill="#8D7252"></path><path d="M16.0352 18.0754L13.0262 16.5709L12.1602 18.3049L16.0352 20.2424C16.149 20.2994 16.273 20.3333 16.3999 20.3423C16.5269 20.3513 16.6544 20.3352 16.7751 20.2949C16.8959 20.2545 17.0075 20.1908 17.1036 20.1074C17.1997 20.0239 17.2784 19.9223 17.3352 19.8084L21.2102 12.0584L19.4762 11.1924L16.0352 18.0754Z" fill="#8D7252"></path><path d="M47.4692 43.5942C47.6501 43.5951 47.8276 43.5455 47.9817 43.4508C48.1357 43.3561 48.2602 43.2202 48.3411 43.0584L52.2161 35.3084L50.482 34.4424L47.041 41.3254L44.0321 39.8209L43.166 41.5549L47.041 43.4924C47.1741 43.5588 47.3206 43.5936 47.4692 43.5942Z" fill="#8D7252"></path><path d="M31 7.75H27.125V9.6875H31V7.75Z" fill="#8D7252"></path><path d="M50.375 7.75H32.9375V9.6875H50.375V7.75Z" fill="#8D7252"></path><path d="M31 11.625H27.125V13.5625H31V11.625Z" fill="#8D7252"></path><path d="M50.375 11.625H32.9375V13.5625H50.375V11.625Z" fill="#8D7252"></path><path d="M11.625 25.1875H7.75V27.125H11.625V25.1875Z" fill="#8D7252"></path><path d="M31 25.1875H13.5625V27.125H31V25.1875Z" fill="#8D7252"></path><path d="M11.625 29.0625H7.75V31H11.625V29.0625Z" fill="#8D7252"></path><path d="M31 29.0625H13.5625V31H31V29.0625Z" fill="#8D7252"></path><path d="M11.625 32.9375H7.75V34.875H11.625V32.9375Z" fill="#8D7252"></path><path d="M31 32.9375H13.5625V34.875H31V32.9375Z" fill="#8D7252"></path></svg> 