<?xml version="1.0" encoding="UTF-8"?> <svg xmlns="http://www.w3.org/2000/svg" width="62" height="62" viewBox="0 0 62 62" fill="none"><path d="M52.7119 18.6563C54.5489 18.6563 56.3447 18.1115 57.8721 17.091C59.3995 16.0704 60.59 14.6198 61.293 12.9226C61.996 11.2254 62.1799 9.35788 61.8216 7.55616C61.4632 5.75445 60.5786 4.09947 59.2796 2.8005C57.9806 1.50154 56.3257 0.616934 54.5239 0.25855C52.7222 -0.0998328 50.8547 0.0841025 49.1575 0.787097C47.4603 1.49009 46.0097 2.68057 44.9892 4.20799C43.9686 5.73541 43.4238 7.53117 43.4238 9.36818C43.4266 11.8307 44.406 14.1916 46.1473 15.9328C47.8885 17.6741 50.2494 18.6535 52.7119 18.6563ZM52.7119 2.1441C54.1407 2.1441 55.5374 2.56779 56.7254 3.36158C57.9134 4.15537 58.8393 5.28362 59.3861 6.60365C59.9329 7.92367 60.0759 9.37619 59.7972 10.7775C59.5184 12.1789 58.8304 13.4661 57.8201 14.4764C56.8098 15.4867 55.5226 16.1747 54.1213 16.4534C52.7199 16.7322 51.2674 16.5891 49.9474 16.0424C48.6274 15.4956 47.4991 14.5697 46.7053 13.3817C45.9115 12.1937 45.4878 10.797 45.4878 9.36818C45.4903 7.45299 46.2522 5.61695 47.6064 4.2627C48.9607 2.90846 50.7967 2.14656 52.7119 2.1441Z" fill="#8D7252"></path><path d="M52.7113 12.4639C52.4376 12.4639 52.1751 12.3551 51.9815 12.1616C51.788 11.9681 51.6793 11.7056 51.6793 11.4319H49.6152C49.6179 12.0699 49.8176 12.6916 50.1871 13.2118C50.5565 13.732 51.0777 14.1253 51.6793 14.338V15.5599H53.7433V14.338C54.4313 14.0957 55.0114 13.6177 55.3807 12.9886C55.7501 12.3596 55.8849 11.6201 55.7613 10.9012C55.6377 10.1823 55.2636 9.53036 54.7054 9.06082C54.1471 8.59128 53.4407 8.33445 52.7113 8.33584C52.5072 8.33584 52.3076 8.27531 52.1379 8.16191C51.9682 8.04851 51.8359 7.88733 51.7578 7.69876C51.6797 7.51018 51.6593 7.30268 51.6991 7.10249C51.7389 6.9023 51.8372 6.71841 51.9815 6.57408C52.1259 6.42975 52.3097 6.33146 52.5099 6.29164C52.7101 6.25182 52.9176 6.27226 53.1062 6.35037C53.2948 6.42848 53.456 6.56076 53.5694 6.73047C53.6828 6.90018 53.7433 7.09971 53.7433 7.30382H55.8073C55.8047 6.66577 55.6049 6.04412 55.2355 5.52392C54.866 5.00371 54.3448 4.61036 53.7433 4.39768V3.17578H51.6793V4.39768C50.9912 4.64002 50.4112 5.11804 50.0418 5.74707C49.6725 6.3761 49.5377 7.11556 49.6613 7.83446C49.7849 8.55337 50.1589 9.20533 50.7172 9.67487C51.2754 10.1444 51.9818 10.4012 52.7113 10.3999C52.985 10.3999 53.2475 10.5086 53.441 10.7021C53.6345 10.8957 53.7433 11.1582 53.7433 11.4319C53.7433 11.7056 53.6345 11.9681 53.441 12.1616C53.2475 12.3551 52.985 12.4639 52.7113 12.4639Z" fill="#8D7252"></path><path d="M9.36623 43.4238C7.52921 43.4238 5.73346 43.9686 4.20604 44.9892C2.67862 46.0097 1.48814 47.4603 0.785143 49.1575C0.0821493 50.8547 -0.101786 52.7222 0.256597 54.5239C0.614981 56.3257 1.49959 57.9806 2.79855 59.2796C4.09751 60.5786 5.75249 61.4632 7.55421 61.8216C9.35592 62.1799 11.2234 61.996 12.9206 61.293C14.6178 60.59 16.0684 59.3995 17.089 57.8721C18.1096 56.3447 18.6543 54.5489 18.6543 52.7119C18.6516 50.2494 17.6721 47.8885 15.9309 46.1473C14.1896 44.406 11.8287 43.4266 9.36623 43.4238ZM9.36623 59.936C7.93744 59.936 6.54074 59.5123 5.35275 58.7185C4.16475 57.9247 3.23882 56.7965 2.69205 55.4765C2.14528 54.1564 2.00222 52.7039 2.28096 51.3026C2.5597 49.9012 3.24773 48.614 4.25803 47.6037C5.26834 46.5934 6.55555 45.9054 7.95688 45.6267C9.35821 45.3479 10.8107 45.491 12.1308 46.0378C13.4508 46.5845 14.579 47.5105 15.3728 48.6984C16.1666 49.8864 16.5903 51.2831 16.5903 52.7119C16.5878 54.6271 15.8259 56.4632 14.4717 57.8174C13.1175 59.1716 11.2814 59.9335 9.36623 59.936Z" fill="#8D7252"></path><path d="M9.36752 49.6165C9.64122 49.6165 9.90372 49.7253 10.0973 49.9188C10.2908 50.1123 10.3995 50.3748 10.3995 50.6486H12.4635C12.4609 50.0105 12.2612 49.3888 11.8917 48.8686C11.5223 48.3484 11.0011 47.9551 10.3995 47.7424V46.5205H8.33551V47.7424C7.64748 47.9847 7.06743 48.4628 6.69808 49.0918C6.32873 49.7208 6.19392 50.4603 6.31753 51.1792C6.44113 51.8981 6.81518 52.5501 7.37342 53.0196C7.93166 53.4891 8.63806 53.746 9.36752 53.7446C9.57163 53.7446 9.77116 53.8051 9.94087 53.9185C10.1106 54.0319 10.2429 54.1931 10.321 54.3817C10.3991 54.5702 10.4195 54.7777 10.3797 54.9779C10.3399 55.1781 10.2416 55.362 10.0973 55.5063C9.95293 55.6507 9.76904 55.749 9.56885 55.7888C9.36866 55.8286 9.16116 55.8082 8.97258 55.73C8.78401 55.6519 8.62283 55.5197 8.50943 55.3499C8.39603 55.1802 8.33551 54.9807 8.33551 54.7766H6.27148C6.27413 55.4146 6.47385 56.0363 6.84331 56.5565C7.21277 57.0767 7.73394 57.4701 8.33551 57.6827V58.9046H10.3995V57.6827C11.0876 57.4404 11.6676 56.9624 12.037 56.3333C12.4063 55.7043 12.5411 54.9649 12.4175 54.246C12.2939 53.5271 11.9199 52.8751 11.3616 52.4055C10.8034 51.936 10.097 51.6792 9.36752 51.6806C9.09381 51.6806 8.83131 51.5718 8.63778 51.3783C8.44424 51.1848 8.33551 50.9223 8.33551 50.6486C8.33551 50.3748 8.44424 50.1123 8.63778 49.9188C8.83131 49.7253 9.09381 49.6165 9.36752 49.6165Z" fill="#8D7252"></path><path d="M13.4952 8.33529C14.0426 8.33529 14.5676 8.55275 14.9547 8.93983C15.3418 9.32691 15.5593 9.8519 15.5593 10.3993H17.6233C17.6199 9.48679 17.3142 8.60112 16.754 7.88076C16.1939 7.1604 15.4108 6.64594 14.5272 6.41781V5.23926H12.4632V6.41781C11.4914 6.66793 10.6444 7.26411 10.081 8.09446C9.51757 8.92481 9.2766 9.93224 9.40327 10.9277C9.52995 11.9231 10.0156 12.838 10.769 13.5008C11.5224 14.1636 12.4918 14.5286 13.4952 14.5274C13.9035 14.5274 14.3025 14.6484 14.6419 14.8752C14.9814 15.102 15.2459 15.4244 15.4021 15.8015C15.5584 16.1787 15.5992 16.5937 15.5196 16.994C15.44 17.3944 15.2434 17.7622 14.9547 18.0509C14.6661 18.3395 14.2983 18.5361 13.8979 18.6157C13.4975 18.6954 13.0825 18.6545 12.7054 18.4983C12.3282 18.3421 12.0059 18.0775 11.7791 17.7381C11.5523 17.3987 11.4312 16.9996 11.4312 16.5914H9.36719C9.37061 17.5039 9.67629 18.3896 10.2364 19.1099C10.7966 19.8303 11.5797 20.3447 12.4632 20.5729V21.7514H14.5272V20.5729C15.499 20.3228 16.3461 19.7266 16.9095 18.8962C17.4729 18.0659 17.7139 17.0584 17.5872 16.063C17.4605 15.0676 16.9749 14.1527 16.2215 13.4899C15.4681 12.8271 14.4987 12.4621 13.4952 12.4633C12.9478 12.4633 12.4228 12.2459 12.0357 11.8588C11.6487 11.4717 11.4312 10.9467 11.4312 10.3993C11.4312 9.8519 11.6487 9.32691 12.0357 8.93983C12.4228 8.55275 12.9478 8.33529 13.4952 8.33529Z" fill="#8D7252"></path><path d="M45.7974 39.9542L25.4338 19.5843C26.894 16.7305 27.2873 13.4491 26.543 10.331C25.7986 7.21286 23.9654 4.46297 21.3735 2.57649C18.7816 0.690005 15.6013 -0.20911 12.4054 0.0410501C9.20943 0.291211 6.20779 1.67421 3.941 3.941C1.67421 6.20779 0.291211 9.20943 0.0410501 12.4054C-0.20911 15.6013 0.690005 18.7816 2.57649 21.3735C4.46297 23.9654 7.21286 25.7986 10.331 26.543C13.4491 27.2873 16.7305 26.894 19.5843 25.4338L39.9542 45.7974C39.0513 47.8537 38.7793 50.1318 39.1727 52.3429C39.5661 54.5539 40.6072 56.5984 42.1639 58.217C43.7207 59.8357 45.723 60.9557 47.9171 61.4349C50.1111 61.9142 52.3981 61.7312 54.488 60.9092C54.6472 60.8464 54.7884 60.745 54.8987 60.6142C55.009 60.4833 55.0851 60.327 55.12 60.1595C55.1549 59.9919 55.1476 59.8183 55.0987 59.6542C55.0498 59.4902 54.9609 59.3409 54.8399 59.2198L49.3372 53.715L50.4322 50.4322L53.715 49.3372L59.2198 54.8399C59.3409 54.9609 59.4902 55.0498 59.6542 55.0987C59.8183 55.1476 59.9919 55.1549 60.1595 55.12C60.327 55.0851 60.4833 55.009 60.6142 54.8987C60.745 54.7884 60.8464 54.6472 60.9092 54.488C61.7312 52.3981 61.9142 50.1111 61.4349 47.9171C60.9557 45.723 59.8357 43.7207 58.217 42.1639C56.5984 40.6072 54.5539 39.5661 52.3429 39.1727C50.1318 38.7793 47.8537 39.0513 45.7974 39.9542ZM2.14337 13.4955C2.14337 11.2502 2.80916 9.05543 4.05654 7.18859C5.30393 5.32174 7.07689 3.86671 9.15122 3.00749C11.2255 2.14828 13.5081 1.92347 15.7102 2.36149C17.9123 2.79952 19.935 3.8807 21.5226 5.46833C23.1103 7.05595 24.1915 9.0787 24.6295 11.2808C25.0675 13.4829 24.8427 15.7654 23.9835 17.8398C23.1243 19.9141 21.6692 21.687 19.8024 22.9344C17.9355 24.1818 15.7407 24.8476 13.4955 24.8476C10.4858 24.8441 7.60041 23.6469 5.47225 21.5187C3.34408 19.3906 2.14692 16.5052 2.14337 13.4955ZM21.3914 24.3182C22.5118 23.4991 23.4991 22.5118 24.3182 21.3914L43.9264 40.9996C42.7739 41.7806 41.7806 42.7739 40.9996 43.9264L21.3914 24.3182ZM59.452 52.1546L54.7233 47.427C54.5881 47.291 54.4176 47.1956 54.231 47.1517C54.0444 47.1077 53.8492 47.1169 53.6675 47.1783L49.2897 48.6375C49.1375 48.6875 48.9991 48.7725 48.8858 48.8858C48.7725 48.9991 48.6875 49.1375 48.6375 49.2897L47.1783 53.6675C47.1176 53.8493 47.1088 54.0443 47.1527 54.2307C47.1967 54.4172 47.2916 54.5877 47.427 54.7233L52.1546 59.452C50.2003 59.8408 48.1727 59.5907 46.3714 58.7388C44.57 57.8869 43.0904 56.4782 42.1511 54.7209C41.2117 52.9635 40.8624 50.9507 41.1548 48.9796C41.4472 47.0085 42.3657 45.1837 43.7747 43.7747C45.1837 42.3657 47.0085 41.4472 48.9796 41.1548C50.9507 40.8624 52.9635 41.2117 54.7209 42.1511C56.4782 43.0904 57.8869 44.57 58.7388 46.3714C59.5907 48.1727 59.8408 50.2003 59.452 52.1546Z" fill="#8D7252"></path><path d="M6.57483 40.0255C6.72788 40.1787 6.92525 40.2799 7.13899 40.3147C7.35273 40.3495 7.572 40.3162 7.76577 40.2195L11.4325 38.3857L15.0992 40.2247C15.2937 40.3249 15.5149 40.3607 15.7311 40.327C15.9472 40.2933 16.1471 40.1918 16.3017 40.0371C16.4564 39.8824 16.558 39.6826 16.5917 39.4664C16.6254 39.2503 16.5896 39.029 16.4894 38.8346L14.6503 35.1679L16.4894 31.5011C16.5864 31.3073 16.6201 31.0879 16.5854 30.8739C16.5508 30.66 16.4497 30.4624 16.2964 30.3091C16.1431 30.1558 15.9455 30.0547 15.7316 30.0201C15.5176 29.9855 15.2982 30.0191 15.1044 30.1162L11.4325 31.95L7.76577 30.1162C7.57198 30.0191 7.35255 29.9855 7.1386 30.0201C6.92464 30.0547 6.72702 30.1558 6.57375 30.3091C6.42049 30.4624 6.31938 30.66 6.28474 30.8739C6.25011 31.0879 6.28372 31.3073 6.38081 31.5011L8.21469 35.1679L6.38081 38.8346C6.28411 39.0284 6.25081 39.2476 6.28563 39.4614C6.32045 39.6751 6.42162 39.8725 6.57483 40.0255ZM10.2901 34.7065L9.60997 33.3474L10.9691 34.0275C11.1124 34.0991 11.2703 34.1363 11.4304 34.1363C11.5906 34.1363 11.7485 34.0991 11.8917 34.0275L13.2509 33.3474L12.5708 34.7065C12.4992 34.8498 12.462 35.0077 12.462 35.1679C12.462 35.328 12.4992 35.4859 12.5708 35.6292L13.2509 36.9883L11.8938 36.3031C11.7506 36.2315 11.5926 36.1942 11.4325 36.1942C11.2724 36.1942 11.1144 36.2315 10.9712 36.3031L9.61204 36.9832L10.2921 35.624C10.3637 35.4818 10.4014 35.325 10.4023 35.1659C10.4032 35.0067 10.3672 34.8495 10.2973 34.7065H10.2901Z" fill="#8D7252"></path><path d="M55.5046 23.0865C55.3516 22.9333 55.1542 22.8322 54.9405 22.7973C54.7267 22.7625 54.5074 22.7958 54.3137 22.8925L50.6469 24.7264L46.9802 22.8925C46.7864 22.7954 46.567 22.7618 46.353 22.7965C46.1391 22.8311 45.9415 22.9322 45.7882 23.0855C45.6349 23.2387 45.5338 23.4364 45.4992 23.6503C45.4646 23.8643 45.4982 24.0837 45.5952 24.2775L47.4291 27.9442L45.5952 31.611C45.4963 31.8049 45.4611 32.0252 45.4949 32.2403C45.5287 32.4554 45.6297 32.6543 45.7833 32.8085C45.937 32.9628 46.1355 33.0645 46.3505 33.0991C46.5655 33.1336 46.7859 33.0993 46.9802 33.0011L50.6469 31.162L54.3137 33.0011C54.5081 33.1013 54.7294 33.1371 54.9455 33.1034C55.1617 33.0697 55.3615 32.9681 55.5162 32.8135C55.6709 32.6588 55.7724 32.4589 55.8061 32.2428C55.8398 32.0267 55.804 31.8054 55.7038 31.611L53.8648 27.9442L55.7038 24.2775C55.7999 24.0832 55.8323 23.8636 55.7966 23.6498C55.7608 23.4361 55.6587 23.239 55.5046 23.0865ZM51.7894 28.4055L52.4695 29.7647L51.1103 29.0846C50.9671 29.013 50.8091 28.9758 50.649 28.9758C50.4889 28.9758 50.3309 29.013 50.1877 29.0846L48.8285 29.7647L49.5086 28.4055C49.5802 28.2623 49.6175 28.1044 49.6175 27.9442C49.6175 27.7841 49.5802 27.6262 49.5086 27.4829L48.8285 26.1238L50.1877 26.8038C50.3309 26.8754 50.4889 26.9127 50.649 26.9127C50.8091 26.9127 50.9671 26.8754 51.1103 26.8038L52.4695 26.1238L51.7894 27.4829C51.7175 27.626 51.6799 27.7838 51.6795 27.944C51.6791 28.1041 51.7161 28.2621 51.7873 28.4055H51.7894Z" fill="#8D7252"></path><path d="M34.1343 7.30339H36.1984V5.23937H38.2624V3.17535H36.1984V1.11133H34.1343V3.17535H32.0703V5.23937H34.1343V7.30339Z" fill="#8D7252"></path><path d="M37.23 15.5596V17.6236H35.166V19.6876H37.23V21.7516H39.2941V19.6876H41.3581V17.6236H39.2941V15.5596H37.23Z" fill="#8D7252"></path><path d="M27.9425 46.5202V44.4562H30.0065V42.3921H27.9425V40.3281H25.8785V42.3921H23.8145V44.4562H25.8785V46.5202H27.9425Z" fill="#8D7252"></path><path d="M31.0382 54.7764H28.9742V56.8404H26.9102V58.9044H28.9742V60.9684H31.0382V58.9044H33.1022V56.8404H31.0382V54.7764Z" fill="#8D7252"></path></svg> 