<?xml version="1.0" encoding="UTF-8"?> <svg xmlns="http://www.w3.org/2000/svg" width="45" height="45" viewBox="0 0 45 45" fill="none"><path d="M9.43536 29.7581C6.23455 29.7581 3.62891 32.3637 3.62891 35.5645C3.62891 38.7653 6.23455 41.371 9.43536 41.371C12.6362 41.371 15.2418 38.7653 15.2418 35.5645C15.2418 32.3637 12.6362 29.7581 9.43536 29.7581ZM9.43536 39.9193C7.03294 39.9193 5.08052 37.9669 5.08052 35.5645C5.08052 33.1621 7.03294 31.2097 9.43536 31.2097C11.8378 31.2097 13.7902 33.1621 13.7902 35.5645C13.7902 37.9669 11.8378 39.9193 9.43536 39.9193Z" fill="#8D7252"></path><path d="M9.43643 32.6614C7.8324 32.6614 6.5332 33.9606 6.5332 35.5646C6.5332 37.1686 7.8324 38.4678 9.43643 38.4678C11.0405 38.4678 12.3397 37.1686 12.3397 35.5646C12.3397 33.9606 11.0405 32.6614 9.43643 32.6614ZM9.43643 37.0162C8.63804 37.0162 7.98482 36.363 7.98482 35.5646C7.98482 34.7662 8.63804 34.113 9.43643 34.113C10.2348 34.113 10.888 34.7662 10.888 35.5646C10.888 36.363 10.2348 37.0162 9.43643 37.0162Z" fill="#8D7252"></path><path d="M35.6298 33.3871H44.6589L44.2161 32.371C43.5484 30.8468 42.2492 29.5548 40.6452 28.6984V5.08065C40.6452 3.88306 39.6653 2.90323 38.4677 2.90323H34.8387V2.17742C34.8387 0.979839 33.8589 0 32.6613 0H31.2097C30.0121 0 29.0323 0.979839 29.0323 2.17742V2.90323H15.9677V2.17742C15.9677 0.979839 14.9879 0 13.7903 0H12.3387C11.1411 0 10.1613 0.979839 10.1613 2.17742V2.90323H6.53226C5.33468 2.90323 4.35484 3.88306 4.35484 5.08065V27.2976L0.86371 30.7887L1.47339 32.0589C1.42258 32.175 1.37903 32.2839 1.32823 32.4L0 32.8645V38.25L1.32823 38.7145C1.37177 38.8306 1.42258 38.9395 1.47339 39.0556L0.86371 40.3258L4.66694 44.129L5.9371 43.5194C6.05323 43.5702 6.1621 43.6137 6.27823 43.6645L6.74274 44.9927H12.1282L12.5927 43.6645C12.7089 43.621 12.8177 43.5702 12.9339 43.5194L14.204 44.129L18.0073 40.3258L17.8113 39.9121H29.6056C31.0718 42.1621 33.5976 43.5411 36.2903 43.5411C39.6653 43.5411 42.9968 41.5234 44.2161 38.7508L44.6589 37.7347H37.4952L35.6298 33.3798V33.3871ZM37.7419 27.704V13.0645C37.7419 12.2661 37.0887 11.6129 36.2903 11.6129H8.70968C7.91129 11.6129 7.25806 12.2661 7.25806 13.0645V26.129H6.74274L6.27823 27.4573C6.1621 27.5008 6.05323 27.5516 5.9371 27.6024L5.80645 27.5444V10.1613H39.1936V28.0742C38.7218 27.9145 38.2355 27.7911 37.7419 27.7113V27.704ZM14.5161 27.2976V24.6702H18.871V31.2024H17.8113L18.0073 30.7887L14.5161 27.2976ZM20.3226 18.8637H24.6774V23.2185H20.3226V18.8637ZM18.871 23.2185H14.5161V18.8637H18.871V23.2185ZM26.129 18.8637H30.4839V23.2185H26.129V18.8637ZM31.9355 18.8637H36.2903V23.2185H31.9355V18.8637ZM36.2903 17.4121H31.9355V13.0573H36.2903V17.4121ZM30.4839 17.4121H26.129V13.0573H30.4839V17.4121ZM24.6774 17.4121H20.3226V13.0573H24.6774V17.4121ZM18.871 17.4121H14.5161V13.0573H18.871V17.4121ZM13.0645 17.4121H8.70968V13.0573H13.0645V17.4121ZM8.70968 18.8637H13.0645V23.2185H8.70968V18.8637ZM8.70968 24.6702H13.0645V27.5298L12.9339 27.5879C12.8177 27.5371 12.7089 27.4935 12.5927 27.4427L12.1282 26.1145H8.70968V24.6629V24.6702ZM20.3226 24.6702H24.6774V31.2024H20.3226V24.6702ZM26.129 24.6702H30.4839V30.1065C30.1645 30.4476 29.8669 30.8032 29.6056 31.2024H26.129V24.6702ZM31.9355 24.6702H36.2903V27.5734C34.7226 27.5734 33.2129 28.0524 31.9355 28.8871V24.6702ZM30.4839 2.17016C30.4839 1.77097 30.8105 1.44435 31.2097 1.44435H32.6613C33.0605 1.44435 33.3871 1.77097 33.3871 2.17016V5.08065C33.3871 5.47984 33.0605 5.80645 32.6613 5.80645H31.2097C30.8105 5.80645 30.4839 5.47984 30.4839 5.08065V2.17742V2.17016ZM11.6129 2.17016C11.6129 1.77097 11.9395 1.44435 12.3387 1.44435H13.7903C14.1895 1.44435 14.5161 1.77097 14.5161 2.17016V5.08065C14.5161 5.47984 14.1895 5.80645 13.7903 5.80645H12.3387C11.9395 5.80645 11.6129 5.47984 11.6129 5.08065V2.17742V2.17016ZM6.53226 4.34758H10.1613V5.07339C10.1613 6.27097 11.1411 7.25081 12.3387 7.25081H13.7903C14.9879 7.25081 15.9677 6.27097 15.9677 5.07339V4.34758H29.0323V5.07339C29.0323 6.27097 30.0121 7.25081 31.2097 7.25081H32.6613C33.8589 7.25081 34.8387 6.27097 34.8387 5.07339V4.34758H38.4677C38.8669 4.34758 39.1936 4.67419 39.1936 5.07339V8.70242H5.80645V5.08065C5.80645 4.68145 6.13306 4.35484 6.53226 4.35484V4.34758ZM16.2944 37.9089C16.2 38.1847 16.0839 38.4677 15.946 38.7435L15.7935 39.0629L16.2581 40.0282L13.9065 42.3798L12.9339 41.9153L12.6145 42.0677C12.3387 42.2056 12.0629 42.3218 11.7798 42.4161L11.446 42.5323L11.0903 43.5411H7.76613L7.41048 42.5323L7.07661 42.4161C6.80081 42.3218 6.51774 42.2056 6.24919 42.0677L5.92984 41.9153L4.95726 42.3798L2.60565 40.0282L3.07016 39.0629L2.91774 38.7435C2.77984 38.4677 2.66371 38.1919 2.56936 37.9089L2.45323 37.575L1.44435 37.2194V33.8952L2.45323 33.5395L2.56936 33.2056C2.66371 32.9298 2.77984 32.6468 2.91774 32.371L3.07016 32.0516L2.60565 31.0863L4.95726 28.7347L5.92984 29.1992L6.24919 29.0468C6.525 28.9089 6.80081 28.7927 7.08387 28.6984L7.41774 28.5823L7.77339 27.5734H11.0976L11.4532 28.5823L11.7871 28.6984C12.0629 28.7927 12.346 28.9089 12.6218 29.0468L12.9411 29.1992L13.9137 28.7347L16.2653 31.0863L15.8008 32.0516L15.9532 32.371C16.0911 32.6468 16.2073 32.9226 16.3016 33.2056L16.4177 33.5395L17.4266 33.8952V37.2194L16.4177 37.575L16.3016 37.9089H16.2944ZM36.2903 42.0895C33.975 42.0895 31.8048 40.8411 30.6363 38.8234L30.4258 38.4605H18.2685L18.871 38.25V32.8645L18.2685 32.654H30.4258L30.6363 32.2911C31.8048 30.2734 33.9677 29.025 36.2903 29.025C38.6129 29.025 41.0081 30.2226 42.2855 31.9282H34.1129V33.5323L36.5371 39.1863H42.2855C41.0081 40.8919 38.6274 42.0895 36.2903 42.0895Z" fill="#8D7252"></path></svg> 