<?xml version="1.0" encoding="UTF-8"?> <svg xmlns="http://www.w3.org/2000/svg" width="38" height="45" viewBox="0 0 38 45" fill="none"><path d="M22.5 7.61371V5.80645H26.8548V0H10.8871V5.80645H15.2419V7.61371C6.56855 9.3121 0 16.9621 0 26.129C0 36.5371 8.4629 45 18.871 45C29.279 45 37.7419 36.5371 37.7419 26.129C37.7419 16.9621 31.1734 9.3121 22.5 7.61371V7.61371ZM12.3387 1.45161H13.7903V2.90323H15.2419V1.45161H16.6935V2.90323H18.1452V1.45161H19.5968V2.90323H21.0484V1.45161H22.5V2.90323H23.9516V1.45161H25.4032V4.35484H12.3387V1.45161ZM16.6935 5.80645H21.0484V7.38871C20.3298 7.30887 19.604 7.25806 18.871 7.25806C18.1379 7.25806 17.4121 7.30161 16.6935 7.38871V5.80645ZM18.871 43.5484C9.26855 43.5484 1.45161 35.7315 1.45161 26.129C1.45161 16.5266 9.26855 8.70968 18.871 8.70968C28.4734 8.70968 36.2903 16.5266 36.2903 26.129C36.2903 35.7315 28.4734 43.5484 18.871 43.5484Z" fill="#8D7252"></path><path d="M18.8701 10.1613C10.0661 10.1613 2.90234 17.325 2.90234 26.1291C2.90234 34.9331 10.0661 42.0968 18.8701 42.0968C22.6588 42.0968 26.3314 40.7468 29.2128 38.2936L28.2693 37.1903C25.6491 39.4186 22.3104 40.6452 18.8701 40.6452C10.8644 40.6452 4.35396 34.1347 4.35396 26.1291C4.35396 18.1234 10.4798 12.0339 18.1443 11.6492V13.0645H15.9669V16.1782C13.1725 16.8678 11.0822 19.2629 10.9007 22.0718C10.7846 23.9008 11.4015 25.6428 12.6499 26.971C13.8765 28.2847 15.6185 29.0395 17.4185 29.0395H20.2419C20.6338 29.0395 20.9822 29.3008 21.033 29.6347C21.0693 29.8524 21.0112 30.0702 20.8733 30.2299C20.7354 30.3895 20.5322 30.4839 20.3217 30.4839H17.4185C17.0193 30.4839 16.6927 30.1573 16.6927 29.7581V29.0323H10.8862V29.7581C10.8862 32.8282 13.0273 35.4557 15.9669 36.1234V39.1936H21.7733V36.0799C24.5677 35.3831 26.658 32.9952 26.8394 30.1863C26.912 29.0178 26.6798 27.871 26.1644 26.8476H33.3499C33.1757 30.3968 31.7386 33.7282 29.2346 36.2831L30.2725 37.2992C33.212 34.2944 34.8378 30.3242 34.8378 26.1218C34.8378 17.3178 27.6741 10.1541 18.8701 10.1541V10.1613ZM33.3499 25.4032H19.5959V11.6492C27.0209 12.0194 32.9798 17.9782 33.3499 25.4032ZM18.1443 23.2258H17.4983C17.1064 23.2258 16.758 22.9645 16.7072 22.6307C16.6709 22.4129 16.729 22.1952 16.8669 22.0355C17.0048 21.8758 17.208 21.7815 17.4185 21.7815H18.1443V23.2331V23.2258ZM25.3951 30.0992C25.2427 32.4363 23.3701 34.4032 20.9386 34.7734L20.3217 34.8678V37.7492H17.4185V34.8823L16.7798 34.8024C14.4862 34.5121 12.708 32.7194 12.3886 30.4911H15.3644C15.662 31.3331 16.4677 31.9428 17.4185 31.9428H20.3217C20.9604 31.9428 21.5628 31.667 21.9838 31.1734C22.4048 30.6799 22.579 30.0411 22.4701 29.4024C22.3032 28.3645 21.3451 27.5879 20.2419 27.5879H17.4185C15.9959 27.5879 14.6822 27.0145 13.7096 25.9839C12.737 24.946 12.258 23.596 12.3451 22.1734C12.4975 19.8363 14.3701 17.8694 16.8015 17.4992L17.4185 17.4049V14.5234H18.1443V20.3299H17.4185C16.7798 20.3299 16.1773 20.6129 15.7564 21.0992C15.3354 21.5855 15.1612 22.2315 15.2701 22.8702C15.437 23.9081 16.3951 24.6847 17.4983 24.6847H18.1443V26.8621H24.4878C25.1483 27.8057 25.4677 28.9452 25.3951 30.1065V30.0992Z" fill="#8D7252"></path><path d="M27.4287 22.166L25.5489 21.7886L25.2658 23.2112L29.4392 24.0458L31.1376 20.6491L29.8384 19.9958L28.8949 21.8829C27.5304 18.6531 24.6779 16.2507 21.2086 15.4958L20.8965 16.9112C23.7997 17.5499 26.2021 19.5096 27.4287 22.1588V22.166Z" fill="#8D7252"></path></svg> 