<?xml version="1.0" encoding="UTF-8"?> <svg xmlns="http://www.w3.org/2000/svg" width="62" height="62" viewBox="0 0 62 62" fill="none"><path d="M62 18C62 8.07 53.92 0 44 0C34.08 0 26 8.07 26 18C26 20.75 26.64 23.35 27.75 25.68C25.38 22.2 21.4 20 17 20C9.83 20 4 25.83 4 33V52.53C1.5 54.6 0 57.68 0 61V62H34V61C34 57.68 32.5 54.6 30 52.53V44.8C30.75 44.59 31.43 44.21 32 43.69V47C32 49.76 34.24 52 37 52H42C43.65 52 45 53.35 45 55V57C45 59.76 47.24 62 50 62C52.76 62 55 59.76 55 57V32.22C59.25 28.92 62 23.79 62 18ZM44 2C52.82 2 60 9.18 60 18C60 22.29 58.29 26.18 55.54 29.06C53.97 26.03 51.27 23.75 48.08 22.68C49.03 21.99 49.8 21.07 50.31 20.01H50.5C52.43 20.01 54 18.44 54 16.51C54 15.56 53.62 14.7 53 14.07V13.01C53 8.05 48.96 4.01 44 4.01C39.04 4.01 35 8.05 35 13.01V14.07C34.38 14.7 34 15.56 34 16.51C34 18.44 35.57 20.01 37.5 20.01H37.69C38.2 21.08 38.97 22 39.92 22.68C36.74 23.75 34.03 26.03 32.46 29.06C29.7 26.18 28 22.29 28 18C28 9.18 35.18 2 44 2ZM39 17C39 14.24 41.24 12 44 12C46.76 12 49 14.24 49 17C49 19.76 46.76 22 44 22C41.24 22 39 19.76 39 17ZM37.29 15.02C37.1 15.65 37 16.31 37 17C37 17.32 37.03 17.62 37.07 17.93C36.45 17.74 36 17.18 36 16.5C36 15.75 36.56 15.12 37.29 15.02ZM38.26 13H37.5C37.33 13 37.17 13.03 37 13.05V13C37 9.14 40.14 6 44 6C47.86 6 51 9.14 51 13V13.05C50.83 13.03 50.67 13 50.5 13H49.74C48.47 11.19 46.38 10 44 10C41.62 10 39.53 11.19 38.26 13ZM50.71 15.02C51.44 15.12 52 15.74 52 16.5C52 17.18 51.55 17.74 50.93 17.93C50.97 17.62 51 17.32 51 17C51 16.31 50.9 15.65 50.71 15.02ZM44.95 28.64L44 29.59L43.05 28.64L43.63 24.02C43.75 24.02 43.87 24.01 44 24.01C44.13 24.01 44.25 24.02 44.37 24.02L44.95 28.64ZM44 32.42L47.05 29.37L46.41 24.28C49.72 25.04 52.57 27.32 54 30.47C51.26 32.68 47.78 34 43.99 34C40.2 34 36.73 32.67 33.98 30.47C35.41 27.32 38.26 25.04 41.57 24.28L40.93 29.37L43.98 32.42H44ZM29.92 29.19C29.74 29.14 29.57 29.1 29.38 29.07C29.24 28.63 29.08 28.19 28.9 27.78C29.22 28.27 29.56 28.74 29.92 29.2V29.19ZM17 22.01C21.58 22.01 25.61 24.83 27.24 29.01H26C24.9 29.01 24 29.91 24 31.01H23.6C21.44 31.01 19.35 30.38 17.55 29.18L17 28.81L16.44 29.18C14.64 30.38 12.55 31.01 10.39 31.01H7.99V34.47C7.99 38.56 9.9 42.37 12.99 44.86V45.62C12.99 46.72 12.39 47.74 11.41 48.26L5.99 51.18V33.01C5.99 26.94 10.93 22.01 16.99 22.01H17ZM22.58 48.26C21.61 47.74 21 46.72 21 45.62V44.86C22.19 43.9 23.2 42.74 24 41.45V43.01C24 44.11 24.9 45.01 26 45.01H28V51.18L22.58 48.26ZM24 34.46C24 39.03 21.2 43.19 17 44.93C12.8 43.19 10 39.03 10 34.46V33H10.4C12.74 33 15.01 32.37 17 31.18C19 32.37 21.27 33 23.6 33H24V34.46ZM14.96 46.16C15.5 46.45 16.06 46.72 16.65 46.94L17 47.07L17.35 46.94C17.94 46.72 18.5 46.46 19.04 46.16C19.17 47.36 19.73 48.47 20.61 49.28C19.68 49.98 18.11 50.62 17.01 50.96C15.9 50.62 14.34 49.98 13.41 49.28C14.29 48.47 14.84 47.36 14.98 46.16H14.96ZM25.1 39.22C25.61 37.89 25.92 36.46 25.98 35H27C27.55 35 28 35.45 28 36V38C28 38.55 27.55 39 27 39H26C25.68 39 25.37 39.08 25.1 39.22ZM31.94 60H28V56H26V60H8V56H6V60H2.06C2.39 57.07 4.12 54.46 6.76 53.04L11.65 50.41C13.25 51.95 16.34 52.86 16.73 52.97L17 53.05L17.27 52.97C17.67 52.86 20.75 51.95 22.35 50.41L27.24 53.04C29.88 54.46 31.62 57.07 31.94 60.01V60ZM31.5 40.89C31.14 42.13 29.96 43 28.63 43H25.99V41H26.99C28.64 41 29.99 39.65 29.99 38V36C29.99 34.35 28.64 33 26.99 33H25.99V31H28.63C29.96 31 31.14 31.87 31.5 33.11C31.83 34.25 31.99 35.56 31.99 37C31.99 38.44 31.82 39.75 31.5 40.89ZM52.99 57C52.99 58.65 51.64 60 49.99 60C48.34 60 46.99 58.65 46.99 57V55C46.99 52.24 44.75 50 41.99 50H36.99C35.34 50 33.99 48.65 33.99 47V37C33.99 35.37 33.8 33.88 33.42 32.56C33.42 32.55 33.42 32.54 33.41 32.53C36.38 34.7 40.04 36 43.99 36C47.27 36 50.34 35.1 52.99 33.56V57Z" fill="#8D7252"></path></svg> 