<?xml version="1.0" encoding="UTF-8"?> <svg xmlns="http://www.w3.org/2000/svg" width="63" height="63" viewBox="0 0 63 63" fill="none"><path d="M62 21.22L59.58 20.62L60.86 18.49L59 16.62V0H31V16H28.64C28.87 15.03 29 14.03 29 13C29 5.83 23.17 0 16 0C8.83 0 3 5.83 3 13.03C3 14.14 3.15 15.23 3.42 16.27C1.43 16.94 0 18.82 0 21V45C0 47.76 2.24 50 5 50H18V52H14.24C13.1 52 12.07 52.64 11.56 53.66L10.01 56.77V62.01H38.01V56.77L36.46 53.67C35.95 52.65 34.92 52.01 33.78 52.01H30.02V50.01H43.02C45.78 50.01 48.02 47.77 48.02 45.01V38.01H52.8L53.4 35.59L55.54 36.87L60.89 31.52L59.61 29.38L62.02 28.78V21.22H62ZM33 2H57V14.61L55.52 13.13L53.38 14.41L52.78 12H45.22L44.62 14.42L42.48 13.14L39.62 16H33V2ZM37.62 18L37.14 18.48L38.57 20.86L36.74 21.99H31V24L44.06 23.97L44.3 23.31C45.15 20.95 47.57 19.61 50.06 20.1C51.96 20.48 53.5 22.01 53.9 23.91C54.22 25.43 53.85 26.97 52.89 28.15C51.93 29.33 50.52 30 49.01 30C46.89 30 45 28.66 44.29 26.67L44.05 26H34C32.35 26 31 27.35 31 29V35C31 35.55 30.55 36 30 36C29.45 36 29 35.55 29 35V33C29 31.35 27.65 30 26 30C24.35 30 23 31.35 23 33V35C23 35.55 22.55 36 22 36H18C17.45 36 17 35.55 17 35V33.91C19.83 33.43 22 30.97 22 28V25.41L25.19 22.22C26.42 20.99 27.37 19.56 28.02 18H37.62ZM12 26H20V28C20 30.21 18.21 32 16 32C13.79 32 12 30.21 12 28V26ZM13 14H11C9.9 14 9 13.1 9 12C9 10.9 9.9 10 11 10C12.1 10 13 10.9 13 12V14ZM17 24H15V16H17V24ZM16 2C22.07 2 27 6.93 27 13.03C27 15.97 25.85 18.73 23.78 20.81L20.59 24H19V16H21C23.21 16 25 14.21 25 12C25 9.79 23.21 8 21 8C18.79 8 17 9.79 17 12V14H15V12C15 9.79 13.21 8 11 8C8.79 8 7 9.79 7 12C7 14.21 8.79 16 11 16H13V24H11.41L8.22 20.81C6.14 18.73 5 15.97 5 13C5 6.93 9.94 2 16 2ZM19 14V12C19 10.9 19.9 10 21 10C22.1 10 23 10.9 23 12C23 13.1 22.1 14 21 14H19ZM14.24 54H18V56H12.62L13.34 54.55C13.51 54.21 13.85 54 14.23 54H14.24ZM12 60V58H36V60H12ZM33.76 54C34.14 54 34.48 54.21 34.66 54.55L35.38 56H30V54H33.76ZM28 56H20V50H28V56ZM43 48H5C3.35 48 2 46.65 2 45V42H14V43C14 44.65 15.35 46 17 46H31C32.65 46 34 44.65 34 43V42H46V45C46 46.65 44.65 48 43 48ZM32 42V43C32 43.55 31.55 44 31 44H28V42H32ZM26 44H22V42H26V44ZM20 44H17C16.45 44 16 43.55 16 43V42H20V44ZM46 40H2V21C2 19.69 2.86 18.56 4.06 18.16C4.7 19.66 5.63 21.03 6.81 22.22L10 25.41V28C10 30.97 12.17 33.43 15 33.91V35C15 36.65 16.35 38 18 38H22C23.65 38 25 36.65 25 35V33C25 32.45 25.45 32 26 32C26.55 32 27 32.45 27 33V35C27 36.65 28.35 38 30 38C31.65 38 33 36.65 33 35V29C33 28.45 33.45 28 34 28H36.72L38.57 29.14L37.14 31.52L42.49 36.87L44.63 35.59L45.23 38H46.01V40H46ZM60 27.22L58.05 27.71L57.52 27.91L57.05 29.05L58.35 31.21L55.21 34.35L53.05 33.05L51.83 33.55L51.22 36H46.78L46.29 34.05L46.09 33.52L44.95 33.05L42.79 34.35L39.65 31.21L40.95 29.05L40.52 28H42.68C43.83 30.42 46.29 32 49.01 32C51.13 32 53.11 31.06 54.45 29.41C55.79 27.77 56.3 25.61 55.86 23.5C55.3 20.83 53.13 18.68 50.46 18.14C47.23 17.49 44.08 19.08 42.7 21.97H40.49L40.57 21.91L40.97 20.94L39.67 18.78L42.81 15.64L44.97 16.94L46.19 16.44L46.8 13.99H51.24L51.85 16.44L53.07 16.94L55.23 15.64L58.37 18.78L57.07 20.94L57.57 22.16L60.02 22.77V27.21L60 27.22Z" fill="#8D7252"></path><path d="M29 22H27V24H29V22Z" fill="#8D7252"></path><path d="M37 4H35V6H37V4Z" fill="#8D7252"></path><path d="M55 4H39V6H55V4Z" fill="#8D7252"></path><path d="M55 8H35V10H55V8Z" fill="#8D7252"></path><path d="M37 12H35V14H37V12Z" fill="#8D7252"></path><path d="M41 12H39V14H41V12Z" fill="#8D7252"></path><path d="M6 32H4V34H6V32Z" fill="#8D7252"></path><path d="M6 28H4V30H6V28Z" fill="#8D7252"></path><path d="M6 36H4V38H6V36Z" fill="#8D7252"></path></svg> 