<?xml version="1.0" encoding="UTF-8"?> <svg xmlns="http://www.w3.org/2000/svg" width="62" height="62" viewBox="0 0 62 62" fill="none"><path d="M57 26C59.76 26 62 23.76 62 21V5C62 2.24 59.76 0 57 0H37C34.24 0 32 2.24 32 5V21C32 23.76 34.24 26 37 26H44V42.06C44 42.52 43.9 42.97 43.69 43.38L42.85 39.19C42.25 36.19 39.59 34.01 36.53 34.01C35.13 34.01 34 35.15 34 36.54C34 37.04 34.15 37.53 34.43 37.95L35.46 39.49C35.84 40.06 36.09 40.72 36.17 41.4L36.88 47.07C36.99 47.93 37.32 48.76 37.84 49.45L40 52.33V54H38V62H62V54H60V52.24L61.47 49.3C61.82 48.61 62 47.84 62 47.06V35C62 33.35 60.65 32 59 32C58.6 32 58.23 32.08 57.88 32.22C57.54 30.94 56.38 30 55 30C54.6 30 54.23 30.08 53.88 30.22C53.54 28.95 52.38 28 51 28C50.65 28 50.31 28.07 50 28.18V26H57V26ZM37 24C35.35 24 34 22.65 34 21V5C34 3.35 35.35 2 37 2H57C58.65 2 60 3.35 60 5V21C60 22.65 58.65 24 57 24H50V21.92C50.24 21.96 50.48 22 50.73 22C51.8 22 52.85 21.57 53.61 20.81L55 19.42C55.65 18.77 56 17.92 56 17.01C56 16.1 55.65 15.24 55 14.6L53.24 12.84C52.71 12.31 52 12.02 51.25 12.02H51.12C50.05 12.02 49.09 12.62 48.61 13.57C48.47 13.85 48.19 14.02 47.89 14.02H47.76C47.54 14.02 47.34 13.94 47.19 13.78L46.25 12.84C46.1 12.69 46.01 12.48 46.01 12.27V12.14C46.01 11.83 46.18 11.55 46.46 11.42C47.42 10.94 48.01 9.98 48.01 8.91V8.78C48.01 8.03 47.72 7.32 47.19 6.79L45.43 5.03C44.14 3.74 41.89 3.74 40.6 5.03L39.21 6.42C38.45 7.18 38.02 8.23 38.02 9.4C38.02 9.96 38.13 10.5 38.35 11.01C39.74 14.25 41.93 17.03 44.72 19.13C44.29 19.65 44.02 20.31 44.02 21.03V24.03H37.02L37 24ZM46.67 18.03C43.79 16.09 41.54 13.38 40.17 10.18C40.06 9.92 40 9.64 40 9.27C40 8.72 40.22 8.19 40.61 7.8L42 6.41C42.53 5.88 43.47 5.88 44 6.41L45.76 8.17C45.91 8.32 46 8.53 46 8.74V8.87C46 9.18 45.83 9.46 45.55 9.59C44.59 10.07 44 11.03 44 12.1V12.23C44 12.98 44.29 13.69 44.82 14.22L45.76 15.16C46.29 15.69 47 15.98 47.75 15.98H47.88C48.95 15.98 49.91 15.39 50.39 14.43C50.53 14.15 50.81 13.98 51.11 13.98H51.24C51.46 13.98 51.66 14.06 51.81 14.22L53.57 15.98C53.83 16.24 53.98 16.61 53.98 16.98C53.98 17.35 53.83 17.72 53.57 17.98L52.18 19.37C51.57 19.98 50.56 20.15 49.78 19.76L49.69 19.72C49.21 18.7 48.18 17.98 46.98 17.98C46.87 17.98 46.76 18 46.65 18.01L46.67 18.03ZM60 60H40V56H60V60ZM51 30C51.55 30 52 30.45 52 31V39H54V33C54 32.45 54.45 32 55 32C55.55 32 56 32.45 56 33V39H58V35C58 34.45 58.45 34 59 34C59.55 34 60 34.45 60 35V47.06C60 47.52 59.89 47.99 59.68 48.4L58 51.77V54.01H42V51.68L39.44 48.26C39.13 47.84 38.93 47.35 38.86 46.83L38.15 41.16C38.03 40.17 37.67 39.21 37.12 38.38L36.09 36.84C36.03 36.75 36 36.65 36 36.54C36 36.25 36.24 36.01 36.53 36.01C38.64 36.01 40.48 37.51 40.89 39.58L42.17 46.01H44.61L45.46 44.3C45.81 43.61 45.99 42.84 45.99 42.06V21C45.99 20.45 46.44 20 46.99 20C47.54 20 47.99 20.45 47.99 21V39H49.99V31C49.99 30.45 50.44 30 50.99 30H51Z" fill="#8D7252"></path><path d="M25 32H5C2.24 32 0 34.24 0 37V53C0 55.76 2.24 58 5 58H25C27.76 58 30 55.76 30 53V37C30 34.24 27.76 32 25 32ZM28 53C28 54.65 26.65 56 25 56H5C3.35 56 2 54.65 2 53V37C2 35.35 3.35 34 5 34H25C26.65 34 28 35.35 28 37V53Z" fill="#8D7252"></path><path d="M25 0H5C2.24 0 0 2.24 0 5V21C0 23.76 2.24 26 5 26H25C27.76 26 30 23.76 30 21V5C30 2.24 27.76 0 25 0ZM28 21C28 22.65 26.65 24 25 24H5C3.35 24 2 22.65 2 21V5C2 3.35 3.35 2 5 2H25C26.65 2 28 3.35 28 5V21Z" fill="#8D7252"></path><path d="M15 4C10.59 4 7 7.59 7 12V14C7 18.41 10.59 22 15 22V20C11.69 20 9 17.31 9 14V12C9 8.69 11.69 6 15 6C18.31 6 21 8.69 21 12V17C21 17.55 20.55 18 20 18C19.45 18 19 17.55 19 17V12C19 9.79 17.21 8 15 8C12.79 8 11 9.79 11 12V14C11 16.21 12.79 18 15 18C15.75 18 16.44 17.78 17.04 17.42C17.25 18.87 18.49 20 20 20C21.65 20 23 18.65 23 17V12C23 7.59 19.41 4 15 4ZM15 16C13.9 16 13 15.1 13 14V12C13 10.9 13.9 10 15 10C16.1 10 17 10.9 17 12V14C17 15.1 16.1 16 15 16Z" fill="#8D7252"></path><path d="M4 52H26V38H4V52ZM11.67 46.95C12.64 47.63 13.79 48 15 48C16.21 48 17.36 47.63 18.33 46.95L22.15 50H7.85L11.67 46.95ZM19.83 45.59L24 41.42V48.93L19.83 45.59ZM17.71 44.89C16.26 46.33 13.74 46.33 12.3 44.89L7.42 40.01H22.59L17.71 44.89ZM10.17 45.59L6 48.93V41.42L10.17 45.59V45.59Z" fill="#8D7252"></path></svg> 