<?xml version="1.0" encoding="UTF-8"?> <svg xmlns="http://www.w3.org/2000/svg" width="45" height="45" viewBox="0 0 45 45" fill="none"><path d="M45 16.6935C45 15.0895 43.7008 13.7903 42.0968 13.7903H41.7992L40.6452 14.9444V9.1379L31.5073 0H4.35484V11.9468L0 15.6339V17.4194H1.45161V27.5806H4.35484V45H40.6452V27.8782L42.8226 25.7008C43.2944 25.229 43.5484 24.6121 43.5484 23.9516C43.5484 23.2911 43.2944 22.6669 42.8226 22.2024L42.3944 21.7742L42.8226 21.346V21.0484C42.8226 20.4823 42.7282 19.9452 42.554 19.4371L45 16.9911V16.6935ZM41.3565 20.7581L37.7419 24.3726L34.4105 21.0411L38.025 17.4266C39.796 17.5645 41.2113 18.9871 41.3565 20.7581ZM19.9887 36.254L22.529 38.7944L19.1395 39.6435L19.9887 36.254ZM23.9516 38.1629L20.6202 34.8315L31.2097 24.2419L34.5411 27.5734L23.9516 38.1629ZM35.5645 26.55L32.2331 23.2185L33.3871 22.0645L36.7185 25.396L35.5645 26.55ZM30.4839 7.25081H27.5806V4.35484H30.4839V7.25806V7.25081ZM18.871 7.25081V4.35484H21.7742V7.25806H18.871V7.25081ZM23.2258 4.34758H26.129V7.25081H23.2258V4.35484V4.34758ZM31.9355 2.46774L38.1702 8.70242H31.9355V2.475V2.46774ZM10.1613 8.93468L18.4718 15.9677H1.85081L10.1613 8.93468ZM2.90323 17.4194H17.4194V26.129H14.5161V20.3226H5.80645V26.129H2.90323V17.4194ZM13.0645 26.129H7.25806V21.7742H13.0645V26.129ZM39.1936 43.5484H5.80645V27.5806H18.871V17.4194H20.3226V15.6339L10.1613 7.03306L5.80645 10.7202V1.45161H30.4839V2.90323H17.4194V8.70968H30.4839V10.1613H39.1936V16.1855C38.7363 16.0476 38.2427 15.9677 37.7419 15.9677H37.4444L34.8387 18.5734V17.4194H21.7742V18.871H34.5411L33.0895 20.3226H21.7742V21.7742H31.6379L30.1863 23.2258H21.7742V24.6774H28.7347L18.9436 34.4686L17.1508 41.6468L24.329 39.854L39.2008 24.9823V27.2831L36.9581 29.5258C36.5371 29.9468 36.2976 30.5274 36.2976 31.1298C36.2976 32.3782 37.3137 33.3944 38.5621 33.3944H39.2008V43.5556L39.1936 43.5484ZM39.1936 31.9355H38.5548C38.1048 31.9355 37.7419 31.5726 37.7419 31.1226C37.7419 30.9121 37.829 30.7016 37.9815 30.5492L39.1936 29.3371V31.9427V31.9355ZM41.7919 23.2258C41.9879 23.4218 42.0968 23.6758 42.0968 23.9516C42.0968 24.2274 41.9879 24.4815 41.7992 24.6774L40.6452 25.8315V23.5306L41.371 22.8048L41.7919 23.2331V23.2258ZM41.8573 18.0798C41.5379 17.6371 41.146 17.2452 40.7032 16.9258L42.3653 15.2637C42.946 15.3726 43.4032 15.8298 43.5194 16.4177L41.8573 18.0798Z" fill="#8D7252"></path><path d="M15.4594 40.2097C15.1546 39.8033 14.6973 39.1936 13.7901 39.1936C12.8828 39.1936 12.4256 39.8033 12.1207 40.2097C11.8449 40.5726 11.7651 40.6452 11.6127 40.6452C11.4602 40.6452 11.3804 40.5726 11.1046 40.2097C10.7997 39.8033 10.3425 39.1936 9.43523 39.1936C8.52797 39.1936 8.07072 39.8033 7.76588 40.2097C7.49007 40.5726 7.41023 40.6452 7.25781 40.6452V42.0968C8.16507 42.0968 8.62233 41.4872 8.92717 41.0807C9.20297 40.7178 9.28281 40.6452 9.43523 40.6452C9.58765 40.6452 9.66749 40.7178 9.9433 41.0807C10.2481 41.4872 10.7054 42.0968 11.6127 42.0968C12.5199 42.0968 12.9772 41.4872 13.282 41.0807C13.5578 40.7178 13.6377 40.6452 13.7901 40.6452C13.9425 40.6452 14.0223 40.7178 14.2981 41.0807C14.603 41.4872 15.0602 42.0968 15.9675 42.0968V40.6452C15.8151 40.6452 15.7352 40.5726 15.4594 40.2097Z" fill="#8D7252"></path><path d="M11.6137 36.2903H10.1621V37.7419H11.6137V36.2903Z" fill="#8D7252"></path><path d="M14.5161 36.2903H13.0645V37.7419H14.5161V36.2903Z" fill="#8D7252"></path><path d="M8.70943 36.2903H7.25781V37.7419H8.70943V36.2903Z" fill="#8D7252"></path><path d="M14.5159 33.3872H7.25781V34.8388H14.5159V33.3872Z" fill="#8D7252"></path><path d="M14.5159 30.4839H7.25781V31.9355H14.5159V30.4839Z" fill="#8D7252"></path><path d="M34.838 11.6128H21.7734V13.0644H34.838V11.6128Z" fill="#8D7252"></path><path d="M34.838 14.5161H21.7734V15.9677H34.838V14.5161Z" fill="#8D7252"></path><path d="M37.7426 40.6453H36.291V42.0969H37.7426V40.6453Z" fill="#8D7252"></path><path d="M31.936 40.6453H30.4844V42.0969H31.936V40.6453Z" fill="#8D7252"></path><path d="M34.8383 40.6453H33.3867V42.0969H34.8383V40.6453Z" fill="#8D7252"></path></svg> 