<?xml version="1.0" encoding="UTF-8"?> <svg xmlns="http://www.w3.org/2000/svg" width="55" height="45" viewBox="0 0 55 45" fill="none"><path d="M19.1729 39.8078C22.5133 39.8078 25.2306 37.0905 25.2306 33.7501C25.2306 30.4097 22.5133 27.6924 19.1729 27.6924C15.8325 27.6924 13.1152 30.4097 13.1152 33.7501C13.1152 37.0905 15.8325 39.8078 19.1729 39.8078ZM19.1729 29.4232C21.5614 29.4232 23.4999 31.3616 23.4999 33.7501C23.4999 36.1385 21.5614 38.077 19.1729 38.077C16.7845 38.077 14.846 36.1385 14.846 33.7501C14.846 31.3616 16.7845 29.4232 19.1729 29.4232Z" fill="#8D7252"></path><path d="M19.1723 36.3461C20.6002 36.3461 21.7685 35.1778 21.7685 33.75C21.7685 32.3221 20.6002 31.1538 19.1723 31.1538C17.7444 31.1538 16.5762 32.3221 16.5762 33.75C16.5762 35.1778 17.7444 36.3461 19.1723 36.3461ZM19.1723 32.8846C19.6483 32.8846 20.0377 33.274 20.0377 33.75C20.0377 34.2259 19.6483 34.6153 19.1723 34.6153C18.6964 34.6153 18.3069 34.2259 18.3069 33.75C18.3069 33.274 18.6964 32.8846 19.1723 32.8846Z" fill="#8D7252"></path><path d="M22.634 19.0386H15.7109V20.7693H22.634V19.0386Z" fill="#8D7252"></path><path d="M33.0197 41.5384C33.4976 41.5384 33.8851 41.1509 33.8851 40.673C33.8851 40.1951 33.4976 39.8076 33.0197 39.8076C32.5417 39.8076 32.1543 40.1951 32.1543 40.673C32.1543 41.1509 32.5417 41.5384 33.0197 41.5384Z" fill="#8D7252"></path><path d="M5.32632 41.5384C5.80426 41.5384 6.19171 41.1509 6.19171 40.673C6.19171 40.1951 5.80426 39.8076 5.32632 39.8076C4.84838 39.8076 4.46094 40.1951 4.46094 40.673C4.46094 41.1509 4.84838 41.5384 5.32632 41.5384Z" fill="#8D7252"></path><path d="M33.8851 29.4231H32.1543V31.1539H33.8851V29.4231Z" fill="#8D7252"></path><path d="M33.8851 32.8845H32.1543V34.6153H33.8851V32.8845Z" fill="#8D7252"></path><path d="M54.6547 0H16.5778V15.5769H15.2278C14.1114 15.5769 13.1162 16.2865 12.7614 17.351L11.6191 20.7692H10.5114V19.9038C10.5114 18.476 9.34315 17.3077 7.91526 17.3077H6.1845C4.75661 17.3077 3.58834 18.476 3.58834 19.9038V20.7692C2.16046 20.7692 0.992188 21.9375 0.992188 23.3654V42.4038C0.992188 43.8317 2.16046 45 3.58834 45H34.7508C36.1787 45 37.347 43.8317 37.347 42.4038V29.4231H54.6547V0ZM5.32776 19.9038C5.32776 19.4279 5.71719 19.0385 6.19315 19.0385H7.92392C8.39988 19.0385 8.7893 19.4279 8.7893 19.9038V20.7692H5.32776V19.9038ZM3.597 22.5H12.8739L14.4056 17.8962C14.5268 17.5413 14.8556 17.3077 15.2278 17.3077H23.1201C23.4922 17.3077 23.821 17.5413 23.9422 17.8962L25.4739 22.5H34.7508C35.2268 22.5 35.6162 22.8894 35.6162 23.3654V25.9615H27.2739C25.223 23.8327 22.3585 22.5 19.1739 22.5C15.9893 22.5 13.1249 23.8327 11.0739 25.9615H2.73161V23.3654C2.73161 22.8894 3.12103 22.5 3.597 22.5ZM34.7508 20.7692H33.9028L34.872 18.2769C35.2614 18.7183 35.772 19.0385 36.4816 19.0385C37.8835 19.0385 38.5153 17.7577 38.9826 16.8317C39.346 16.0962 39.6316 15.5769 39.9345 15.5769C40.2374 15.5769 40.523 16.0962 40.8951 16.8317C41.3624 17.7663 42.0028 19.0385 43.4047 19.0385C44.1143 19.0385 44.6249 18.7096 45.0143 18.2683L47.3335 24.2308H37.347V23.3654C37.347 21.9375 36.1787 20.7692 34.7508 20.7692ZM35.6422 16.2865L37.2085 12.2538C37.6499 11.1202 38.723 10.3846 39.9431 10.3846C41.1633 10.3846 42.2364 11.1202 42.6691 12.2538L44.2355 16.2865C43.9239 16.8923 43.673 17.3077 43.396 17.3077C43.0845 17.3077 42.8076 16.7885 42.4355 16.0529C41.9682 15.1183 41.3278 13.8462 39.9258 13.8462C38.5239 13.8462 37.8922 15.1269 37.4249 16.0529C37.0614 16.7885 36.7758 17.3077 36.473 17.3077C36.2047 17.3077 35.9451 16.8923 35.6335 16.2865H35.6422ZM49.1855 24.2308L44.2874 11.6221C43.5864 9.81346 41.8816 8.65385 39.9431 8.65385C38.0047 8.65385 36.2999 9.82212 35.5989 11.6221L32.0422 20.7692H26.7201L25.5778 17.351C25.223 16.2865 24.2364 15.5769 23.1114 15.5769H21.7614V5.19231H49.4624V24.2308H49.1855ZM19.1739 24.2308C24.4268 24.2308 28.6931 28.5058 28.6931 33.75C28.6931 38.9942 24.4268 43.2692 19.1739 43.2692C13.921 43.2692 9.65469 38.9942 9.65469 33.75C9.65469 28.5058 13.9297 24.2308 19.1739 24.2308ZM3.597 43.2692C3.12103 43.2692 2.73161 42.8798 2.73161 42.4038V27.6923H9.70661C8.58161 29.4404 7.92392 31.5173 7.92392 33.75C7.92392 37.7567 10.0355 41.2788 13.2028 43.2692H3.597ZM34.7508 43.2692H25.1451C28.3124 41.2788 30.4239 37.7567 30.4239 33.75C30.4239 31.5173 29.7662 29.4404 28.6412 27.6923H35.6162V42.4038C35.6162 42.8798 35.2268 43.2692 34.7508 43.2692ZM52.9239 27.6923H37.347V25.9615H51.1931V3.46154H20.0393V15.5769H18.3085V1.73077H52.9239V27.6923Z" fill="#8D7252"></path><path d="M26.9615 6.9231C25.049 6.9231 23.5 8.47213 23.5 10.3846C23.5 12.2971 25.049 13.8462 26.9615 13.8462C28.874 13.8462 30.4231 12.2971 30.4231 10.3846C30.4231 8.47213 28.874 6.9231 26.9615 6.9231ZM26.9615 12.1154C26.0096 12.1154 25.2308 11.3366 25.2308 10.3846C25.2308 9.43271 26.0096 8.65386 26.9615 8.65386C27.9135 8.65386 28.6923 9.43271 28.6923 10.3846C28.6923 11.3366 27.9135 12.1154 26.9615 12.1154Z" fill="#8D7252"></path></svg> 