<?xml version="1.0" encoding="UTF-8"?> <svg xmlns="http://www.w3.org/2000/svg" width="62" height="62" viewBox="0 0 62 62" fill="none"><path d="M58.8755 12.2214C58.2549 12.2214 57.7518 12.7246 57.7518 13.3452V46.3031C56.6353 44.292 52.1468 42.921 50.0711 43.0326V4.32003C54.3972 4.87974 57.7518 8.62296 57.7518 13.1434C57.7518 13.764 58.2549 14.2672 58.8755 14.2672C59.4961 14.2672 59.9993 13.764 59.9993 13.1434C59.9993 6.99894 55.041 2 48.9467 2C48.3261 2 47.8229 2.50316 47.8229 3.12376V5.8295H3.12375C2.50315 5.8295 2 6.33266 2 6.95326V58.8762C2 59.4243 2.33495 60.0007 3.12375 60L8.47425 59.9971C9.09485 59.9964 9.598 59.4932 9.59728 58.8726C9.59655 58.252 9.0934 57.7488 8.47353 57.7488L4.2475 57.7518V52.7347H11.1394V54.9779C11.1394 55.5985 11.6425 56.1016 12.2631 56.1016C12.8837 56.1016 13.3869 55.5985 13.3869 54.9779V52.7347H20.2787V57.7474L7.01525 57.7488C6.39465 57.7496 5.8915 58.2527 5.89223 58.8733C5.89295 59.4939 6.3961 59.9971 7.01598 59.9971L50.6366 59.9746C56.412 59.971 60 56.6896 60 51.4101C60 51.2426 60 13.3452 60 13.3452C59.9993 12.7246 59.4961 12.2214 58.8755 12.2214ZM11.5366 15.8266L15.7475 13.5124L15.7018 18.1409L11.5366 15.8266ZM18.0029 12.7258H47.8229V14.6971H23.2041C22.5835 14.6971 22.0803 15.2002 22.0803 15.8208C22.0803 16.4415 22.5835 16.9446 23.2041 16.9446H47.8236V18.9159H17.9413L18.0029 12.7258ZM13.3869 50.4872V48.244C13.3869 47.6234 12.8837 47.1202 12.2631 47.1202C11.6425 47.1202 11.1394 47.6234 11.1394 48.244V50.4872H4.2475V8.07703H47.8229V10.4775H16.8901C16.8712 10.4775 16.6204 10.4899 16.3492 10.616L8.67145 14.8356C8.3133 15.0328 8.09 15.409 8.08855 15.8179C8.08783 16.2269 8.30895 16.6046 8.66638 16.8032L16.26 21.0228C16.2738 21.03 16.5681 21.2033 16.7907 21.1627C16.7958 21.162 16.8009 21.1642 16.8052 21.1642L16.8074 21.1634H47.8229V44.3492C47.7678 45.4063 48.9177 45.5259 49.2548 45.4302C50.9448 44.9488 53.2495 45.5535 55.1273 46.9716C56.4678 47.9837 57.3385 49.2271 57.6322 50.4864H49.9442V48.2433C49.9442 47.6226 49.4411 47.1195 48.8205 47.1195C48.1999 47.1195 47.6968 47.6226 47.6968 48.2433V50.4864H40.8049V48.0671C40.8049 47.4465 40.3018 46.9433 39.6812 46.9433C39.0606 46.9433 38.5574 47.4465 38.5574 48.0671V50.4864H31.6656V48.2433C31.6656 47.6226 31.1624 47.1195 30.5418 47.1195C29.9212 47.1195 29.4181 47.6226 29.4181 48.2433V50.4864H22.5269V48.0671C22.5269 47.4465 22.0238 46.9433 21.4032 46.9433C20.7826 46.9433 20.2794 47.4465 20.2794 48.0671V50.4864L13.3869 50.4872ZM22.5269 52.7347H29.4181V54.9779C29.4181 55.5985 29.9212 56.1016 30.5418 56.1016C31.1624 56.1016 31.6656 55.5985 31.6656 54.9779V52.7347H38.5574V57.7351L22.5269 57.7459V52.7347ZM50.6352 57.7264L40.8049 57.7329V52.7347H47.6968V54.9779C47.6968 55.5985 48.1999 56.1016 48.8205 56.1016C49.4411 56.1016 49.9442 55.5985 49.9442 54.9779V52.7347H57.6423C56.9739 57.0275 53.0603 57.7249 50.6352 57.7264Z" fill="#8D7252"></path><path d="M14.11 41.7086H11.2536V26.2907H33.8729C34.4953 26.2907 35 25.7779 35 25.1453C35 24.5128 34.4953 24 33.8729 24H10.1271C9.50467 24 9 24.5128 9 25.1453V42.8546C9 43.4872 9.50467 44 10.1271 44H14.1107C14.7332 44 15.2378 43.4872 15.2378 42.8546C15.2378 42.2221 14.7324 41.7086 14.11 41.7086Z" fill="#8D7252"></path><path d="M43 42.8554V25.1453C43 24.5128 42.5017 24 41.8872 24H39.6076C39.3621 24 39.1237 24.0835 38.9291 24.2379L35.1993 27.1922C34.7125 27.5779 34.6206 28.2969 34.9961 28.7986C35.3702 29.2996 36.0709 29.3927 36.557 29.0078L39.9867 26.2914H40.7743V34.5705H39.1912C38.5766 34.5705 38.0784 35.0833 38.0784 35.7158C38.0784 36.3483 38.5766 36.8612 39.1912 36.8612H40.7743V41.7093H32.7525V36.8671C32.7525 36.8656 32.7518 36.8634 32.7518 36.8619H34.8604C35.475 36.8619 35.9733 36.3491 35.9733 35.7165C35.9733 35.084 35.475 34.5712 34.8604 34.5712H26.942V29.7009C26.942 29.0684 26.4438 28.5555 25.8292 28.5555C25.2146 28.5555 24.7156 29.0684 24.7156 29.7009V31.5334C24.6632 31.526 24.6101 31.5164 24.5555 31.5164H15.1128C14.4983 31.5164 14 32.0293 14 32.6618C14 33.2943 14.4983 33.8071 15.1128 33.8071H24.5555C24.6101 33.8071 24.6632 33.7983 24.7156 33.7901V41.6095C24.7156 41.6435 24.7228 41.676 24.7257 41.7093H19.6511C19.0365 41.7093 18.5383 42.2221 18.5383 42.8546C18.5383 43.4872 19.0365 44 19.6511 44H41.8864C42.5017 44.0007 43 43.4879 43 42.8554ZM26.942 41.6103V36.8619H30.5268C30.5268 36.8634 30.5261 36.8656 30.5261 36.8671V41.71H26.9327C26.9356 41.6768 26.942 41.6443 26.942 41.6103Z" fill="#8D7252"></path></svg> 