<?xml version="1.0" encoding="UTF-8"?> <svg xmlns="http://www.w3.org/2000/svg" width="45" height="46" viewBox="0 0 45 46" fill="none"><path d="M31.9349 2.90332H27.5801V4.35493H31.9349V2.90332Z" fill="#8D7252"></path><path d="M26.1293 2.90332H24.6777V4.35493H26.1293V2.90332Z" fill="#8D7252"></path><path d="M29.0321 33.3871H27.5805C26.7821 33.3871 26.1289 34.0403 26.1289 34.8387V36.2903C26.1289 37.0887 26.7821 37.7419 27.5805 37.7419H29.0321C29.8305 37.7419 30.4837 37.0887 30.4837 36.2903V34.8387C30.4837 34.0403 29.8305 33.3871 29.0321 33.3871ZM27.5805 36.2903V34.8387H29.0321V36.2903H27.5805Z" fill="#8D7252"></path><path d="M36.2906 33.3872H35.8624C35.4777 33.3872 35.1076 33.5396 34.839 33.8154L33.0898 35.5646L34.839 37.3138C35.1148 37.5896 35.4777 37.742 35.8624 37.742H36.2906C37.089 37.742 37.7423 37.0888 37.7423 36.2904V34.8388C37.7423 34.0404 37.089 33.3872 36.2906 33.3872ZM35.8624 36.2904L35.1366 35.5646L35.8624 34.8388H36.2906V36.2904H35.8624Z" fill="#8D7252"></path><path d="M42.8226 14.5161C44.0202 14.5161 45 13.5363 45 12.3387V10.3355C45 9.50806 44.5427 8.76048 43.7952 8.39032L42.0968 7.54113V3.62903C42.0968 1.62581 40.471 0 38.4677 0H18.1452C16.1419 0 14.5161 1.62581 14.5161 3.62903V10.8871H13.7903C12.5927 10.8871 11.6129 11.8669 11.6129 13.0645V15.9677C11.6129 17.1653 12.5927 18.1452 13.7903 18.1452H14.5161V23.9589C14.3927 23.9081 14.2694 23.85 14.146 23.8064L13.6306 21.7742H8.14355L7.62823 23.8064C7.39597 23.8935 7.16371 23.9879 6.93145 24.0968L5.12419 23.0226L1.24839 26.8984L2.32258 28.7056C2.21371 28.9379 2.11935 29.1702 2.03226 29.4024L0 29.9177V35.4048L2.03226 35.9202C2.11935 36.1524 2.21371 36.3847 2.32258 36.6169L1.24839 38.4242L5.12419 42.3L6.93145 41.2258C7.16371 41.3347 7.39597 41.429 7.62823 41.5161L8.14355 43.5484H13.6306L14.146 41.5161C14.2694 41.4726 14.3927 41.4145 14.5161 41.3637V41.3782C14.5161 43.3814 16.1419 45.0073 18.1452 45.0073H38.4677C40.471 45.0073 42.0968 43.3814 42.0968 41.3782V22.95L43.7952 22.1008C44.5355 21.7306 45 20.9831 45 20.1556V18.1524C45 16.9548 44.0202 15.975 42.8226 15.975H42.0968V14.5234H42.8226V14.5161ZM43.1492 9.68226C43.396 9.80564 43.5484 10.0524 43.5484 10.3282V12.3315C43.5484 12.7306 43.2218 13.0573 42.8226 13.0573H42.0968V9.15242L43.1492 9.675V9.68226ZM18.1452 1.45161H38.4677C39.6653 1.45161 40.6452 2.43145 40.6452 3.62903V5.80645H15.9677V3.62903C15.9677 2.43145 16.9476 1.45161 18.1452 1.45161ZM13.7903 16.6935C13.3911 16.6935 13.0645 16.3669 13.0645 15.9677V13.0645C13.0645 12.6653 13.3911 12.3387 13.7903 12.3387H14.5161V16.6935H13.7903ZM13.3185 40.2677L12.9339 40.3911L12.4984 42.0968H9.27581L8.84032 40.3911L8.45565 40.2677C8.04919 40.1371 7.64274 39.9629 7.23629 39.7597L6.88065 39.571L5.35645 40.4782L3.07742 38.1992L3.98468 36.675L3.80323 36.3194C3.59274 35.9129 3.41855 35.4992 3.29516 35.0927L3.17177 34.7081L1.46613 34.2726V31.05L3.17177 30.6145L3.29516 30.2298C3.42581 29.8234 3.59274 29.4097 3.80323 29.0032L3.98468 28.6476L3.07742 27.1234L5.35645 24.8444L6.88065 25.7516L7.23629 25.5629C7.64274 25.3524 8.04919 25.1782 8.45565 25.0548L8.84032 24.9314L9.27581 23.2258H12.4984L12.9339 24.9314L13.3185 25.0548C13.725 25.1855 14.1315 25.3597 14.5379 25.5629L14.8935 25.7516L16.4177 24.8444L18.6968 27.1234L17.7895 28.6476L17.971 29.0032C18.1815 29.4097 18.3484 29.8234 18.479 30.2298L18.6024 30.6145L20.3081 31.05V34.2726L18.6024 34.7081L18.479 35.0927C18.3484 35.4992 18.1742 35.9129 17.971 36.3194L17.7895 36.675L18.6968 38.1992L16.4177 40.4782L14.8935 39.571L14.5379 39.7597C14.1315 39.9702 13.725 40.1371 13.3185 40.2677ZM38.4677 43.5484H18.1452C17.1435 43.5484 16.3089 42.8661 16.0548 41.9444L16.65 42.3L18.3048 40.6452H38.475C39.2952 40.6452 40.0427 40.3621 40.6524 39.8976V41.371C40.6524 42.5685 39.6726 43.5484 38.475 43.5484H38.4677ZM38.4677 39.1935H19.7492L20.5258 38.4242L19.4516 36.6169C19.5605 36.3847 19.6548 36.1524 19.7419 35.9202L21.7742 35.4048V29.9177L19.7419 29.4024C19.6548 29.1702 19.5605 28.9379 19.4516 28.7056L20.5258 26.8984L16.65 23.0226L15.9677 23.429V7.25806H40.6452V37.0161C40.6452 38.2137 39.6653 39.1935 38.4677 39.1935ZM42.8226 17.4194C43.2218 17.4194 43.5484 17.746 43.5484 18.1452V20.1484C43.5484 20.4242 43.396 20.671 43.1492 20.8016L42.0968 21.3242V17.4194H42.8226Z" fill="#8D7252"></path><path d="M37.7421 22.5V10.8871C37.7421 9.68949 36.7622 8.70966 35.5646 8.70966H21.0485C19.8509 8.70966 18.8711 9.68949 18.8711 10.8871V22.5C18.8711 23.6976 19.8509 24.6774 21.0485 24.6774H35.5646C36.7622 24.6774 37.7421 23.6976 37.7421 22.5ZM20.3227 22.5V10.8871C20.3227 10.4879 20.6493 10.1613 21.0485 10.1613H35.5646C35.9638 10.1613 36.2904 10.4879 36.2904 10.8871V22.5C36.2904 22.8992 35.9638 23.2258 35.5646 23.2258H34.7953C34.5267 20.8088 32.93 18.7838 30.7598 17.8984C31.4784 17.2379 31.9356 16.2943 31.9356 15.2419C31.9356 13.2387 30.3098 11.6129 28.3066 11.6129C26.3034 11.6129 24.6775 13.2387 24.6775 15.2419C24.6775 16.2943 25.1348 17.2379 25.8534 17.8984C23.6759 18.7838 22.0864 20.8016 21.8179 23.2258H21.0485C20.6493 23.2258 20.3227 22.8992 20.3227 22.5ZM26.1292 15.2419C26.1292 14.0443 27.109 13.0645 28.3066 13.0645C29.5042 13.0645 30.484 14.0443 30.484 15.2419C30.484 16.4395 29.5042 17.4193 28.3066 17.4193C27.109 17.4193 26.1292 16.4395 26.1292 15.2419ZM33.3292 23.2258H23.284C23.6396 20.7653 25.7517 18.8709 28.3066 18.8709C30.8614 18.8709 32.9735 20.7653 33.3292 23.2258Z" fill="#8D7252"></path><path d="M39.1943 26.1289H23.2266V27.5805H39.1943V26.1289Z" fill="#8D7252"></path><path d="M39.1943 29.0322H23.2266V30.4838H39.1943V29.0322Z" fill="#8D7252"></path><path d="M10.8868 29.0322C8.88362 29.0322 7.25781 30.658 7.25781 32.6613C7.25781 34.6645 8.88362 36.2903 10.8868 36.2903C12.8901 36.2903 14.5159 34.6645 14.5159 32.6613C14.5159 30.658 12.8901 29.0322 10.8868 29.0322ZM10.8868 34.8387C9.68926 34.8387 8.70943 33.8588 8.70943 32.6613C8.70943 31.4637 9.68926 30.4838 10.8868 30.4838C12.0844 30.4838 13.0643 31.4637 13.0643 32.6613C13.0643 33.8588 12.0844 34.8387 10.8868 34.8387Z" fill="#8D7252"></path><path d="M5.80708 32.6611C5.80708 29.8595 8.08611 27.5805 10.8877 27.5805C12.0272 27.5805 13.1014 27.9506 14.0087 28.6546L14.9014 27.5079C13.7401 26.6006 12.3539 26.1216 10.8877 26.1216C7.28773 26.1216 4.35547 29.0538 4.35547 32.6538C4.35547 34.12 4.8345 35.5063 5.7345 36.6675L6.88127 35.7748C6.17724 34.8748 5.80708 33.7934 5.80708 32.6538V32.6611Z" fill="#8D7252"></path><path d="M17.4185 32.6612C17.4185 31.195 16.9394 29.8088 16.0322 28.6475L14.8854 29.5402C15.5894 30.4402 15.9596 31.5217 15.9596 32.6612C15.9596 35.4628 13.6806 37.7418 10.8789 37.7418C9.73943 37.7418 8.66523 37.3717 7.75798 36.6676L6.86523 37.8144C8.02652 38.7217 9.41281 39.2007 10.8789 39.2007C14.4789 39.2007 17.4112 36.2684 17.4112 32.6684L17.4185 32.6612Z" fill="#8D7252"></path></svg> 