<?xml version="1.0" encoding="UTF-8"?> <svg xmlns="http://www.w3.org/2000/svg" width="54" height="47" viewBox="0 0 54 47" fill="none"><path d="M22.1625 26.9615C22.9154 26.9615 23.6423 27.299 24.1529 27.8961C24.776 28.6144 25.5288 29.1856 26.3596 29.6096C26.0654 30.0769 25.6587 30.4663 25.1567 30.7173C24.1183 31.2365 23.3048 32.1192 22.8721 33.2009L22.1712 34.949C22.1538 34.9923 22.1279 35.0356 22.1019 35.0788C19.9558 33.4 18.2596 31.1413 17.3077 28.4673L15.6808 29.0471C17.8183 35.0269 23.2269 39.1894 29.449 39.8471V39.8731L29.8298 39.8904C29.9596 39.899 30.0894 39.899 30.2192 39.9077L30.6173 39.925C30.7904 39.9336 30.9721 39.9423 31.1538 39.9423C40.2231 39.9423 47.5962 32.5692 47.5962 23.5C47.5962 14.4308 40.2231 7.05768 31.1538 7.05768C24.2481 7.05768 18.0346 11.4279 15.6981 17.9356L17.325 18.524C18.0692 16.4558 19.2548 14.6384 20.7433 13.1413C23.3481 13.2711 25.5635 14.9327 26.4375 17.3471C25.5721 17.7711 24.7933 18.3596 24.1615 19.0952C23.651 19.6923 22.924 20.0298 22.1712 20.0298H3.46154C1.54904 20.0298 0 21.5788 0 23.4913C0 25.4038 1.54904 26.9529 3.46154 26.9529H22.1625V26.9615ZM39.8077 35.3731C37.4798 37.0779 34.6327 38.1077 31.5519 38.1942C32.1231 36.1 33.3173 34.2221 34.9788 32.8375C35.5067 32.3961 36.1731 32.1538 36.8654 32.1538C38.4923 32.1538 39.8077 33.4779 39.8077 35.0961V35.3644V35.3731ZM45.8654 23.5C45.8654 24.5904 45.7356 25.6548 45.5106 26.6846L42.8971 25.3779C40.9933 24.4259 39.8077 22.5048 39.8077 20.3759C39.8077 17.7192 38.3625 15.2702 36.0433 13.9721L34.8923 13.3317C33.2308 12.4058 32.175 10.7096 32.0452 8.82306C39.7471 9.29037 45.8654 15.6769 45.8654 23.4913V23.5ZM22.474 11.6529C24.724 9.99999 27.4327 8.99614 30.3144 8.82306C30.4442 11.3327 31.8375 13.6259 34.0529 14.8548L35.2038 15.4952C36.9779 16.4817 38.0769 18.3509 38.0769 20.3846C38.0769 23.1798 39.626 25.6808 42.1269 26.9356L45.026 28.3808C44.2644 30.5356 43.0269 32.474 41.4173 34.0404C40.9327 31.9808 39.0808 30.4317 36.8654 30.4317C35.775 30.4317 34.7106 30.8125 33.8712 31.5134C31.8288 33.2183 30.401 35.5461 29.7865 38.1509C27.5452 37.9433 25.4163 37.2163 23.5471 36.0827C23.6337 35.9269 23.7202 35.7625 23.7894 35.5981L24.4904 33.85C24.7673 33.1663 25.2779 32.6038 25.9356 32.275C26.8269 31.825 27.5538 31.0981 28.0125 30.224C28.575 30.3538 29.1462 30.4317 29.7346 30.4317C32.4952 30.4317 35.0567 28.8827 36.2596 26.4942L36.8827 25.2394H29.8904L28.7394 23.5086L29.8904 21.7779H36.8827L36.2596 20.5231C35.0654 18.1259 32.5038 16.5856 29.7433 16.5856C29.1808 16.5856 28.6183 16.6548 28.0817 16.7759C27.1644 14.2231 25.0702 12.3279 22.4827 11.6615L22.474 11.6529ZM1.73077 23.5C1.73077 22.5481 2.50962 21.7692 3.46154 21.7692H22.1625C23.4173 21.7692 24.6202 21.2067 25.4596 20.2288C26.5067 19.0086 28.0644 18.3077 29.726 18.3077C31.301 18.3077 32.7894 18.9567 33.8192 20.0384H28.9558L26.6452 23.5L28.9558 26.9615H33.8192C32.7894 28.0433 31.301 28.6923 29.726 28.6923C28.0644 28.6923 26.5067 27.9913 25.4596 26.7711C24.6202 25.7933 23.4173 25.2308 22.1625 25.2308H3.46154C2.50962 25.2308 1.73077 24.4519 1.73077 23.5Z" fill="#8D7252"></path><path d="M50.6419 19.4758C50.1314 17.0008 49.1708 14.6816 47.7775 12.5614L49.3698 9.90467L44.74 5.27486L42.0833 6.86717C39.9718 5.4739 37.6525 4.51333 35.1689 4.00275L34.416 0.991211H27.8737L27.1208 4.00275C24.6458 4.51333 22.3266 5.4739 20.2064 6.86717L17.5496 5.27486L12.9198 9.90467L14.5121 12.5614C13.3871 14.2662 12.5391 16.1268 11.9852 18.0912L13.6554 18.5585C14.2093 16.6027 15.0833 14.7595 16.2516 13.0893L16.5718 12.6306L15.1006 10.1729L17.8179 7.45563L20.2756 8.92679L20.7343 8.6066C22.915 7.07486 25.3554 6.07102 27.9775 5.60371L28.5314 5.50852L29.2237 2.73063H33.066L33.7583 5.50852L34.3121 5.60371C36.9343 6.06236 39.3746 7.07486 41.5554 8.6066L42.0141 8.92679L44.4718 7.45563L47.1891 10.1729L45.7179 12.6306L46.0381 13.0893C47.5698 15.2701 48.5737 17.7104 49.041 20.3326L49.1362 20.8864L51.9141 21.5787V25.421L49.1362 26.1133L49.041 26.6672C48.5823 29.2893 47.5698 31.721 46.0381 33.9104L45.7179 34.3691L47.1891 36.8268L44.4718 39.5441L42.0141 38.0729L41.5554 38.3931C39.3746 39.9249 36.9343 40.9374 34.3121 41.396L33.7583 41.4912L33.066 44.2691H29.2237L28.5314 41.4912L27.9775 41.396C25.3554 40.9374 22.9237 39.9249 20.7343 38.3931L20.2756 38.0729L17.8179 39.5441L15.1006 36.8268L16.5718 34.3691L16.2516 33.9104C15.0746 32.2316 14.2006 30.3883 13.6468 28.4239L11.9766 28.8912C12.5304 30.8643 13.3785 32.7335 14.5121 34.4383L12.9112 37.1037L17.541 41.7335L20.1977 40.1412C22.3093 41.5345 24.6285 42.4951 27.1121 43.0056L27.865 46.0172H34.4073L35.1602 43.0056C37.6352 42.4951 39.9544 41.5345 42.0746 40.1412L44.7314 41.7335L49.3612 37.1037L47.7602 34.4383C49.1535 32.3268 50.1141 30.0076 50.6246 27.5239L53.6362 26.771V20.2287L50.6246 19.4758H50.6419Z" fill="#8D7252"></path></svg> 