<?xml version="1.0" encoding="UTF-8"?> <svg xmlns="http://www.w3.org/2000/svg" width="45" height="46" viewBox="0 0 45 46" fill="none"><path d="M27.881 32.7721L30.7983 34.717L33.5051 32.0102L35.4427 32.656H39.2888C39.6154 33.9042 40.7402 34.8331 42.09 34.8331C43.6938 34.8331 44.9927 33.5341 44.9927 31.9303C44.9927 30.3266 43.6938 29.0276 42.09 29.0276C40.7402 29.0276 39.6154 29.9565 39.2888 31.2047H35.6749L34.6517 30.8636L34.717 30.7983L32.7721 27.881C33.0914 27.2714 33.3599 26.6256 33.5704 25.9579L37.0102 25.2685V19.7242L33.5704 19.0348C33.3164 18.2221 32.9753 17.4383 32.5544 16.7126L31.299 17.4383C31.7344 18.1858 32.0682 18.9986 32.2932 19.8549L32.4093 20.2903L35.5588 20.9216V24.0856L32.4093 24.717L32.2932 25.1524C32.0682 26.0015 31.7271 26.8142 31.299 27.569L31.074 27.9608L32.852 30.6314L30.6168 32.8665L27.9463 31.0885L27.5544 31.3135C26.807 31.7489 25.9942 32.0827 25.1379 32.315L24.7025 32.4311L24.0711 35.5806H20.9071L20.2758 32.4311L19.8403 32.315C18.9913 32.0827 18.1785 31.7489 17.4238 31.3135L17.0319 31.0885L14.3614 32.8665L11.7054 30.2105L11.3716 30.5443V30.5298L9.30334 31.2192H5.70392C5.37736 29.971 4.25254 29.0421 2.90276 29.0421C1.29898 29.0421 0 30.3411 0 31.9449C0 33.5486 1.29898 34.8476 2.90276 34.8476C4.25254 34.8476 5.37736 33.9187 5.70392 32.6706H9.55007L11.4877 32.0247L14.1945 34.7315L17.1118 32.7867C17.7213 33.106 18.3672 33.3745 19.0348 33.5849L19.5501 36.1611L16.2845 41.3788H5.70392C5.37736 40.1306 4.25254 39.2018 2.90276 39.2018C1.29898 39.2018 0 40.5007 0 42.1045C0 43.7083 1.29898 45.0073 2.90276 45.0073C4.25254 45.0073 5.37736 44.0784 5.70392 42.8302H17.0972L20.7257 37.0247H24.2743L27.9028 42.8302H39.2961C39.6226 44.0784 40.7475 45.0073 42.0972 45.0073C43.701 45.0073 45 43.7083 45 42.1045C45 40.5007 43.701 39.2018 42.0972 39.2018C40.7475 39.2018 39.6226 40.1306 39.2961 41.3788H28.7083L25.4427 36.1611L25.9579 33.5849C26.6255 33.3745 27.2714 33.1132 27.881 32.7867V32.7721ZM42.09 30.479C42.8882 30.479 43.5414 31.1321 43.5414 31.9303C43.5414 32.7286 42.8882 33.3817 42.09 33.3817C41.2917 33.3817 40.6386 32.7286 40.6386 31.9303C40.6386 31.1321 41.2917 30.479 42.09 30.479ZM2.90276 33.3817C2.1045 33.3817 1.45138 32.7286 1.45138 31.9303C1.45138 31.1321 2.1045 30.479 2.90276 30.479C3.70102 30.479 4.35414 31.1321 4.35414 31.9303C4.35414 32.7286 3.70102 33.3817 2.90276 33.3817ZM2.90276 43.5414C2.1045 43.5414 1.45138 42.8883 1.45138 42.09C1.45138 41.2917 2.1045 40.6386 2.90276 40.6386C3.70102 40.6386 4.35414 41.2917 4.35414 42.09C4.35414 42.8883 3.70102 43.5414 2.90276 43.5414ZM42.09 40.6386C42.8882 40.6386 43.5414 41.2917 43.5414 42.09C43.5414 42.8883 42.8882 43.5414 42.09 43.5414C41.2917 43.5414 40.6386 42.8883 40.6386 42.09C40.6386 41.2917 41.2917 40.6386 42.09 40.6386Z" fill="#8D7252"></path><path d="M22.4966 29.753C26.4952 29.753 29.7535 26.4947 29.7535 22.4961C29.7535 18.4976 26.4952 15.2392 22.4966 15.2392C18.4981 15.2392 15.2397 18.4976 15.2397 22.4961C15.2397 26.4947 18.4981 29.753 22.4966 29.753ZM22.4966 16.6906C25.6969 16.6906 28.3022 19.2958 28.3022 22.4961C28.3022 25.6964 25.6969 28.3017 22.4966 28.3017C19.2964 28.3017 16.6911 25.6964 16.6911 22.4961C16.6911 19.2958 19.2964 16.6906 22.4966 16.6906Z" fill="#8D7252"></path><path d="M22.498 25.4C24.102 25.4 25.4012 24.1008 25.4012 22.4967C25.4012 20.8927 24.102 19.5935 22.498 19.5935C20.8939 19.5935 19.5947 20.8927 19.5947 22.4967C19.5947 24.1008 20.8939 25.4 22.498 25.4ZM22.498 21.0451C23.2963 21.0451 23.9496 21.6984 23.9496 22.4967C23.9496 23.2951 23.2963 23.9484 22.498 23.9484C21.6996 23.9484 21.0463 23.2951 21.0463 22.4967C21.0463 21.6984 21.6996 21.0451 22.498 21.0451Z" fill="#8D7252"></path><path d="M42.09 10.1597C40.7402 10.1597 39.6154 11.0885 39.2888 12.3367H35.4427L33.5051 12.9826L30.7983 10.2758L27.881 12.2206C27.2714 11.9013 26.6255 11.6328 25.9579 11.4224L25.4427 8.84615L28.7083 3.62845H39.2961C39.6226 4.87663 40.7475 5.80552 42.0972 5.80552C43.701 5.80552 45 4.50653 45 2.90276C45 1.29898 43.701 0 42.0972 0C40.7475 0 39.6226 0.928882 39.2961 2.17707H27.9028L24.2743 7.98258H20.7257L17.09 2.17707H5.70392C5.37736 0.928882 4.25254 0 2.90276 0C1.29898 0 0 1.29898 0 2.90276C0 4.50653 1.29898 5.80552 2.90276 5.80552C4.25254 5.80552 5.37736 4.87663 5.70392 3.62845H16.2917L19.5573 8.84615L19.0421 11.4224C18.3745 11.6328 17.7286 11.894 17.119 12.2206L14.2017 10.2758L11.4949 12.9826L9.56459 12.3367H5.70392C5.37736 11.0885 4.25254 10.1597 2.90276 10.1597C1.29898 10.1597 0 11.4586 0 13.0624C0 14.6662 1.29898 15.9652 2.90276 15.9652C4.25254 15.9652 5.37736 15.0363 5.70392 13.7881H9.31785L10.3411 14.1292L10.2758 14.1945L12.2206 17.1118C11.9013 17.7213 11.6328 18.3672 11.4224 19.0348L7.98258 19.7242V25.2685L11.4224 25.9579C11.6763 26.7707 12.0174 27.5544 12.4383 28.2801L13.6938 27.5544C13.2583 26.807 12.9245 25.9942 12.6996 25.1379L12.5835 24.7025L9.43396 24.0711V20.9071L12.5835 20.2758L12.6996 19.8403C12.9318 18.9913 13.2656 18.1785 13.6938 17.4238L13.9187 17.0319L12.1408 14.3614L14.3759 12.1263L17.0464 13.9042L17.4383 13.6792C18.1858 13.2511 18.9985 12.91 19.8549 12.6778L20.2903 12.5617L20.9144 9.41219H24.0784L24.7097 12.5617L25.1451 12.6778C25.9942 12.91 26.807 13.2438 27.5617 13.6792L27.9536 13.9042L30.6241 12.1263L33.2801 14.7823L33.6139 14.4485V14.463L35.6821 13.7736H39.2961C39.6226 15.0218 40.7475 15.9507 42.0972 15.9507C43.701 15.9507 45 14.6517 45 13.0479C45 11.4441 43.701 10.1451 42.0972 10.1451L42.09 10.1597ZM42.09 1.45138C42.8882 1.45138 43.5414 2.1045 43.5414 2.90276C43.5414 3.70102 42.8882 4.35414 42.09 4.35414C41.2917 4.35414 40.6386 3.70102 40.6386 2.90276C40.6386 2.1045 41.2917 1.45138 42.09 1.45138ZM2.90276 4.35414C2.1045 4.35414 1.45138 3.70102 1.45138 2.90276C1.45138 2.1045 2.1045 1.45138 2.90276 1.45138C3.70102 1.45138 4.35414 2.1045 4.35414 2.90276C4.35414 3.70102 3.70102 4.35414 2.90276 4.35414ZM2.90276 14.5138C2.1045 14.5138 1.45138 13.8607 1.45138 13.0624C1.45138 12.2642 2.1045 11.611 2.90276 11.611C3.70102 11.611 4.35414 12.2642 4.35414 13.0624C4.35414 13.8607 3.70102 14.5138 2.90276 14.5138ZM42.09 14.5138C41.2917 14.5138 40.6386 13.8607 40.6386 13.0624C40.6386 12.2642 41.2917 11.611 42.09 11.611C42.8882 11.611 43.5414 12.2642 43.5414 13.0624C43.5414 13.8607 42.8882 14.5138 42.09 14.5138Z" fill="#8D7252"></path></svg> 