<?xml version="1.0" encoding="UTF-8"?> <svg xmlns="http://www.w3.org/2000/svg" width="62" height="62" viewBox="0 0 62 62" fill="none"><path d="M28 12C31.31 12 34 9.31 34 6C34 2.69 31.31 0 28 0C24.69 0 22 2.69 22 6C22 9.31 24.69 12 28 12ZM28 2C30.21 2 32 3.79 32 6C32 8.21 30.21 10 28 10C25.79 10 24 8.21 24 6C24 3.79 25.79 2 28 2Z" fill="#8D7252"></path><path d="M60.2713 30.32C59.9713 30.63 59.5113 31 59.0013 31C58.4913 31 58.0213 30.63 57.7213 30.31C56.9113 29.46 55.9713 29 55.0013 29C54.0313 29 53.0913 29.45 52.2713 30.31C51.9813 30.62 51.5113 30.99 51.0013 30.99C50.4813 30.99 50.0213 30.62 49.7313 30.31C48.9213 29.45 47.9813 29 47.0013 29C46.0313 29 45.0913 29.45 44.2713 30.31C43.9713 30.62 43.5113 30.99 43.0013 30.99C42.4813 30.99 42.0213 30.62 41.7313 30.31L40.2812 31.68C41.0913 32.54 42.0313 32.99 43.0013 32.99C43.9713 32.99 44.9113 32.54 45.7313 31.68C46.0313 31.37 46.4913 30.99 47.0013 30.99C47.5213 30.99 47.9813 31.36 48.2713 31.68C49.0813 32.54 50.0213 32.99 50.9913 32.99C51.9613 32.99 52.9013 32.54 53.7213 31.68C54.0113 31.37 54.4713 31 54.9913 31C55.5113 31 55.9713 31.37 56.2713 31.69C57.0813 32.55 58.0213 33 58.9913 33C59.9613 33 60.9013 32.55 61.7113 31.69L60.2612 30.31L60.2713 30.32Z" fill="#8D7252"></path><path d="M44.7191 39.6902L43.2691 38.3102C42.9691 38.6202 42.5091 38.9902 41.9991 38.9902C41.4891 38.9902 41.0191 38.6202 40.7191 38.3002C39.9091 37.4402 38.9691 36.9902 37.9991 36.9902C37.0291 36.9902 36.0891 37.4402 35.2691 38.3002C34.9791 38.6102 34.5091 38.9902 33.9991 38.9902C33.4891 38.9902 33.0191 38.6202 32.7291 38.3002C31.1091 36.5902 28.8991 36.5902 27.2791 38.3002L27.2591 38.3202C26.9591 38.6302 26.5091 38.9802 26.0091 38.9802C25.4891 38.9802 25.0291 38.6102 24.7391 38.2902L23.2891 39.6702C24.0991 40.5302 25.0391 40.9802 26.0191 40.9802C26.9891 40.9802 27.9291 40.5302 28.7491 39.6702L28.7691 39.6502C29.0691 39.3402 29.5191 38.9902 30.0191 38.9902C30.5191 38.9902 30.9991 39.3602 31.2891 39.6802C32.0991 40.5402 33.0391 40.9902 34.0091 40.9902C34.9791 40.9902 35.9191 40.5402 36.7391 39.6802C37.0391 39.3702 37.4991 39.0002 38.0091 39.0002C38.5191 39.0002 38.9891 39.3702 39.2891 39.6902C40.0991 40.5502 41.0391 41.0002 42.0091 41.0002C42.9791 41.0002 43.9191 40.5502 44.7291 39.6902H44.7191Z" fill="#8D7252"></path><path d="M42.9995 48C43.9695 48 44.9095 47.55 45.7195 46.69L45.7395 46.67C46.0395 46.36 46.4895 46.01 46.9895 46.01C47.4895 46.01 47.9695 46.38 48.2595 46.7C49.0695 47.56 50.0095 48.01 50.9795 48.01C51.9495 48.01 52.8895 47.56 53.7095 46.7C54.0095 46.39 54.4695 46.01 54.9795 46.01C55.4895 46.01 55.9595 46.38 56.2595 46.7C57.0695 47.56 58.0095 48.01 58.9795 48.01C59.9495 48.01 60.8895 47.56 61.6995 46.7L60.2495 45.32C59.9495 45.63 59.4895 46 58.9795 46C58.4695 46 57.9995 45.63 57.6995 45.31C56.8895 44.45 55.9495 44 54.9795 44C54.0095 44 53.0695 44.45 52.2495 45.31C51.9595 45.62 51.4895 46 50.9795 46C50.4695 46 49.9995 45.63 49.7095 45.31C48.0895 43.6 45.8795 43.6 44.2595 45.31L44.2395 45.33C43.9395 45.64 43.4895 45.99 42.9895 45.99C42.4695 45.99 42.0095 45.62 41.7195 45.3L40.2695 46.68C41.0795 47.54 42.0195 47.99 42.9895 47.99L42.9995 48Z" fill="#8D7252"></path><path d="M43 56H41V58H43V56Z" fill="#8D7252"></path><path d="M36 56H34V58H36V56Z" fill="#8D7252"></path><path d="M29 56H27V58H29V56Z" fill="#8D7252"></path><path d="M22 56H20V58H22V56Z" fill="#8D7252"></path><path d="M62 22H59.37L48.94 13.18C47.28 11.78 45.18 11 43 11C40.82 11 38.72 11.77 37.06 13.18L26.63 22H24.4C20.99 20.19 16.94 19.55 12.96 20.39C12.98 20.26 13 20.14 13 20C13 18.35 11.65 17 10 17C8.35 17 7 18.35 7 20C7 20.9 7.41 21.7 8.04 22.25C7.63 22.48 7.24 22.74 6.86 23H0V25H4.5C3.26 26.27 2.22 27.74 1.46 29.38C-0.31 33.18 -0.47 37.44 1.01 41.36L1.36 42.27L14.21 37.76L17.62 48H13.7L10.94 40.65L9.07 41.35L11.96 49.04L10.08 55.61C4.09 57.21 0.78 58.98 0.53 59.12L0 59.41V62H62V59.41L61.48 59.13C61.07 58.91 52.23 54.19 36.75 53.19L34.67 48H23.05L19.07 36.05L32.3 31.41L31.94 30.45C30.97 27.88 29.37 25.69 27.38 24H62V22V22ZM11.22 24.48L11.6 23.66L12.41 24.04C16.43 25.92 19.56 29.12 21.36 33.13L10.17 37.06C9.02 32.87 9.37 28.46 11.22 24.48V24.48ZM10 19C10.55 19 11 19.45 11 20C11 20.55 10.55 21 10 21C9.45 21 9 20.55 9 20C9 19.45 9.45 19 10 19ZM3.27 30.22C4.55 27.47 6.67 25.27 9.33 23.82C7.33 28.22 6.98 33.09 8.28 37.71L2.56 39.72C1.62 36.57 1.86 33.23 3.27 30.22V30.22ZM29.79 53.01C25.05 53.07 20.83 53.5 17.17 54.09L17.85 49.99H29.18L29.78 53L29.79 53.01ZM13.76 50H15.83L15.08 54.47C14.11 54.66 13.19 54.85 12.31 55.06L13.75 50H13.76ZM53.01 60V59H51.01V60H46.01V59H44.01V60H39.01V59H37.01V60H32.01V59H30.01V60H25.01V59H23.01V60H18.01V59H16.01V60H11.01V59H9.01V60H3.38C7.26 58.36 16.92 55 31 55C45.08 55 54.73 58.36 58.62 60H53H53.01ZM34.56 53.07C33.67 53.04 32.76 53.02 31.83 53.01L31.23 50H33.33L34.56 53.07V53.07ZM20.96 48H19.73L16.1 37.1L17.2 36.72L20.96 48.01V48ZM29.68 30.22L23.26 32.47C21.31 28.01 17.88 24.45 13.46 22.33C20.07 20.97 26.88 24.22 29.68 30.22V30.22ZM38.37 14.71C39.67 13.61 41.31 13.01 43.01 13.01C44.71 13.01 46.36 13.61 47.65 14.71L56.28 22.01H29.73L38.36 14.71H38.37Z" fill="#8D7252"></path></svg> 