<?xml version="1.0" encoding="UTF-8"?> <svg xmlns="http://www.w3.org/2000/svg" width="62" height="62" viewBox="0 0 62 62" fill="none"><path d="M57.26 30.51L59.57 27.28L52.72 20.43L49.49 22.74C48.85 22.43 48.18 22.15 47.5 21.92L46.85 18H43V13.59L33.41 4H16.9C16.43 1.72 14.41 0 12 0C9.59 0 7.57 1.72 7.1 4H0V62H43V58H46.85L47.5 54.08C48.18 53.85 48.85 53.57 49.49 53.26L52.72 55.57L59.57 48.72L57.26 45.49C57.57 44.85 57.85 44.18 58.08 43.5L62 42.85V33.16L58.08 32.51C57.85 31.83 57.57 31.16 57.26 30.52V30.51ZM34 7.41L39.59 13H34V7.41ZM9 5C9 3.35 10.35 2 12 2C13.65 2 15 3.35 15 5V15H9V5ZM9 17H15V39H9V17ZM9 41H15V45C15 46.65 13.65 48 12 48C10.35 48 9 46.65 9 45V41ZM41 60H2V6H7V45C7 47.41 8.72 49.43 11 49.9V52H13V49.9C15.28 49.43 17 47.42 17 45V6.18C18.16 6.59 19 7.69 19 9V24C19 26.21 20.79 28 23 28V26C21.9 26 21 25.1 21 24V9C21 7.87 20.61 6.84 19.97 6H32V15H41V60ZM43 33.1C45.28 33.57 47 35.58 47 38C47 40.42 45.28 42.43 43 42.9V33.1V33.1ZM60 41.15L56.54 41.73L56.36 42.33C56.07 43.3 55.69 44.23 55.21 45.1L54.92 45.65L56.96 48.5L52.5 52.96L49.65 50.92L49.1 51.21C48.23 51.68 47.29 52.06 46.33 52.36L45.73 52.54L45.15 56H43V48.95C48.6 48.44 53 43.73 53 38C53 35.47 52.12 33 50.51 31.04L48.96 32.31C50.27 33.91 50.99 35.93 50.99 38C50.99 42.62 47.48 46.44 42.99 46.94V44.92C46.38 44.43 48.99 41.52 48.99 38C48.99 34.48 46.38 31.57 42.99 31.08V29.06C44.7 29.25 46.34 29.93 47.68 31.03L48.95 29.48C47.25 28.09 45.17 27.24 42.99 27.04V19.99H45.14L45.72 23.45L46.32 23.63C47.29 23.92 48.22 24.3 49.09 24.78L49.64 25.08L52.49 23.04L56.95 27.5L54.91 30.35L55.2 30.9C55.67 31.77 56.05 32.71 56.35 33.67L56.53 34.27L59.99 34.85V41.15H60Z" fill="#8D7252"></path></svg> 