<?xml version="1.0" encoding="UTF-8"?> <svg xmlns="http://www.w3.org/2000/svg" width="98" height="47" viewBox="0 0 98 47" fill="none"><path d="M52.3691 45.3672H39.3844V41.41C38.9935 41.1917 38.8515 41.5149 38.6961 41.6691C35.1201 45.2118 30.7645 46.1 26.1554 46.063C23.8345 46.0445 21.5496 45.7213 19.3335 44.8701C13.9008 42.7817 10.6088 38.0856 10.2618 31.76C10.0285 27.5079 10.6831 23.531 13.1787 20.0536C14.8799 17.6827 17.0926 16.2284 19.6501 15.4229C25.3802 13.6194 31.0135 13.6811 36.4112 16.8488C37.4196 17.4409 38.2555 18.2711 39.1963 19.1876C39.4757 17.7925 38.9552 16.4985 39.1918 15.128H51.755V19.554C53.4641 17.2288 55.242 15.4919 57.6496 14.8493C61.2989 13.8748 64.8343 13.8143 67.8233 16.8896C68.6615 17.753 69.031 18.941 69.5369 20.0141C75.2783 13.8057 82.1215 13.1025 89.3501 15.4006C94.5372 17.0486 97.0744 21.4376 97.7797 27.149C97.9994 28.9253 98.1425 30.7275 97.7605 32.6284H79.5393C78.914 35.2805 79.9257 38.0165 81.7047 38.6728C83.914 39.4869 85.168 38.5901 86.4501 35.2472H97.3606C97.4022 38.8011 96.1584 41.5198 93.4928 43.4442C90.5286 45.5844 87.1633 46.0851 83.736 46.1777C78.8655 46.3084 74.2891 45.3044 70.3853 41.3212V45.3154H57.3781C57.1134 44.9552 57.2677 44.4779 57.2666 44.0424C57.2531 38.3138 57.261 32.5852 57.2508 26.8566C57.2508 26.3077 57.2215 25.7464 57.1156 25.2123C56.834 23.7937 56.0498 23.0807 54.8544 23.0758C53.7109 23.0709 52.7882 23.8504 52.5324 25.1839C52.3871 25.9438 52.3758 26.7431 52.3747 27.524C52.3623 33.4302 52.3679 39.3364 52.3679 45.3648L52.3691 45.3672ZM29.2041 29.9985C29.2593 28.269 29.221 26.2337 28.6622 24.2798C28.1304 22.4183 26.3953 21.7337 25.2157 22.8587C24.6265 23.42 24.3651 24.2057 24.1646 25.015C23.8412 26.3188 23.8525 27.6621 23.7995 28.9894C23.7105 31.1962 23.7567 33.4092 24.1758 35.5828C24.4789 37.1543 25.2394 37.9067 26.4044 37.9635C27.8149 38.0313 28.3963 37.0988 28.7433 35.7813C29.2176 33.9816 29.212 32.1448 29.2041 29.9997V29.9985ZM79.2824 26.2287H85.9972C86.3296 23.4496 85.1714 21.6202 83.0859 21.5203C80.5532 21.3982 79.1618 23.1017 79.2824 26.2287Z" fill="black"></path><path d="M3.26211 25.4683C2.25151 23.8339 1.34681 22.0625 0.703497 20.0345C3.4097 18.4124 6.18801 16.9063 6.41334 12.7813H0.678711V0.0239258H12.7981C12.851 0.125077 12.9637 0.241026 12.9648 0.358213C13.0144 4.64479 13.1958 8.93505 12.8735 13.2167C12.4544 18.801 9.49472 22.3573 5.10418 24.7418C4.61747 25.0057 4.124 25.2537 3.62827 25.4954C3.5618 25.5275 3.46378 25.4856 3.26211 25.4683Z" fill="black"></path><path d="M54.3027 10.1665V1.91533C55.8068 1.91533 57.2703 1.87461 58.7293 1.93135C59.5 1.96096 60.2796 2.20151 60.532 3.14888C60.7979 4.14805 60.666 5.06704 59.6667 5.67271C60.0802 6.21548 60.7145 6.47451 60.8519 7.23067C61.1392 8.80961 60.3596 10.0271 58.7609 10.1419C57.303 10.2467 55.8338 10.164 54.3027 10.164V10.1665ZM55.4564 6.26973C55.2007 7.22327 55.3573 8.10895 55.3246 9.13032C56.289 9.13032 57.1554 9.15129 58.0207 9.12539C59.5687 9.07974 59.9033 8.5567 59.4729 6.82603C58.255 5.8466 56.8275 6.53371 55.4564 6.26973ZM55.346 5.33596C56.7352 5.00413 58.0916 5.67886 59.3118 4.8129C59.4515 4.1912 59.5371 3.66696 59.109 3.139C57.9012 2.70232 56.6405 2.8281 55.346 2.87868V5.33596Z" fill="black"></path><path d="M25.7314 1.93435C27.1274 1.93435 28.4715 1.84796 29.802 1.95404C31.9145 2.12181 33.1741 3.66745 33.1932 5.93718C33.2135 8.32163 31.8672 10.0067 29.7051 10.1609C28.4117 10.2534 27.1082 10.1782 25.7314 10.1782V1.93435ZM26.937 2.95076V9.19747C28.5312 8.87798 30.309 9.8056 31.4537 7.89236C32.1297 6.76243 32.1578 5.51655 31.5416 4.37428C30.4566 2.3636 28.6292 3.07782 26.937 2.95076Z" fill="black"></path><path d="M45.6878 2.00691C46.1531 1.84531 46.4742 1.8268 46.8133 1.99456C46.8381 2.11915 46.8866 2.24868 46.8877 2.37944C46.8922 3.85476 46.8978 5.32881 46.8843 6.80413C46.8686 8.54714 46.2917 9.54139 45.0254 10.0595C43.5483 10.6639 41.5102 10.2902 40.6585 9.25027C40.3453 8.86664 40.1132 8.43241 40.0715 7.90445C40.0287 7.35552 39.9622 6.80661 39.9566 6.25645C39.9397 4.8354 39.9509 3.41311 39.9509 1.93656H41.1001C41.1001 3.51796 41.0787 5.07962 41.1058 6.64006C41.135 8.32509 41.9992 9.32553 43.3669 9.32676C44.9251 9.328 45.6675 8.47683 45.6856 6.62651C45.7002 5.11048 45.689 3.59448 45.689 2.00691H45.6878Z" fill="black"></path><path d="M68.9619 8.01617C68.5991 8.75383 68.2814 9.399 67.9513 10.0713C67.5964 10.3106 67.2257 10.149 66.7188 10.1909C68.0504 7.35744 69.3258 4.63996 70.6034 1.91998H71.9802C73.2364 4.64119 74.4949 7.36855 75.7849 10.1625H74.5377C74.1918 9.45941 73.838 8.73906 73.482 8.01497H68.9619V8.01617ZM71.3346 3.10788C70.5381 4.3661 70.0671 5.61197 69.532 6.82948H73.0009C72.4342 5.56263 71.9227 4.42037 71.3358 3.10788H71.3346Z" fill="black"></path><path d="M82.1357 1.95281C82.476 1.87756 82.752 1.81097 83.0686 1.99847V10.0646C82.7712 10.2916 82.4884 10.1719 82.1357 10.1436V1.95281Z" fill="black"></path></svg> 