<?xml version="1.0" encoding="UTF-8"?> <svg xmlns="http://www.w3.org/2000/svg" width="150" height="47" viewBox="0 0 289 47" fill="none"><path d="M201.425 43.4908H197.4C196.021 37.7941 194.643 32.1012 193.267 26.4082C193.13 26.3825 192.993 26.3532 192.859 26.3275C191.146 32.0461 189.436 37.7612 187.716 43.4981H183.638C182.433 39.1533 181.222 34.7902 180.014 30.4271C178.773 25.9393 177.525 21.4515 176.293 16.9602C175.915 15.5754 175.333 14.4617 173.707 14.5313C173.673 13.9745 173.643 13.5238 173.613 13.0146H184.518C184.541 13.3407 184.565 13.7217 184.595 14.1577C184.039 14.3921 183.534 14.6045 182.567 15.0148C183.909 21.9058 185.96 28.5952 187.998 35.3872C189.309 30.7419 190.919 26.1664 191.792 21.4259C192.167 19.389 191.012 17.015 190.571 14.8793C189.47 14.6045 188.72 14.4141 187.904 14.2126V13.0184H199.896V14.2492C199.099 14.4727 198.313 14.6961 197.058 15.0478C198.437 22.0559 199.789 28.9396 201.14 35.8195L201.652 35.8451C203.476 28.9176 205.975 22.2135 207.421 14.9526C206.266 14.6449 205.473 14.4361 204.54 14.187C204.5 13.9196 204.446 13.5313 204.373 13.011H212.199C212.222 13.3957 212.249 13.7876 212.276 14.2382C210.288 14.806 209.602 16.4948 209.047 18.3595C206.732 26.115 204.383 33.8595 202.044 41.6077C201.853 42.2378 201.639 42.857 201.425 43.5054V43.4908Z" fill="black"></path><path d="M20.7669 40.8353C20.7669 38.923 20.7669 37.0949 20.7669 35.2706C20.7602 31.4276 20.5996 31.2372 17.0395 30.9404L16.7618 29.5189H30.2594V30.8378C27.3183 31.3909 27.0573 31.7353 27.0506 34.9811C27.0473 37.1792 27.0339 39.3737 27.0205 41.5717C27.0205 41.689 26.9636 41.8025 26.89 42.0846C21.9882 43.462 16.9826 44.7149 11.8432 43.4437C3.16714 41.2969 0.135705 33.4681 1.19303 25.5111C2.24031 17.6347 7.01165 13.0737 14.3025 12.4143C18.6623 12.0186 22.8113 12.9968 26.8431 14.3743V22.8809H24.6449C24.5813 22.7526 24.4642 22.6061 24.4374 22.4449C23.6344 17.829 21.4662 15.3195 18.0199 15.0118C13.1582 14.5795 9.9561 16.5615 8.64783 21.2543C7.29606 26.0937 7.23248 30.999 9.29025 35.6992C11.435 40.6008 15.9353 42.6414 20.7669 40.8426V40.8353Z" fill="black"></path><path d="M123.543 15.5835L120.555 14.1073C120.538 13.9094 120.501 13.5138 120.458 13.0009H130.024C134.484 19.2947 138.988 25.647 143.706 32.3071C143.796 31.5598 143.89 31.1385 143.893 30.7172C143.903 26.8743 143.893 23.0313 143.903 19.1883C143.916 14.7885 143.993 15.0743 140.396 14.1658V12.9458H148.925C148.969 13.3341 149.016 13.7152 149.056 14.0633C147.189 14.879 146.255 16.3798 146.255 18.5656C146.255 26.0098 146.255 33.4501 146.255 40.8942V43.1327H143.17C137.629 35.2416 131.975 27.1966 126.323 19.1481L125.935 19.225C125.905 19.8404 125.848 20.4523 125.848 21.0678C125.841 26.497 125.845 31.9262 125.845 37.3554C125.845 41.1618 125.862 41.1837 129.288 41.8614C129.328 42.2204 129.371 42.6161 129.428 43.1289H120.153V41.8578C120.769 41.7259 121.308 41.5941 121.85 41.4988C123.044 41.2937 123.549 40.5134 123.549 39.2165C123.539 31.472 123.546 23.7275 123.546 15.5873L123.543 15.5835Z" fill="black"></path><path d="M212.248 41.2681V32.9082H214.483C214.891 34.5421 215.126 36.1832 215.708 37.6669C217.137 41.3084 222.202 42.5063 224.976 39.9639C226.79 38.3007 226.629 35.2381 224.474 33.5053C223.233 32.5089 221.767 31.8458 220.392 31.0618C219.014 30.2742 217.551 29.6367 216.246 28.7282C213.051 26.5045 211.766 23.017 212.556 19.1154C213.279 15.5545 215.855 13.089 219.542 12.5139C220.64 12.3417 221.771 12.1659 222.865 12.2758C225.237 12.5139 227.593 12.9388 229.948 13.2868V21.5478H227.921C227.7 20.4561 227.563 19.3132 227.235 18.2398C226.207 14.8584 221.376 13.3968 218.88 15.6718C217.24 17.1665 217.21 20.1887 218.987 21.5515C220.201 22.4821 221.63 23.0828 222.985 23.7825C224.34 24.4822 225.769 25.0318 227.087 25.8048C230.48 27.794 232.09 30.9959 231.708 34.7546C231.243 39.3192 229.165 42.0594 225.25 43.2757C221.192 44.5359 215.811 43.7007 212.255 41.2828L212.248 41.2681Z" fill="black"></path><path d="M30.6764 14.4067C30.6329 13.9377 30.5961 13.5386 30.5459 13.011H42.9895V14.3042C40.9998 14.8195 40.0049 16.1848 40.0049 18.4C40.0049 23.4005 39.9882 28.4048 40.0116 33.4054C40.0317 37.7356 41.7281 39.7542 45.6596 40.2194C50.5581 40.7983 53.3955 38.2264 53.5326 32.8228C53.6665 27.5804 53.5594 22.3345 53.6263 17.0884C53.6564 14.8098 52.2545 14.6119 50.625 14.4873L50.4376 13.0184H58.2772V14.4324C56.1057 14.4251 55.9049 16.0004 55.9016 17.7991C55.8949 22.9829 55.9986 28.1739 55.7912 33.3467C55.5268 39.9922 51.7258 43.8498 45.6496 43.9011C43.99 43.9158 42.3069 43.7949 40.6674 43.5201C36.1638 42.7728 33.7011 39.4721 33.5606 33.8011C33.4268 28.4378 33.497 23.0671 33.4803 17.7002C33.4703 15.1065 33.2662 14.8464 30.6764 14.4031V14.4067Z" fill="black"></path><path d="M150.792 43.0842L150.889 41.89C151.344 41.7801 151.769 41.6262 152.204 41.5859C153.803 41.4357 154.359 40.4832 154.345 38.7687C154.295 31.9913 154.325 25.214 154.325 18.4366C154.325 16.1555 153.308 14.7927 151.274 14.3482C151.257 13.9342 151.24 13.4874 151.22 13.0001H171.801V20.4186C171.406 20.4406 170.985 20.4661 170.426 20.4991C169.83 13.3627 165.026 15.3081 160.877 14.9381V26.3386C164.32 27.7563 166.97 26.4412 168.074 22.5909L169.108 22.5251V32.8192H168.054C167.234 28.4267 166.699 28.2767 160.666 28.6833C160.76 32.6215 160.315 36.5816 160.93 40.4246C166.819 42.1427 170.848 40.2415 172.547 35.0577C172.922 35.0394 173.34 35.0137 173.986 34.9808C173.511 37.798 173.059 40.4501 172.614 43.0768H150.795L150.792 43.0842Z" fill="black"></path><path d="M101.92 23.32H102.954V33.7132C102.679 33.7828 102.338 33.8707 101.816 34.0062C102.087 27.3717 97.7607 29.4123 94.3444 28.9763C94.3444 32.7497 94.2642 36.2667 94.4248 39.7652C94.4515 40.3624 95.4553 41.0364 96.1245 41.4247C96.6833 41.7471 97.4227 41.7031 98.2325 41.8533C98.2559 42.2453 98.2793 42.674 98.3094 43.1868H84.7148C84.6847 42.7582 84.6579 42.3771 84.6211 41.8935C85.0661 41.7873 85.4308 41.6554 85.8056 41.6188C87.4919 41.4539 88.0172 40.388 88.0039 38.6369C87.957 31.8595 87.9838 25.0821 87.9838 18.3048C87.9838 15.0333 87.8934 14.9124 84.9222 14.3922C84.8654 13.9965 84.8051 13.5496 84.7282 13.0001H105.343C105.456 15.407 105.567 17.7992 105.684 20.305C105.088 20.3343 104.67 20.3563 104.121 20.3819C103.686 18.3341 103.455 16.0847 101.257 15.4216C99.0455 14.7549 96.797 14.7512 94.4515 15.3667V26.8699C98.6306 28.2876 101.093 27.1445 101.926 23.3162L101.92 23.32Z" fill="black"></path><path d="M81.9716 43.1464H60.3467V41.8422C60.7515 41.7689 61.0794 41.7141 61.404 41.6481C63.4685 41.2452 63.7863 40.8715 63.7997 38.5122C63.8231 34.1197 63.8064 29.731 63.8064 25.3385C63.8064 22.8986 63.8231 20.4588 63.7964 18.0189C63.7863 17.1764 63.6759 16.3374 63.5923 15.286C62.6755 14.9563 61.8089 14.6485 60.688 14.2455L60.5575 13.011H73.8209L73.9045 14.2419C73.7037 14.3775 73.6134 14.4837 73.5164 14.4947C70.1838 14.894 70.1169 14.9747 70.1169 18.6051C70.1169 25.2543 70.1169 31.8997 70.1169 38.5489C70.1169 39.2083 70.1169 39.8677 70.1169 40.4502C74.5904 42.183 80.6901 40.8237 81.9482 34.6545C82.3731 34.6069 82.8382 34.5519 83.5108 34.4787C82.9821 37.4607 82.4802 40.2743 81.9683 43.1464H81.9716Z" fill="black"></path><path d="M288.05 4.50073C288.284 3.70943 288.833 3.1379 288.736 2.27333C288.669 1.69084 288.327 1.89236 288.05 1.93632V1.85565H288.036C287.922 1.20355 288.367 0.525817 287.789 0.0239258C287.37 0.393933 286.952 0.760199 286.537 1.13387C286.417 1.24011 286.31 1.36102 286.146 1.52222C286.106 1.30241 286.072 1.13755 286.045 0.9727C285.935 0.324271 285.724 0.181461 285.386 0.580776C284.878 1.18524 284.178 1.61394 283.944 2.48584C283.897 2.65802 283.646 2.76413 283.489 2.90334C283.489 2.69452 283.459 2.48215 283.496 2.28066C283.526 2.11947 283.687 1.98017 283.69 1.82631C283.697 1.60284 283.613 1.37934 283.566 1.15587C283.375 1.21815 283.131 1.22192 283.004 1.35747C282.054 2.36491 281.123 3.39788 280.18 4.43097C279.701 3.40154 279.735 3.43459 279.093 4.1453C277.446 5.96603 275.854 7.84898 273.836 9.22277C273.354 9.54882 273.026 10.1716 272.668 10.6882C271.865 11.8385 271.119 13.0291 269.951 13.8241C268.486 14.8205 267.007 15.6485 265.203 15.4324C264.809 15.3848 264.748 15.2345 264.581 14.8609C264.143 13.8754 263.711 12.8277 262.838 12.1793C262.108 11.6334 261.312 11.1901 260.579 10.6479C258.722 9.25946 256.792 7.96995 255.286 6.0906C254.828 5.51911 254.429 4.88905 253.978 4.31022C253.75 4.02081 253.422 3.78623 253.268 4.36872C253.074 5.10507 252.74 4.88163 252.502 4.48964C252.044 3.73497 251.669 2.91796 251.247 2.13398C250.996 1.66506 250.719 1.21097 250.244 0.386692V2.9071C250.143 2.97304 250.043 3.03891 249.943 3.10851C249.845 2.90336 249.772 2.68358 249.651 2.49675C249.31 1.97654 248.965 1.4527 248.581 0.976456C248.474 0.844572 248.213 0.829961 248.025 0.837288C247.982 0.837288 247.928 1.14119 247.912 1.30971C247.895 1.47456 247.911 1.64311 248.025 1.88856L248.002 1.91432C247.473 1.48203 247.072 1.14123 246.566 0.71261C246.566 1.37203 246.57 1.94358 246.704 2.603C246.67 2.63964 246.633 2.67996 246.6 2.71659C246.289 2.63599 245.921 1.67243 245.894 2.7275C245.887 3.02058 245.931 3.39428 245.79 3.58845C245.322 4.23321 245.606 4.64724 246.021 5.11983C246.459 5.62172 245.934 5.4385 245.763 5.53375C245.713 5.56306 245.69 5.81591 245.743 5.88185C246.041 6.24453 246.329 6.63636 246.69 6.91112C247.021 7.16024 247.44 7.27379 247.821 7.44597C247.49 7.92954 247.771 8.19698 248.109 8.45342C248.457 8.71718 248.795 8.9921 249.143 9.25587C249.487 9.51963 250.096 9.73931 250.133 10.0397C250.214 10.7065 250.709 10.7065 251.01 10.886C251.662 11.2743 252.278 11.67 252.874 12.1755C253.466 12.6774 254.269 12.8789 254.975 13.2159C255.069 13.2598 255.232 13.3186 255.236 13.3772C255.283 14.1832 255.942 14.1575 256.377 14.2893C257.692 14.696 258.96 15.1613 260.031 16.1395C260.355 16.4362 260.382 16.634 260.017 16.8758C259.438 17.2531 258.793 17.5388 258.277 18.0004C257.759 18.4656 257.35 19.0811 256.926 19.6636C256.778 19.8651 256.601 20.2387 256.678 20.3963C256.926 20.9018 257.267 21.3598 257.605 21.8067C257.836 22.1108 257.889 21.924 257.966 21.6382C258.006 21.4844 258.227 21.3304 258.391 21.2901C258.849 21.1729 259.308 21.3635 259.796 20.9862C260.121 20.7371 260.787 20.7554 261.232 21.0191C260.241 22.0705 258.665 22.0778 258 23.5724C257.933 23.7226 257.568 23.6971 257.458 23.851C257.143 24.3052 256.782 24.7777 256.655 25.3052C256.594 25.5507 257.029 25.9391 257.253 26.2798C254.998 26.8439 252.971 28.0273 251.097 29.4157C250.511 29.848 249.946 30.3646 249.474 30.9764C248.256 32.3649 247.577 33.9217 247.577 35.5629C247.577 41.4317 256.266 46.1869 266.983 46.1869C277.701 46.1869 286.39 41.4317 286.39 35.5629C286.39 33.2952 285.088 31.1961 282.877 29.4706C281.435 28.2653 279.758 27.4851 278.045 26.767C276.824 26.2542 275.599 25.7742 274.278 25.668C274.074 25.6497 273.876 25.5544 273.675 25.4957C273.863 25.4078 274.06 25.342 274.234 25.2321C274.425 25.1112 274.227 24.133 274.84 24.9133C274.89 24.9756 275.154 24.9024 275.275 24.8182C275.673 24.5361 276.175 24.3052 276.409 23.8985C276.697 23.4003 277.152 23.1769 277.483 22.7739C277.875 22.2977 277.741 21.8361 277.199 21.6382C275.385 20.9715 273.535 20.4623 271.283 19.9641C272.086 19.8432 272.595 19.9201 272.899 19.682C273.327 19.345 273.772 19.3706 274.151 19.4768C274.85 19.6747 274.465 18.6965 275.02 18.6819C275.69 18.6672 276.319 18.3777 276.911 17.9454C277.507 17.5095 278.172 17.1286 278.858 16.9271C279.293 16.7989 279.367 16.6522 279.377 16.2382C279.38 16.0807 279.591 15.806 279.708 15.8023C280.337 15.7913 280.742 15.2528 281.277 15.0769C281.625 14.9634 281.736 14.8535 281.699 14.4945C281.649 13.9816 281.983 13.7875 282.328 13.5787C283.526 12.846 283.523 12.8386 284.479 11.4575C284.58 11.3146 284.697 11.1682 284.834 11.0729C285.229 10.7982 285.614 10.4684 286.049 10.3109C286.44 10.168 286.447 9.95912 286.306 9.67337C286.216 9.48654 285.975 9.39872 286.243 9.14228C286.581 8.82356 286.902 8.47907 287.183 8.10174C287.297 7.95154 287.387 7.57434 287.32 7.5084C287.046 7.23364 287.079 7.04669 287.354 6.84154C288.013 6.35064 288.167 5.50803 288.531 4.81198C288.692 4.50791 288.672 4.49707 288.053 4.50806L288.05 4.50073ZM260.947 24.9353C260.947 24.9353 261.118 24.2026 261.7 24.2026C262.282 24.2026 261.282 23.1036 261.951 23.1036C262.62 23.1036 264.628 24.569 265.966 23.8363C267.305 23.1036 267.974 22.0046 267.974 22.0046C267.974 22.0046 269.312 24.569 270.316 24.569C270.316 24.569 262.955 24.569 260.947 24.9353Z" fill="black"></path></svg> 