<?xml version="1.0" encoding="UTF-8"?> <svg xmlns="http://www.w3.org/2000/svg" width="150" height="47" viewBox="0 0 163 47" fill="none"><path d="M72.6361 0.0234375C72.6341 2.31469 72.6322 4.606 72.6284 6.89725C72.6284 7.09621 72.6284 7.29304 72.6284 7.52761C72.7413 7.47525 72.7776 7.38943 72.8254 7.32031C73.7092 6.09929 74.8645 5.42907 76.2762 5.25733C77.0663 5.16099 77.8505 5.1798 78.6253 5.37668C80.2818 5.79974 81.2306 6.99141 81.638 8.75069C81.8217 9.54236 81.9078 10.3529 81.9097 11.1698C81.9116 14.4642 81.9116 17.7586 81.9135 21.0552C81.9135 21.3903 81.9116 21.3589 81.6285 21.3589C80.0312 21.3589 78.434 21.3589 76.8367 21.3589C76.7832 21.3589 76.7296 21.3568 76.6741 21.3589C76.5804 21.361 76.5364 21.3107 76.5383 21.2102C76.5383 21.1159 76.5383 21.0217 76.5383 20.9274C76.5383 18.2236 76.5383 15.5177 76.5383 12.8139C76.5383 12.2107 76.5154 11.6095 76.3336 11.0315C76.1251 10.3676 75.6794 9.99065 75.0348 9.94667C74.6541 9.92154 74.2792 9.94663 73.9215 10.11C73.1659 10.4577 72.8273 11.1278 72.7011 11.974C72.6361 12.4075 72.6322 12.8432 72.6322 13.2809C72.6322 15.8193 72.6322 18.3597 72.6322 20.8981C72.6322 21.3484 72.6934 21.3211 72.2573 21.3211C70.7136 21.3211 69.1699 21.3211 67.6281 21.3211C67.5746 21.3211 67.5191 21.317 67.4656 21.3211C67.3221 21.3358 67.2322 21.2919 67.2571 21.1097C67.2628 21.0636 67.2571 21.0154 67.2571 20.9672C67.2571 14.0704 67.2571 7.17363 67.2571 0.276849C67.2571 0.195168 67.2609 0.111459 67.2628 0.0297779H72.6399L72.6361 0.0234375Z" fill="black"></path><path d="M162.543 45.8139C160.871 45.8139 159.199 45.8096 157.527 45.8075C157.143 45.8075 157.177 45.8432 157.177 45.4306C157.177 38.5862 157.177 31.7417 157.177 24.8973C157.177 24.8387 157.181 24.7779 157.177 24.7213C157.164 24.56 157.239 24.5224 157.371 24.5224C159.075 24.5266 160.779 24.5265 162.482 24.5286C162.503 24.5286 162.522 24.5434 162.543 24.5517V45.8159V45.8139Z" fill="black"></path><path d="M30.68 0.108354C31.1009 0.108354 31.5217 0.102014 31.9406 0.102014C35.2939 0.102014 38.6452 0.102014 41.9985 0.102014C42.1286 0.102014 42.2568 0.0978167 42.3868 0.0936279C42.45 0.215102 42.4213 0.347113 42.4213 0.47487C42.4213 15.4622 42.4213 30.4475 42.4213 45.4348C42.4213 45.483 42.4174 45.529 42.4213 45.5772C42.4423 45.7699 42.3562 45.8181 42.1936 45.8118C41.9239 45.7992 41.6542 45.8076 41.3845 45.8076C37.9528 45.8076 34.5211 45.8076 31.0894 45.8076C30.5997 45.8076 30.6705 45.8767 30.6686 45.3322C30.6667 43.2545 30.6686 41.1748 30.6686 39.0972C30.6686 39.0155 30.6724 38.9318 30.6686 38.8501C30.6609 38.7161 30.7107 38.6532 30.8369 38.6615C30.9115 38.6678 30.988 38.6615 31.0626 38.6615C32.5527 38.6615 34.041 38.6615 35.5311 38.6615C35.6057 38.6615 35.6822 38.6595 35.7568 38.6615C35.8467 38.6636 35.9003 38.6281 35.8984 38.5192C35.8965 38.448 35.8984 38.3767 35.8984 38.3076C35.8984 28.0326 35.8984 17.7597 35.8984 7.48469C35.8984 7.41348 35.8965 7.34232 35.8945 7.27321C35.8123 7.10147 35.6669 7.18516 35.554 7.18516C33.93 7.17678 32.306 7.17478 30.68 7.17268C30.6762 6.77266 30.6705 6.37263 30.6705 5.97261C30.6705 4.14841 30.6705 2.32413 30.6705 0.499925C30.6705 0.370073 30.6781 0.242296 30.682 0.112445L30.68 0.108354Z" fill="black"></path><path d="M0.678834 45.8034C0.671183 45.6631 0.65588 45.5207 0.65588 45.3803C0.65588 30.4286 0.65588 15.479 0.65588 0.527229C0.65588 0.0601833 0.623361 0.104161 1.03463 0.104161C4.671 0.104161 8.30929 0.104161 11.9457 0.104161C12.0757 0.104161 12.2039 0.0978167 12.334 0.0936279C12.3875 0.164837 12.3722 0.250735 12.3722 0.332416C12.3722 2.57549 12.3722 4.8165 12.3741 7.05958C12.3741 7.09518 12.3684 7.13079 12.3665 7.1643C12.1197 7.16849 11.873 7.17892 11.6262 7.17892C10.2413 7.17892 8.85637 7.17892 7.46953 7.18311C7.36624 7.18311 7.23042 7.10565 7.15391 7.26482C7.152 7.39467 7.14817 7.5245 7.14817 7.65435C7.14817 17.8351 7.14817 28.0158 7.14817 38.1987C7.14817 38.5087 7.291 38.6637 7.57665 38.6637C9.04383 38.6637 10.5129 38.6637 11.9801 38.6637C12.0547 38.6637 12.1312 38.6679 12.2058 38.6637C12.334 38.6532 12.3799 38.7202 12.3741 38.8522C12.3703 38.9234 12.3741 38.9946 12.3741 39.0638C12.3741 41.177 12.3741 43.2923 12.3741 45.4055C12.3741 45.4641 12.3703 45.5249 12.3741 45.5835C12.3875 45.7469 12.334 45.8327 12.1733 45.8118C12.1312 45.8055 12.0872 45.8118 12.0432 45.8118C8.31885 45.8118 4.5964 45.8118 0.872034 45.8118C0.806997 45.8118 0.741959 45.8076 0.678834 45.8055V45.8034Z" fill="black"></path><path d="M67.232 37.9474C67.2913 37.761 67.2702 37.6332 67.2702 37.5076C67.2702 33.3272 67.2702 29.1447 67.2702 24.9643C67.2702 24.4868 67.209 24.5224 67.6623 24.5224C69.1946 24.5224 70.7287 24.5224 72.2609 24.5224C72.3355 24.5224 72.412 24.5266 72.4866 24.5224C72.5918 24.5182 72.6492 24.558 72.6454 24.6837C72.6416 24.7654 72.6454 24.8491 72.6454 24.9308C72.6454 31.7584 72.6454 38.584 72.6454 45.4117C72.6454 45.8683 72.6779 45.8097 72.2819 45.8097C70.2103 45.8097 68.1367 45.8034 66.0651 45.8181C65.7954 45.8181 65.673 45.7154 65.5582 45.4662C63.6243 41.2607 61.6827 37.0593 59.7431 32.858C59.6857 32.7323 59.6264 32.6088 59.5479 32.4413C59.4752 32.5984 59.502 32.7219 59.502 32.8392C59.502 37.0091 59.502 41.179 59.5001 45.3468C59.5001 45.8935 59.5556 45.8097 59.0678 45.8097C57.5452 45.8139 56.0244 45.8097 54.5018 45.8097C54.4272 45.8097 54.3507 45.8055 54.2761 45.8097C54.1632 45.8139 54.1211 45.7531 54.1249 45.6358C54.1269 45.5646 54.1249 45.4934 54.1249 45.4243C54.1249 38.5861 54.1249 31.7459 54.1249 24.9078C54.1249 24.5098 54.0886 24.5224 54.4731 24.5224C56.5352 24.5224 58.5972 24.5287 60.6574 24.514C60.9329 24.514 61.0744 24.5999 61.1987 24.8722C63.1441 29.1112 65.101 33.3419 67.056 37.5767C67.1038 37.6814 67.1535 37.7861 67.23 37.9474H67.232Z" fill="black"></path><path d="M15.0708 23.0053C15.3194 23.2985 15.57 23.5875 15.8149 23.8828C16.6049 24.8358 17.393 25.7909 18.183 26.7438C19.5373 28.3816 20.8897 30.0172 22.2441 31.655C22.9384 32.4949 23.6366 33.3327 24.3348 34.1704C25.4883 35.559 26.6398 36.9497 27.8009 38.334C27.9941 38.5644 28.0764 38.8031 28.0745 39.1215C28.0611 41.1886 28.0668 43.2558 28.0668 45.323C28.0668 45.3816 28.0668 45.4403 28.0668 45.501C28.063 45.8068 28.063 45.811 27.778 45.813C23.6118 45.813 19.4455 45.813 15.2793 45.813C15.0038 45.813 15.0019 45.8089 15 45.4905C15 45.302 15 45.1135 15 44.9229C15 37.7665 15 30.6079 15 23.4514V23.0367L15.0727 23.0053H15.0708Z" fill="black"></path><path d="M28.0253 22.8646C27.5853 22.341 27.176 21.8572 26.7685 21.3692C26.2157 20.7053 25.6686 20.0393 25.1177 19.3733C23.6831 17.6412 22.2465 15.9113 20.8099 14.1813C20.127 13.3603 19.446 12.5393 18.7612 11.7183C17.5695 10.2878 16.3778 8.85528 15.1822 7.42901C15.0617 7.2845 15.0254 7.13579 15.0254 6.94939C15.0292 4.77543 15.0254 2.60149 15.0273 0.429619C15.0273 0.0861415 15.0311 0.08192 15.3544 0.08192C18.1395 0.08192 20.9247 0.08192 23.7098 0.08192C25.0163 0.08192 26.3228 0.08192 27.6274 0.08192C27.7039 0.08192 27.7785 0.0861087 27.8531 0.08192C28.0004 0.0714481 28.0788 0.130103 28.0654 0.303936C28.0597 0.385617 28.0654 0.469429 28.0654 0.551109C28.0654 7.85211 28.0654 15.151 28.0654 22.452C28.0654 22.5672 28.0827 22.6845 28.0253 22.8646Z" fill="black"></path><path d="M156.227 45.771C156.129 45.8359 156.018 45.8046 155.913 45.8046C154.455 45.8067 153 45.8046 151.542 45.8046C151.498 45.8046 151.456 45.8004 151.412 45.8046C151.253 45.8255 151.207 45.7459 151.209 45.5804C151.217 45.0736 151.211 44.5646 151.211 44.0578C151.211 44.0012 151.205 43.9468 151.204 43.9007C151.148 43.863 151.129 43.9029 151.114 43.928C150.419 44.9836 149.471 45.6098 148.329 45.9093C147.037 46.2486 145.746 46.3176 144.463 45.882C143.409 45.5238 142.511 44.9186 141.842 43.9196C140.777 42.33 140.807 39.402 142.812 37.9275C143.608 37.3411 144.484 36.9516 145.4 36.6647C146.429 36.3421 147.487 36.1809 148.545 36.028C149.197 35.9337 149.851 35.8625 150.509 35.8206C150.657 35.8122 150.729 35.7662 150.718 35.5945C150.702 35.3473 150.72 35.096 150.681 34.8531C150.57 34.1494 150.236 33.632 149.585 33.4184C148.918 33.1985 148.244 33.1859 147.577 33.41C146.863 33.6509 146.395 34.164 146.215 34.9682C146.201 35.0248 146.182 35.0813 146.175 35.1399C146.161 35.2509 146.112 35.3075 146.004 35.3012C145.939 35.297 145.874 35.3012 145.809 35.3012C144.503 35.3012 143.198 35.3012 141.892 35.3012C141.871 35.3012 141.848 35.3012 141.827 35.3012C141.633 35.2984 141.552 35.1916 141.584 34.9808C141.85 33.1692 142.724 31.7995 144.124 30.8172C145.046 30.17 146.066 29.7888 147.139 29.6045C148.788 29.3218 150.431 29.37 152.047 29.8538C154.325 30.5365 155.569 32.2267 155.942 34.7358C156.022 35.274 156.045 35.8165 156.034 36.3589C156.001 38.0595 155.993 39.7601 156.003 41.4608C156.011 42.8305 156.102 44.196 156.231 45.5594C156.236 45.6285 156.257 45.6977 156.225 45.771H156.227ZM150.899 39.3664C150.899 39.224 150.892 39.0837 150.901 38.9413C150.913 38.7633 150.846 38.7193 150.693 38.7402C150.308 38.7926 149.92 38.8177 149.537 38.8742C148.887 38.9685 148.241 39.0963 147.623 39.3518C147.359 39.4607 147.112 39.6031 146.913 39.8272C146.467 40.3236 146.435 41.0901 146.831 41.6304C147.056 41.9383 147.351 42.1185 147.699 42.196C148.248 42.3174 148.793 42.286 149.329 42.1226C150.088 41.8923 150.569 41.3582 150.767 40.5183C150.857 40.1392 150.898 39.756 150.899 39.3644V39.3664Z" fill="black"></path><path d="M130.821 31.9485C130.874 31.8794 130.911 31.8375 130.941 31.7915C131.852 30.5118 133.084 29.8878 134.528 29.7244C135.228 29.6448 135.932 29.6595 136.623 29.8207C138.254 30.2019 139.283 31.2993 139.733 33.0461C139.957 33.9131 140.052 34.8075 140.054 35.706C140.062 38.9774 140.058 42.2508 140.058 45.5222C140.058 45.8259 140.056 45.8301 139.775 45.8301C138.178 45.8301 136.581 45.8301 134.981 45.8301C134.654 45.8301 134.681 45.8448 134.681 45.5076C134.681 42.7556 134.681 40.0036 134.681 37.2516C134.681 36.6735 134.658 36.0934 134.49 35.5363C134.268 34.7928 133.818 34.42 133.101 34.3886C132.831 34.376 132.562 34.3823 132.3 34.4681C131.668 34.6713 131.221 35.0901 130.993 35.775C130.886 36.0996 130.821 36.4327 130.802 36.7761C130.783 37.1301 130.769 37.484 130.767 37.838C130.765 40.3659 130.767 42.8938 130.767 45.4217C130.767 45.8783 130.767 45.805 130.423 45.805C128.858 45.805 127.292 45.805 125.727 45.805C125.673 45.805 125.618 45.8008 125.564 45.805C125.444 45.8134 125.381 45.7631 125.388 45.6227C125.392 45.5411 125.388 45.4574 125.388 45.3757C125.388 40.4036 125.388 35.4295 125.388 30.4574C125.388 29.9401 125.367 30.0196 125.782 30.0196C127.315 30.0175 128.849 30.0196 130.381 30.0196C130.434 30.0196 130.49 30.0259 130.544 30.0196C130.71 29.9945 130.773 30.0678 130.769 30.2542C130.76 30.692 130.763 31.1276 130.769 31.5654C130.769 31.6785 130.741 31.7978 130.821 31.9485Z" fill="black"></path><path d="M83.844 43.8874C83.2988 44.6225 82.681 45.2026 81.9062 45.5587C80.7183 46.1053 79.475 46.2728 78.1972 46.1325C77.3134 46.0361 76.489 45.7304 75.7391 45.2131C74.7349 44.522 74.0367 43.5648 73.8473 42.2621C73.5871 40.4818 74.0635 38.9907 75.4484 37.9268C76.2327 37.3236 77.1183 36.9487 78.0346 36.6618C79.0541 36.3434 80.1005 36.1821 81.1487 36.0292C81.8125 35.9329 82.4782 35.8638 83.1458 35.8156C83.2452 35.8093 83.3428 35.8157 83.3447 35.6565C83.3485 35.1078 83.3045 34.5715 83.0195 34.094C82.8435 33.7987 82.6121 33.583 82.3022 33.4636C81.5734 33.1851 80.8389 33.1683 80.1101 33.4301C79.3985 33.6856 78.9508 34.2322 78.7997 35.0407C78.7615 35.2501 78.6869 35.3045 78.5013 35.3025C77.1413 35.2941 75.7812 35.2983 74.4212 35.2983C74.1591 35.2983 74.1476 35.292 74.1878 34.9967C74.3848 33.5181 75.0199 32.3076 76.0605 31.3462C77.0074 30.4729 78.1168 29.9639 79.3143 29.6958C81.1966 29.2748 83.075 29.321 84.9152 29.9409C86.9581 30.63 88.1001 32.2174 88.5057 34.4773C88.6147 35.0805 88.6396 35.6941 88.6376 36.3099C88.6319 38.0691 88.5726 39.8284 88.6051 41.5898C88.6281 42.8527 88.6969 44.1135 88.8155 45.3722C88.8653 45.8979 88.8595 45.7995 88.477 45.8016C87.0519 45.8058 85.6268 45.8016 84.2017 45.8016C84.1481 45.8016 84.0927 45.7954 84.0391 45.8016C83.8746 45.8226 83.8402 45.7325 83.8421 45.5712C83.8497 45.123 83.844 44.6727 83.844 44.2245C83.844 44.1114 83.844 43.9963 83.844 43.8832V43.8874ZM83.5284 39.3886C83.5284 39.2944 83.5284 39.2001 83.5284 39.1059C83.5284 39.0703 83.5284 39.0347 83.5284 38.9991C83.5245 38.7206 83.5226 38.7184 83.2816 38.7436C82.9067 38.7833 82.5298 38.8148 82.1568 38.8692C81.5064 38.9635 80.8599 39.087 80.2439 39.3509C80.0125 39.4493 79.7906 39.5708 79.605 39.7551C79.0809 40.2725 79.0408 41.1081 79.5056 41.6861C79.7294 41.9626 80.0106 42.1218 80.3358 42.193C80.8848 42.3145 81.4299 42.281 81.9655 42.1155C82.7249 41.883 83.2032 41.3427 83.3983 40.5028C83.4844 40.1342 83.5303 39.7635 83.5303 39.3844L83.5284 39.3886Z" fill="black"></path><path d="M88.2676 14.7938C88.2963 15.1038 88.3594 15.3781 88.4589 15.6399C88.8529 16.6746 89.5817 17.2274 90.5783 17.3698C91.2421 17.4641 91.8906 17.3929 92.5123 17.0976C92.9178 16.9049 93.264 16.6327 93.4936 16.2117C93.5682 16.0735 93.6523 16.0169 93.8015 16.0169C95.3548 16.0211 96.9099 16.0211 98.4632 16.0211C98.5053 16.0211 98.5474 16.0336 98.5914 16.0399C98.6181 16.1865 98.5493 16.2997 98.5091 16.4169C97.7669 18.5218 96.3954 19.971 94.5552 20.9219C93.5261 21.4539 92.4357 21.6927 91.2976 21.722C90.1001 21.7555 88.9294 21.6173 87.7989 21.1607C85.3275 20.1638 83.8335 18.2264 83.2692 15.4367C82.9441 13.8241 82.9517 12.1925 83.3974 10.6029C84.0554 8.25301 85.4384 6.59635 87.5043 5.62037C88.7401 5.03604 90.0351 4.86849 91.3645 4.94389C91.946 4.97531 92.5256 5.05283 93.088 5.23504C95.7221 6.08954 97.4302 7.97661 98.2719 10.8229C98.6181 11.9936 98.7329 13.1957 98.6832 14.4209C98.6679 14.7979 98.6755 14.7561 98.3503 14.7561C95.1233 14.7561 91.8963 14.7561 88.6693 14.7561C88.5411 14.7561 88.411 14.7309 88.2676 14.7875V14.7938ZM88.3785 11.4804C88.4608 11.537 88.5392 11.5203 88.6138 11.5203C90.2952 11.5203 91.9766 11.5203 93.6561 11.5203C93.7097 11.5203 93.7633 11.5203 93.8168 11.5203C93.9182 11.5203 93.9469 11.4595 93.9297 11.3611C93.8608 10.9401 93.7652 10.5317 93.528 10.1798C93.0019 9.40282 92.2636 9.05103 91.4143 8.99029C90.2149 8.90442 89.2757 9.42383 88.6502 10.5653C88.4971 10.8459 88.3996 11.1579 88.3766 11.4826L88.3785 11.4804Z" fill="black"></path><path d="M47.6511 0.106671C47.7812 0.106671 47.9094 0.102478 48.0394 0.102478C53.8986 0.102478 59.7558 0.102478 65.6149 0.102478C65.745 0.102478 65.8732 0.10872 66.0032 0.112909C66.0071 1.15172 66.0128 2.19056 66.0128 3.23146C66.0128 3.90376 66.009 4.57807 66.0051 5.25037C65.877 5.25665 65.7469 5.26714 65.6187 5.26714C63.6944 5.26714 61.77 5.26715 59.8457 5.27133C59.7271 5.27133 59.5875 5.20219 59.4918 5.3467C59.488 5.48912 59.4822 5.6295 59.4822 5.77192C59.4822 10.7796 59.4822 15.7872 59.4822 20.7969C59.4822 20.8786 59.4822 20.9624 59.4822 21.0441C59.4765 21.3101 59.4765 21.3163 59.2297 21.3163C57.6 21.3163 55.9702 21.3163 54.3404 21.3163C54.1128 21.3163 54.1128 21.3101 54.1071 21.0609C54.1071 20.9792 54.1071 20.8954 54.1071 20.8137C54.1071 15.7935 54.1071 10.7733 54.1071 5.7531C54.1071 5.25883 54.174 5.30907 53.6882 5.30907C51.8308 5.30907 49.9753 5.30907 48.1179 5.30907C48.0643 5.30907 48.0107 5.30907 47.9553 5.30907C47.6396 5.30697 47.6396 5.307 47.6396 4.96352C47.6396 3.42834 47.6396 1.89311 47.6396 0.357935C47.6396 0.276254 47.6473 0.192442 47.6511 0.110761V0.106671Z" fill="black"></path><path d="M116.935 46.1595C116.506 46.1595 116.08 46.1595 115.651 46.1595C114.372 46.0464 113.13 45.7679 111.996 45.0831C109.934 43.839 108.761 41.9143 108.453 39.3717C108.283 37.9685 108.31 36.561 108.681 35.1954C109.32 32.8435 110.682 31.1763 112.776 30.282C114.687 29.4652 116.654 29.3207 118.651 29.8674C119.839 30.192 120.925 30.7554 121.843 31.656C123.121 32.9063 123.886 34.4666 124.139 36.3243C124.334 37.7674 124.303 39.2041 123.903 40.599C123.119 43.3301 121.401 45.0181 118.913 45.8035C118.268 46.0067 117.606 46.1072 116.939 46.1595H116.935ZM113.918 37.9223C113.932 38.1925 113.937 38.5486 113.972 38.9005C114.023 39.4408 114.133 39.9707 114.347 40.4671C114.638 41.1415 115.112 41.5582 115.779 41.7237C116.08 41.797 116.38 41.8074 116.68 41.7655C117.438 41.6587 118.014 41.2545 118.343 40.4795C118.467 40.1905 118.561 39.889 118.624 39.579C118.804 38.6931 118.796 37.7967 118.729 36.9024C118.687 36.3495 118.584 35.807 118.368 35.296C118.077 34.6111 117.595 34.165 116.931 33.9807C115.728 33.6435 114.538 34.3934 114.163 35.7066C113.966 36.4019 113.941 37.1202 113.918 37.9245V37.9223Z" fill="black"></path><path d="M91.58 38.08C91.58 36.7689 91.58 35.4578 91.58 34.1467C91.58 34.0525 91.58 33.9583 91.5781 33.8641C91.5781 33.7761 91.5321 33.7383 91.4556 33.7362C91.381 33.7362 91.3045 33.7342 91.2299 33.7342C90.4743 33.7342 89.7187 33.7342 88.9632 33.7342C88.7011 33.7342 88.6973 33.73 88.6973 33.443C88.6973 32.3917 88.6973 31.3403 88.6973 30.2889C88.6973 30.025 88.703 30.0209 88.9517 30.0209C89.7398 30.0209 90.5279 30.0209 91.316 30.0209C91.5781 30.0209 91.5819 30.0167 91.5819 29.7319C91.5819 28.5276 91.5819 27.3233 91.5819 26.1169C91.5819 26.0352 91.5857 25.9514 91.5819 25.8697C91.5742 25.7378 91.6182 25.6688 91.7483 25.6792C91.8019 25.6834 91.8554 25.6792 91.9109 25.6792C93.4871 25.6792 95.0633 25.6792 96.6395 25.6792C96.6835 25.6792 96.7256 25.6834 96.7696 25.6792C96.9341 25.6562 96.98 25.7483 96.9666 25.9075C96.9609 25.9787 96.9666 26.05 96.9666 26.1191C96.9666 27.2877 96.9666 28.4585 96.9666 29.6271C96.9666 29.7088 96.9704 29.7925 96.9666 29.8742C96.9647 29.9789 97.0125 30.0208 97.1043 30.0187C97.1789 30.0187 97.2555 30.0187 97.3301 30.0187C98.3439 30.0187 99.3596 30.0187 100.373 30.0187C100.622 30.0187 100.626 30.0229 100.626 30.2889C100.628 31.3528 100.628 32.4147 100.626 33.4786C100.626 33.7258 100.62 33.7321 100.391 33.7342C99.3864 33.7363 98.3821 33.7342 97.3798 33.7342C97.2937 33.7342 97.2076 33.7384 97.1216 33.7342C97.0144 33.73 96.9609 33.7782 96.9647 33.8997C96.9666 33.9709 96.9647 34.042 96.9647 34.1111C96.9647 36.2725 96.9647 38.4339 96.9647 40.5953C96.9647 40.7712 96.9724 40.9493 96.9915 41.1253C97.0412 41.5441 97.2 41.7326 97.5787 41.8143C97.726 41.8457 97.8791 41.8478 98.0302 41.8478C98.8068 41.8519 99.5853 41.8478 100.362 41.8499C100.624 41.8499 100.626 41.8541 100.628 42.141C100.628 43.2741 100.628 44.4092 100.628 45.5423C100.628 45.8229 100.624 45.8271 100.358 45.8271C98.7934 45.8229 97.2287 45.8229 95.6639 45.8041C95.0059 45.7957 94.3517 45.7203 93.7109 45.5381C92.6665 45.2428 92.0505 44.5097 91.798 43.3746C91.6297 42.6227 91.5972 41.8562 91.5895 41.0897C91.58 40.0865 91.5876 39.0811 91.5876 38.0779L91.58 38.08Z" fill="black"></path><path d="M107.239 37.9504C107.239 40.4406 107.239 42.9309 107.239 45.4232C107.239 45.8609 107.264 45.8086 106.901 45.8107C105.336 45.8107 103.773 45.8107 102.208 45.8107C102.134 45.8107 102.057 45.8107 101.983 45.8107C101.904 45.8086 101.868 45.7583 101.866 45.6766C101.866 45.5949 101.866 45.5111 101.866 45.4294C101.866 40.4239 101.866 35.4204 101.866 30.4148C101.866 29.9939 101.833 30.0274 102.208 30.0274C103.773 30.0274 105.336 30.0274 106.901 30.0274C106.966 30.0274 107.031 30.0316 107.094 30.0274C107.209 30.0211 107.245 30.0881 107.241 30.2012C107.239 30.2955 107.241 30.3897 107.241 30.484C107.241 32.9742 107.241 35.4644 107.241 37.9567L107.239 37.9504Z" fill="black"></path><path d="M104.569 24.515C105.367 24.515 106.164 24.515 106.962 24.515C107.232 24.515 107.236 24.5191 107.236 24.7956C107.236 25.9998 107.236 27.2021 107.236 28.4063C107.236 28.6954 107.232 28.6995 106.972 28.7016C105.355 28.7016 103.737 28.7016 102.12 28.7016C101.866 28.7016 101.862 28.6953 101.86 28.4356C101.86 27.2208 101.86 26.0062 101.86 24.7893C101.86 24.5213 101.864 24.5171 102.109 24.515C102.928 24.5129 103.748 24.515 104.567 24.515H104.569Z" fill="black"></path></svg> 