<?xml version="1.0" encoding="UTF-8"?> <svg xmlns="http://www.w3.org/2000/svg" width="127" height="47" viewBox="0 0 127 47" fill="none"><path d="M54.0237 46.4138C54.0373 45.9305 53.8453 45.4937 53.7577 45.0336C53.6549 44.4891 53.5128 43.9529 53.3919 43.4117C53.2498 42.7829 53.1561 42.1358 52.9535 41.5334C52.8281 41.1593 52.8281 40.7572 52.6618 40.3964C52.5832 40.2243 52.5862 40.0092 52.5484 39.8139C52.5076 39.6021 52.5182 39.3439 52.4079 39.1916C52.2764 39.0096 52.4487 38.7514 52.2356 38.6289C52.1796 37.9223 51.9469 37.2586 51.8017 36.5735C51.6944 36.0704 51.5916 35.564 51.4284 35.0725C51.2606 34.5694 51.1971 34.0249 51.0717 33.5019C50.9009 32.7903 50.7482 32.0754 50.5729 31.3654C50.4489 30.864 50.3507 30.3509 50.2313 29.8445C50.1119 29.3398 50.0227 28.8267 49.8836 28.3286C49.7295 27.7775 49.6342 27.2132 49.4921 26.6604C49.3138 25.9703 49.1808 25.2669 48.9979 24.5768C48.8664 24.077 48.7439 23.5706 48.6563 23.0593C48.5641 22.528 48.3978 22.0199 48.2844 21.4953C48.1711 20.9724 48.029 20.456 47.9141 19.9331C47.7887 19.3571 47.6859 18.7746 47.509 18.2136C47.4728 18.0961 47.4924 17.9587 47.4864 17.8131H52.296C52.4532 18.3178 52.5258 18.8574 52.6301 19.3787C52.7465 19.9612 52.8553 20.5503 52.9777 21.1312C53.1425 21.9206 53.2301 22.7299 53.4856 23.4962C53.4508 23.9827 53.6534 24.4262 53.7274 24.8913C53.7954 25.3083 53.9013 25.7353 53.9814 26.1507C54.0705 26.6091 54.1733 27.0741 54.2534 27.5375C54.3487 28.1002 54.4605 28.6662 54.6011 29.2206C54.7054 29.6377 54.79 30.0613 54.8656 30.485C54.9775 31.1056 55.1014 31.7212 55.2374 32.3368C55.3266 32.739 55.4113 33.1445 55.4838 33.5483C55.5443 33.8875 55.6561 34.2119 55.7 34.5479C55.7423 34.8739 55.8617 35.1867 55.8889 35.4978C55.9312 35.9761 56.1171 36.413 56.1428 36.8929C56.1564 37.1511 56.2743 37.4026 56.3801 37.7816C56.6295 36.7506 56.885 35.8652 57.0996 34.9649C57.2221 34.4502 57.3914 33.9438 57.5138 33.4241C57.5622 33.2189 57.6528 33.0253 57.7118 32.8218C57.7662 32.6331 57.7964 32.4378 57.8478 32.2492C57.9022 32.0439 57.9778 31.8453 58.0277 31.6385C58.0746 31.4465 58.0685 31.233 58.1411 31.0559C58.33 30.5958 58.4252 30.1077 58.5567 29.6277C58.7336 28.9773 58.9044 28.3236 59.0858 27.6749C59.2898 26.9417 59.4909 26.2053 59.6904 25.4705C59.834 24.9409 59.9866 24.4097 60.1212 23.8751C60.2512 23.3588 60.4023 22.8491 60.5399 22.3377C60.7107 21.7039 60.8981 21.0717 61.0402 20.4295C61.2095 19.6616 61.4861 18.9285 61.6176 18.1507C61.6402 18.0133 61.7037 17.8859 61.7627 17.7105C63.5387 17.7105 65.3556 17.7105 67.1724 17.7105C67.2344 18.0448 67.3084 18.3741 67.4022 18.7018C67.573 19.3009 67.6712 19.9248 67.839 20.5255C67.972 21.0055 68.0642 21.4953 68.2033 21.9736C68.3408 22.4502 68.4421 22.9418 68.5675 23.425C68.7021 23.9413 68.8003 24.4676 68.9515 24.9806C69.1419 25.6294 69.2523 26.3046 69.417 26.9632C69.5334 27.4316 69.6589 27.8933 69.7556 28.3699C69.8674 28.9277 70.0337 29.4754 70.1682 30.0282C70.2816 30.4916 70.4116 30.955 70.5204 31.4217C70.6413 31.943 70.7759 32.4626 70.8998 32.9823C71.0374 33.5532 71.1658 34.1291 71.32 34.6951C71.4334 35.1072 71.5211 35.5259 71.6253 35.9396C71.7689 36.5073 71.9201 37.0733 72.0939 37.7419C72.2027 37.3629 72.298 37.0849 72.3599 36.7986C72.5655 35.8536 72.7469 34.9053 72.9812 33.967C73.155 33.2735 73.2789 32.5603 73.4256 31.8569C73.5707 31.1585 73.749 30.4668 73.9047 29.77C73.9939 29.3679 74.0574 28.9575 74.1541 28.5537C74.2871 27.9976 74.4217 27.4415 74.538 26.8838C74.6212 26.48 74.6907 26.0696 74.7874 25.6675C74.922 25.113 75.0535 24.5553 75.1699 23.9976C75.2545 23.5938 75.3225 23.1834 75.4208 22.7812C75.5553 22.2268 75.6792 21.6675 75.8017 21.1114C75.8909 20.7092 75.9574 20.2971 76.0526 19.895C76.1856 19.3389 76.2778 18.7729 76.4441 18.2268C76.4909 18.0712 76.4743 17.8942 76.4879 17.7039H81.4397C81.1268 18.6323 80.9665 19.5805 80.7187 20.504C80.5448 21.1561 80.3907 21.823 80.2501 22.4899C80.1488 22.9715 80.0143 23.4565 79.8843 23.9347C79.7483 24.4329 79.6682 24.9509 79.5246 25.4457C79.3129 26.1821 79.1739 26.9384 78.9834 27.6815C78.8912 28.0423 78.7627 28.3931 78.6902 28.7589C78.5738 29.3563 78.4181 29.9421 78.2594 30.5263C78.1476 30.9384 78.0508 31.3571 77.9616 31.7725C77.8483 32.2971 77.6881 32.8085 77.5928 33.3414C77.4961 33.8842 77.3313 34.4138 77.1998 34.95C77.085 35.4167 76.9565 35.8784 76.8567 36.3517C76.7418 36.8929 76.6134 37.4357 76.4562 37.9587C76.2294 38.7067 76.1282 39.4895 75.8712 40.2293C75.7578 40.5553 75.711 40.9243 75.6294 41.2735C75.4888 41.8825 75.3845 42.5065 75.194 43.0973C75.0671 43.4895 75.0157 43.8966 74.8978 44.2889C74.7451 44.7986 74.6469 45.3281 74.5078 45.8445C74.4564 46.0331 74.5048 46.2532 74.3642 46.4121H69.8327C69.8327 46.336 69.8508 46.2516 69.8297 46.1821C69.6453 45.5847 69.5425 44.9657 69.4034 44.3567C69.2916 43.8685 69.2205 43.3604 69.0739 42.8921C68.7308 41.8048 68.5524 40.6728 68.2652 39.5706C68.0854 38.8822 67.9191 38.1887 67.7528 37.4953C67.6274 36.974 67.517 36.4477 67.4127 35.9198C67.3084 35.3919 67.2102 34.854 67.0621 34.346C66.8217 33.5235 66.6676 32.6811 66.4635 31.8519C66.335 31.3323 66.2685 30.7895 66.1022 30.2847C65.8967 29.6575 65.7727 29.0087 65.6322 28.3666C65.4478 27.5259 65.2664 26.6819 65.0684 25.8478C64.8885 25.0882 64.7162 24.322 64.4925 23.4912C64.3973 23.7659 64.296 23.9744 64.2537 24.1962C64.1509 24.7423 63.9891 25.2669 63.8471 25.7998C63.7322 26.2284 63.6309 26.6621 63.5145 27.0907C63.374 27.6054 63.2621 28.13 63.1351 28.6497C63.0172 29.1346 62.8857 29.6145 62.7648 30.0977C62.6409 30.5959 62.5215 31.0957 62.3627 31.5855C62.2146 32.0406 62.1466 32.5255 62.0332 32.9939C61.9743 33.2338 61.9093 33.4754 61.8201 33.7038C61.7234 33.9537 61.7188 34.2235 61.6281 34.4817C61.4694 34.9302 61.4271 35.4266 61.2911 35.8867C61.146 36.3799 61.016 36.878 60.8935 37.3745C60.7787 37.8412 60.6517 38.3079 60.5459 38.7796C60.434 39.2777 60.2995 39.7775 60.1499 40.269C60.0259 40.6745 59.9201 41.0915 59.8294 41.5069C59.7115 42.0481 59.5528 42.5743 59.4213 43.1105C59.2717 43.7162 59.1447 44.3286 58.9754 44.9276C58.8349 45.4208 58.7532 45.9355 58.5582 46.4105H54.0267L54.0237 46.4138Z" fill="black"></path><path d="M102.294 46.4141C102.281 46.0384 102.457 45.719 102.561 45.3814C102.768 44.7078 103.013 44.0491 103.241 43.3839C103.435 42.8179 103.633 42.2536 103.819 41.6843C104.005 41.115 104.183 40.544 104.393 39.983C104.614 39.3922 104.797 38.7815 104.996 38.1807C105.218 37.5121 105.46 36.8502 105.658 36.1733C105.826 35.5957 106.05 35.0413 106.211 34.4604C106.361 33.9159 106.586 33.3996 106.74 32.8535C106.893 32.3123 107.082 31.7761 107.271 31.2482C107.458 30.7203 107.666 30.1923 107.833 29.6578C108.125 28.7327 108.418 27.8042 108.743 26.8957C109.092 25.9193 109.426 24.9329 109.75 23.9499C110.079 22.947 110.46 21.9606 110.738 20.9329C110.858 20.4927 111.003 20.0525 111.162 19.6255C111.322 19.1936 111.467 18.7633 111.579 18.3131C111.62 18.1476 111.736 18.0037 111.837 17.815H117.229C117.409 18.338 117.599 18.8858 117.787 19.4352C117.98 20.0012 118.174 20.5672 118.361 21.1365C118.55 21.7041 118.733 22.2751 118.931 22.8394C119.035 23.1373 119.18 23.4236 119.248 23.7331C119.318 24.0508 119.452 24.3388 119.538 24.64C119.74 25.3384 120.004 26.0087 120.213 26.7021C120.34 27.1241 120.488 27.5378 120.633 27.9532C120.882 28.6665 121.114 29.388 121.357 30.1046C121.458 30.4041 121.6 30.6905 121.673 30.9999C121.747 31.3144 121.848 31.609 121.966 31.9069C122.185 32.4596 122.335 33.0471 122.533 33.6115C122.735 34.1923 122.896 34.7897 123.122 35.3624C123.348 35.9317 123.499 36.5374 123.691 37.1232C123.871 37.676 124.062 38.2238 124.25 38.7732C124.449 39.3557 124.658 39.935 124.845 40.5225C124.942 40.8253 125.074 41.1149 125.154 41.4195C125.231 41.714 125.349 41.9887 125.433 42.275C125.639 42.9701 125.896 43.6437 126.111 44.3338C126.253 44.7889 126.411 45.2358 126.563 45.6859C126.643 45.9226 126.762 46.146 126.745 46.4107H121.898C121.674 45.6859 121.451 44.9594 121.227 44.2345C120.854 43.0198 120.48 41.8034 120.105 40.5887C120.001 40.2527 119.891 39.9184 119.797 39.6222H109.225C109.151 39.882 109.083 40.1369 109.005 40.3884C108.737 41.2473 108.468 42.1063 108.196 42.9635C108.036 43.4666 107.857 43.9647 107.705 44.4712C107.51 45.1133 107.33 45.7637 107.144 46.4091H102.297L102.294 46.4141ZM118.446 35.1059C117.147 30.8791 115.869 26.7136 114.588 22.5498C114.585 22.5382 114.56 22.5332 114.544 22.5299C114.528 22.5266 114.51 22.5299 114.475 22.5299C113.186 26.707 111.896 30.889 110.595 35.1075H118.444L118.446 35.1059Z" fill="black"></path><path d="M22.6172 46.4129C22.729 46.0405 22.8318 45.6648 22.9543 45.2974C23.1145 44.8125 23.3306 44.3458 23.4485 43.851C23.5649 43.3645 23.7705 42.916 23.908 42.4393C24.0289 42.0206 24.1559 41.5887 24.3176 41.1866C24.4824 40.7745 24.5655 40.331 24.7363 39.9354C25.1006 39.0964 25.2593 38.1729 25.6705 37.3587C25.7763 36.609 26.1209 35.947 26.3204 35.2288C26.4701 34.6893 26.6892 34.1663 26.8615 33.6301C27.2016 32.5726 27.5432 31.5151 27.9075 30.4692C28.2083 29.6086 28.4199 28.7033 28.8341 27.8908C29.0396 26.82 29.5611 25.8668 29.7833 24.8027C30.1174 24.1837 30.2836 23.4853 30.4907 22.8183C30.7779 21.8916 31.1936 21.0112 31.3704 20.043C31.7045 19.4241 31.7876 18.6942 32.099 18.0654C32.1277 18.0074 32.1035 17.9181 32.1035 17.8204H37.5737C37.6719 18.0571 37.808 18.3235 37.8956 18.6082C38.1163 19.3148 38.3718 20.0083 38.5955 20.7133C38.8146 21.4034 39.058 22.0819 39.2696 22.7737C39.3845 23.1444 39.4691 23.5317 39.6188 23.8842C39.9362 24.6272 40.1387 25.4166 40.4138 26.1779C40.5801 26.638 40.7071 27.1262 40.8688 27.5879C41.0245 28.0331 41.1938 28.4849 41.3419 28.9284C41.5656 29.5954 41.8014 30.2606 42.0055 30.9358C42.1838 31.5283 42.4151 32.0976 42.5904 32.6901C42.9018 33.7393 43.2555 34.7753 43.6107 35.8047C43.9085 36.6669 44.1926 37.5391 44.507 38.3963C44.7474 39.0517 44.9635 39.7285 45.1676 40.4038C45.3459 40.9962 45.5772 41.5655 45.7555 42.1564C46.0367 43.0864 46.3541 44.0016 46.6625 44.9184C46.8302 45.4166 46.9633 45.9346 47.1734 46.4162H42.2201C42.208 46.3069 42.2125 46.1911 42.1808 46.0885C41.8815 45.1303 41.5762 44.1754 41.2724 43.2188C41.0698 42.5817 40.8597 41.9462 40.6647 41.3057C40.4955 40.748 40.3413 40.1853 40.1795 39.616H29.608C29.5626 39.7451 29.5097 39.8759 29.4689 40.0099C29.2452 40.753 29.0457 41.506 28.7948 42.2391C28.5046 43.0881 28.228 43.942 27.9876 44.8109C27.8365 45.3537 27.6415 45.8816 27.4646 46.4162H22.6172V46.4129ZM34.9572 22.532L34.8469 22.5354C33.55 26.7191 32.2516 30.9044 30.9562 35.0848H38.8192C37.4739 30.911 36.2632 26.7042 34.9557 22.532H34.9572Z" fill="black"></path><path d="M0.380859 41.6804C0.920472 40.9175 1.47974 40.1695 1.98761 39.3834C2.1962 39.0606 2.42897 38.7545 2.61186 38.4037C2.78115 38.0793 3.01242 37.7698 3.23763 37.4785C3.61854 36.9837 3.94956 36.4508 4.30477 35.9378C4.69776 35.3701 5.09832 34.8075 5.46713 34.2183C5.80873 33.6722 6.21231 33.1724 6.57658 32.6428C6.90761 32.1612 7.222 31.668 7.54698 31.1798C7.79336 30.8108 8.04125 30.4417 8.29216 30.076C8.79398 29.3445 9.30941 28.6229 9.78705 27.8716C10.1332 27.3288 10.5322 26.8257 10.898 26.2961C11.229 25.8145 11.5434 25.3197 11.8699 24.8348C12.1269 24.4508 12.3899 24.0702 12.6514 23.6895C12.9522 23.2493 13.253 22.8108 13.5507 22.3772C13.5402 22.3507 13.5371 22.3341 13.5296 22.3242C13.519 22.311 13.5024 22.2961 13.4888 22.2961C9.27616 22.2961 5.06204 22.2961 0.826758 22.2961V17.8096H19.1207V22.4765C14.769 28.8695 10.4007 35.2857 6.03999 41.6937C6.08685 41.7499 6.09592 41.7665 6.10952 41.7764C6.12161 41.7863 6.13975 41.7963 6.15487 41.7963C10.6123 41.7963 15.0698 41.7963 19.5651 41.7963V46.4119H0.380859C0.380859 44.8347 0.380859 43.2576 0.380859 41.6804Z" fill="black"></path><path d="M91.0138 46.4133V34.9728C90.6888 34.276 90.3774 33.6074 90.0646 32.9421C89.5733 31.8962 89.1153 30.8287 88.5787 29.811C88.1283 28.9587 87.7686 28.0601 87.3348 27.1995C86.7755 26.0923 86.2903 24.9421 85.7386 23.83C85.2957 22.9363 84.9284 21.998 84.4674 21.1192C83.9066 20.0502 83.4547 18.9215 82.8984 17.8242H87.9772C88.1419 18.2082 88.3142 18.612 88.4896 19.0141C88.8387 19.8168 89.1879 20.6211 89.5385 21.4221C89.9315 22.3207 90.3487 23.2078 90.7175 24.118C91.0622 24.9653 91.499 25.7647 91.827 26.6136C92.1701 27.5023 92.5948 28.3414 92.9576 29.2152C93.0982 29.5545 93.2297 29.9003 93.3703 30.2396C93.3914 30.2893 93.4428 30.3223 93.5048 30.3902C94.2696 28.7303 94.9951 27.0621 95.7993 25.4403C96.4522 24.1229 97.0055 22.751 97.669 21.4436C98.2721 20.2554 98.8057 19.0356 99.3665 17.8275C99.3891 17.7779 99.439 17.7448 99.4859 17.6935H104.516C104.469 17.8424 104.46 18.0013 104.383 18.0874C104.167 18.329 104.078 18.6418 103.94 18.9281C103.499 19.8433 103.05 20.7551 102.606 21.6687C102.329 22.2363 102.055 22.804 101.782 23.3716C101.47 24.0187 101.162 24.6674 100.849 25.3145C100.567 25.8987 100.276 26.4779 99.9937 27.0605C99.6809 27.7059 99.3755 28.3579 99.0611 29.0017C98.455 30.2462 97.8444 31.4874 97.2367 32.732C96.9601 33.2979 96.6926 33.8689 96.416 34.4366C96.3147 34.6434 96.2013 34.8403 96.0698 35.0853C96.0698 36.3017 96.1363 37.5743 96.0487 38.8337C95.9806 39.8018 95.9776 40.7634 95.967 41.7299C95.9565 42.6914 96.0215 43.6579 95.9444 44.6128C95.896 45.2152 95.8703 45.8126 95.8597 46.4133H91.0123H91.0138Z" fill="black"></path><path d="M18.1917 0.260315C18.237 0.298379 18.2839 0.372838 18.3277 0.371183C19.0396 0.344704 19.6231 0.715403 20.1219 1.19037C20.53 1.57928 20.7854 2.12706 20.9351 2.71622C21.0832 3.30373 21.2223 4.17426 21.127 4.69557C21.0802 4.95208 21.0666 5.20526 21.0303 5.45681C20.994 5.70009 20.9124 5.94007 20.8232 6.16845C20.7386 6.38028 20.6433 6.60037 20.5073 6.77249C20.1173 7.26731 19.6911 7.72741 19.1152 7.95414C18.8839 8.04516 18.627 8.05839 18.3821 8.10803C18.2355 8.13782 18.0662 8.03358 17.9423 8.20403C17.9271 8.22555 17.8773 8.22718 17.8455 8.22056C17.6656 8.18581 17.4888 8.14279 17.3089 8.10803C17.1291 8.07328 16.9462 8.16432 16.7633 8.00711C16.6469 7.90615 16.4398 7.94255 16.2917 7.86973C16.1284 7.7903 15.9984 7.6165 15.8307 7.55693C15.6311 7.48576 15.5072 7.33023 15.3984 7.17466C15.0054 6.61364 14.7091 6.01453 14.5867 5.28966C14.5035 4.79649 14.5187 4.31821 14.5066 3.83331C14.4915 3.26235 14.7227 2.7394 14.8179 2.18831C15.093 1.86228 15.2185 1.42208 15.5435 1.1275C15.8155 0.879261 16.1118 0.667422 16.4307 0.541647C16.6696 0.44566 16.9341 0.331464 17.2137 0.371183C17.2545 0.376148 17.3044 0.300035 17.3497 0.261971H18.1932L18.1917 0.260315ZM15.9788 4.22389C15.9788 4.39766 15.9954 4.57306 15.9743 4.74187C15.9486 4.94046 16.0529 5.0944 16.0846 5.27148C16.2584 6.20652 16.8267 6.77249 17.6656 6.82049C18.4199 6.86186 19.0714 6.58053 19.3888 5.71168C19.4689 5.48992 19.5157 5.2665 19.5777 5.04639C19.7621 4.40924 19.6563 3.79029 19.549 3.17796C19.4961 2.87345 19.3978 2.56397 19.1787 2.3058C18.7811 1.83745 18.3201 1.61899 17.7382 1.63885C17.0701 1.66202 16.5955 1.95498 16.2766 2.62523C16.0317 3.13992 15.9637 3.66452 15.9788 4.22223V4.22389Z" fill="black"></path><path d="M41.4833 0.258196C41.4833 0.41707 41.5951 0.369067 41.6722 0.372377C42.298 0.395546 42.8285 0.668626 43.2775 1.13201C43.4997 1.36205 43.7279 1.58709 43.879 1.89326C44.0891 2.32189 44.2343 2.78199 44.3144 3.24703C44.3869 3.67401 44.3128 4.12746 44.334 4.56767C44.3688 5.28261 44.1662 5.93135 43.8942 6.55857C43.6735 7.06498 42.7877 7.90235 42.1363 8.00992C41.905 8.04798 41.6768 8.09268 41.441 8.10923C41.314 8.11916 41.1885 8.16882 41.0631 8.20026C40.9391 8.16882 40.8122 8.10426 40.6867 8.10923C39.7042 8.14398 38.9757 7.60613 38.3892 6.82665C38.1368 6.4907 38.0053 6.04881 37.8995 5.61356C37.7166 4.86884 37.7498 4.10097 37.8178 3.35955C37.8874 2.61152 38.1277 1.89161 38.6552 1.32397C39.0346 0.915198 39.4488 0.625583 39.9627 0.455124C40.1335 0.398856 40.2922 0.398855 40.4555 0.370721C40.531 0.357481 40.6429 0.413757 40.6444 0.254883H41.4878L41.4833 0.258196ZM42.8573 4.15228C42.824 3.76833 42.8966 3.37942 42.756 2.98885C42.5383 2.38645 42.2345 1.93297 41.6314 1.72445C41.3518 1.62681 41.0858 1.63179 40.8212 1.6533C40.2801 1.69467 39.8765 1.96942 39.5621 2.50231C39.3007 2.94418 39.3475 3.4423 39.1797 3.89078C39.1178 4.05628 39.1525 4.27141 39.1691 4.46007C39.1812 4.60074 39.2629 4.73645 39.2644 4.87381C39.2659 5.09888 39.3022 5.30908 39.3747 5.51926C39.5425 6.00912 39.7571 6.42781 40.2559 6.62144C40.4056 6.67936 40.5688 6.65452 40.6867 6.72899C41.1371 7.00702 41.5679 6.7919 41.9186 6.58172C42.3585 6.31693 42.6456 5.86018 42.7666 5.26771C42.8437 4.89038 42.8285 4.5263 42.8573 4.15228Z" fill="black"></path><path d="M100.711 0.260315C100.711 0.419189 100.826 0.381114 100.9 0.37284C101.471 0.308297 101.972 0.57973 102.49 0.768393C102.535 0.784943 102.566 0.846163 102.596 0.879261C102.516 1.27148 102.436 1.65873 102.353 2.0675C101.993 1.88711 101.562 1.82918 101.163 1.65211C101.057 1.60577 100.918 1.65706 100.797 1.64217C100.649 1.62396 100.487 1.71336 100.354 1.55283C100.321 1.51312 100.194 1.50151 100.161 1.53627C100.014 1.68852 99.8253 1.59584 99.6757 1.65542C99.4777 1.73486 99.3023 1.88546 99.1346 1.99469V2.7477C99.2525 2.86851 99.3794 2.99923 99.5185 3.1399C99.8057 3.12335 100.061 3.3236 100.353 3.39145C100.874 3.51392 101.391 3.68274 101.878 3.94587C102.257 4.15109 102.534 4.44401 102.715 4.85609C102.744 4.92063 102.771 4.98517 102.785 5.01661C102.836 5.29795 102.968 5.57928 102.904 5.79112C102.826 6.0526 102.844 6.3025 102.815 6.54744C102.779 6.59708 102.734 6.63516 102.717 6.68481C102.478 7.40471 101.967 7.77871 101.331 7.9922C101.205 8.03357 101.081 8.08321 100.953 8.10472C100.832 8.12458 100.707 8.09976 100.586 8.11135C100.422 8.12624 100.261 8.15436 100.093 8.17753C99.2751 8.06499 98.4287 8.00213 97.623 7.58509C97.8694 7.21769 97.7273 6.71622 98.0251 6.35875C98.8549 6.72449 99.7044 6.91318 100.593 6.84036C100.967 6.81057 101.369 6.47296 101.446 6.08901C101.462 6.00461 101.446 5.89702 101.411 5.82089C101.239 5.44688 101.003 5.16225 100.587 5.10267C100.262 5.05634 99.9493 4.92726 99.6228 4.86106C99.3099 4.79652 98.9895 4.68066 98.7023 4.52179C98.3849 4.34636 98.0629 4.11633 97.8876 3.77872C97.747 3.50897 97.617 3.19285 97.6563 2.84863C97.6956 2.49943 97.6472 2.15854 97.7425 1.79445C97.9269 1.08613 98.3924 0.763404 98.9366 0.495304C99.0545 0.437381 99.186 0.400982 99.3129 0.381122C99.4338 0.361263 99.5578 0.381118 99.6802 0.376153C99.7573 0.372843 99.8677 0.420846 99.8692 0.261971H100.713L100.711 0.260315Z" fill="black"></path><path d="M34.5278 0.260315C34.5278 0.419189 34.6427 0.381114 34.7168 0.37284C35.2881 0.308297 35.7884 0.57973 36.3069 0.768393C36.3522 0.784943 36.3824 0.846163 36.4112 0.879261C36.3794 1.08282 36.3568 1.27812 36.319 1.47174C36.2812 1.66537 36.2298 1.85567 36.1784 2.07247C35.8096 1.88711 35.3879 1.79609 34.9782 1.66039C34.7137 1.57268 34.4024 1.68024 34.1318 1.52964C33.7328 1.67859 33.2385 1.56936 32.9528 2.0675V2.71622C33.2022 3.1945 33.6647 3.24749 34.0713 3.36499C34.6245 3.52552 35.1747 3.67777 35.6947 3.94753C36.0771 4.14612 36.3507 4.44401 36.5321 4.85609C36.5608 4.92063 36.588 4.98517 36.6016 5.01661C36.653 5.29795 36.7845 5.57928 36.721 5.79112C36.6424 6.0526 36.6606 6.3025 36.6318 6.54744C36.5956 6.59708 36.5502 6.63516 36.5336 6.68481C36.2948 7.40471 35.7839 7.77871 35.1475 7.9922C35.0221 8.03357 34.8981 8.08321 34.7697 8.10472C34.6487 8.12458 34.5233 8.09976 34.4024 8.11135C34.2391 8.12624 34.0774 8.15436 33.9096 8.17753C33.0919 8.06499 32.2454 8.0021 31.4609 7.59664C31.5803 7.1796 31.6967 6.77252 31.8192 6.34885C32.6717 6.72452 33.5196 6.90656 34.4099 6.84368C34.679 6.82547 34.883 6.66825 35.072 6.51103C35.1838 6.41835 35.214 6.19988 35.2639 6.03107C35.2987 5.91523 35.2125 5.83086 35.1687 5.7299C35.0115 5.36416 34.7591 5.17218 34.4024 5.10433C34.0774 5.0431 33.7645 4.9256 33.4395 4.8594C33.1266 4.79486 32.8062 4.67901 32.519 4.52013C32.2016 4.34471 31.8796 4.11467 31.7043 3.77707C31.5637 3.50731 31.4337 3.1912 31.473 2.84697C31.5123 2.49778 31.4428 2.15522 31.5562 1.79114C31.6484 1.49325 31.7693 1.2599 31.9628 1.05138C32.1003 0.902437 32.2348 0.753499 32.3724 0.602899C32.4434 0.602899 32.5341 0.634338 32.5795 0.597929C32.8591 0.379477 33.175 0.367875 33.497 0.37284C33.5725 0.37284 33.6844 0.419189 33.6859 0.260315H34.5293H34.5278Z" fill="black"></path><path d="M0.380859 0.376465H5.74676V1.74179H3.92689C3.89968 1.77324 3.88456 1.78649 3.87549 1.80304C3.86643 1.81794 3.85887 1.83611 3.85887 1.85266C3.85887 3.88658 3.85887 5.9205 3.85887 7.97263H2.41839C2.41839 7.97263 2.40932 7.96768 2.40025 7.95114C2.39118 7.93624 2.38514 7.91803 2.38514 7.90148C2.38514 5.86756 2.38514 3.83366 2.38514 1.76167H0.380859V0.376465Z" fill="black"></path><path d="M29.8792 0.395691V7.97363H28.5294V3.61951C28.4115 3.7999 28.348 3.87269 28.3117 3.95709C27.887 4.91861 27.4668 5.88182 27.0451 6.84334C27.0164 6.90788 26.974 6.96745 26.9287 7.04358H25.4928C25.0227 5.95628 24.5375 4.83753 24.0538 3.72044L23.9948 3.73204V7.9786H22.5332V0.402277H24.0009C24.1808 0.799463 24.3939 1.2033 24.5526 1.63193C24.7854 2.26081 25.0862 2.85159 25.3582 3.45895C25.6212 4.04976 25.8525 4.65714 26.1019 5.25623C26.1291 5.32243 26.1881 5.37208 26.2591 5.46641C26.9922 3.76844 27.7147 2.09366 28.4478 0.395691H29.8822H29.8792Z" fill="black"></path><path d="M45.7168 0.388162H47.1497C48.2274 1.93057 49.1903 3.62685 50.3164 5.28179V0.406343C50.5673 0.346765 50.8091 0.383186 51.0464 0.376566C51.2898 0.369946 51.5331 0.376566 51.7931 0.376566V7.97273C51.5603 8.01741 51.3004 7.98433 51.0449 7.99095C50.7849 7.99757 50.5234 7.99095 50.2801 7.99095C49.2628 6.39228 48.2592 4.81678 47.2555 3.24128L47.1769 3.27437V7.97936H45.7168V0.386505V0.388162Z" fill="black"></path><path d="M61.0622 5.13442C61.6457 6.08601 62.2125 7.00783 62.802 7.9677H60.9791C60.4969 7.13361 59.986 6.25152 59.4661 5.35288H58.2463V7.9776H56.762V7.48277C56.762 5.29329 56.7604 3.10546 56.765 0.915977C56.765 0.737244 56.6788 0.51879 56.9872 0.376465H60.0435C60.314 0.532029 60.6073 0.482371 60.8325 0.490646C61.8392 0.882867 62.4181 1.59781 62.4453 2.73144C62.4725 3.8386 62.0341 4.66938 61.0607 5.13442H61.0622ZM61.0018 2.61064C60.8733 2.33592 60.7917 2.16214 60.7478 2.06947L60.4032 1.78648H58.3551V4.05208H60.2128C60.4244 3.90479 60.6587 3.73929 60.8748 3.58869C60.9232 3.21136 60.9655 2.8837 61.0018 2.60898V2.61064Z" fill="black"></path><path d="M92.0877 7.98258H90.7168V0.398011C90.8302 0.391391 90.9617 0.378132 91.0947 0.378132C91.9547 0.376477 92.8133 0.379785 93.6733 0.376475C94.0316 0.37482 94.3701 0.570097 94.7344 0.49397C95.4086 0.872951 96.0857 1.2503 96.1794 2.21348C96.4515 2.82084 96.2595 3.41659 96.0555 3.96272C95.9089 4.35494 95.658 4.73393 95.2529 4.91762C95.1229 4.9772 95.0125 5.08644 94.8916 5.17415C95.4781 6.11912 96.0434 7.02767 96.6299 7.9743H94.7949C94.3112 7.13855 93.8003 6.25484 93.2788 5.35124H92.0877V7.98424V7.98258ZM92.2283 4.07032C92.7468 4.07032 93.2728 4.09348 93.7958 4.06203C94.1646 4.04052 94.479 3.8833 94.6755 3.48115C94.8312 3.16009 94.81 2.83902 94.8055 2.56596C94.6558 2.15884 94.414 1.91724 94.086 1.75837C93.4209 1.77988 92.7437 1.73684 92.0711 1.78483V3.89985L92.2283 4.07197V4.07032Z" fill="black"></path><path d="M8.72598 7.97699H7.35352V0.400661H8.69726V3.46396H11.6523V0.395691H12.999L13.123 0.54963V7.97202H11.6689V4.88888H8.85143L8.72446 5.02787V7.97864L8.72598 7.97699Z" fill="black"></path><path d="M85.8631 4.85372V6.58975H89.0962V7.97492H84.3984V0.385376H89.1008V1.72088C89.1083 1.71261 89.0978 1.72918 89.0842 1.73911C89.0705 1.74904 89.0539 1.75733 89.0388 1.75733C88.0382 1.75733 87.0376 1.75733 86.0354 1.75733C85.8994 1.8318 85.8434 1.94433 85.848 2.11975C85.8586 2.55997 85.851 3.00183 85.851 3.48177H88.8967V4.85206H85.8616L85.8631 4.85372Z" fill="black"></path><path d="M68.663 3.47024V4.86207H65.6414V6.59976H68.8655V7.93361C68.4635 8.01636 65.584 8.04283 64.1602 7.97001V0.403625H68.8716V1.75408H65.6294V3.47189H68.6645L68.663 3.47024Z" fill="black"></path><path d="M73.2805 8.18666C73.1641 8.1635 73.019 8.11551 72.8739 8.1122C72.0411 8.094 71.3745 7.65711 70.8621 6.88756C70.6127 6.51354 70.5326 6.12132 70.4494 5.68441C70.2832 4.81226 70.3905 3.94341 70.3648 3.07623C70.3391 2.19414 70.3587 1.31038 70.3587 0.403471H71.834V3.68855C71.834 4.24626 71.8098 4.80565 71.84 5.36005C71.8718 5.93101 72.0622 6.43245 72.5852 6.68069C73.0674 6.90907 73.5586 6.91403 74.0408 6.67241C74.2237 6.58139 74.396 6.48042 74.4731 6.24377C74.5049 6.14447 74.597 6.06669 74.6772 5.95746C74.8963 4.20157 74.7346 2.40761 74.783 0.616965C74.7845 0.544147 74.783 0.473006 74.783 0.390259H76.2582V1.53381C76.2582 2.61118 76.2673 3.68689 76.2537 4.76426C76.2476 5.19123 76.2235 5.62482 76.1433 6.04021C76.0647 6.44402 75.8758 6.81639 75.6234 7.12752C75.1095 7.75971 74.4731 8.12544 73.6796 8.11386C73.5692 8.11386 73.4574 8.15357 73.279 8.18832L73.2805 8.18666Z" fill="black"></path><path d="M81.019 7.97995H79.5438V1.83849C79.5151 1.80539 79.5045 1.78882 79.4909 1.77889C79.4773 1.76896 79.4606 1.76071 79.4455 1.76071C78.8167 1.76071 78.1879 1.76071 77.541 1.76071V0.403625H82.8812V1.74249H81.0175V7.97995H81.019Z" fill="black"></path><path d="M122.651 17.8077H123.235C123.446 18.3489 123.655 18.8834 123.889 19.4808C124.237 18.895 124.362 18.2446 124.696 17.6935H125.148V20.3083H124.736V18.7841C124.403 19.1532 124.343 19.5901 124.176 19.979H123.684C123.533 19.6033 123.378 19.221 123.182 18.7328V20.3133L122.653 20.343V17.8094L122.651 17.8077Z" fill="black"></path><path d="M121.49 20.3236H121.068V18.1622H120.332V17.8229H122.194V18.1241H121.49V20.3219V20.3236Z" fill="black"></path></svg> 